<?xml version="1.0" encoding="UTF-8"?>
<svg width="36px" height="36px" viewBox="0 0 36 36" version="1.1" xmlns="http://www.w3.org/2000/svg" xmlns:xlink="http://www.w3.org/1999/xlink">
    <title>Group 162</title>
    <defs>
        <filter x="-33.3%" y="-33.3%" width="166.7%" height="166.7%" filterUnits="objectBoundingBox" id="filter-1">
            <feOffset dx="0" dy="1" in="SourceAlpha" result="shadowOffsetOuter1"></feOffset>
            <feGaussianBlur stdDeviation="1.5" in="shadowOffsetOuter1" result="shadowBlurOuter1"></feGaussianBlur>
            <feColorMatrix values="0 0 0 0 0   0 0 0 0 0   0 0 0 0 0  0 0 0 0.5 0" type="matrix" in="shadowBlurOuter1" result="shadowMatrixOuter1"></feColorMatrix>
            <feMerge>
                <feMergeNode in="shadowMatrixOuter1"></feMergeNode>
                <feMergeNode in="SourceGraphic"></feMergeNode>
            </feMerge>
        </filter>
    </defs>
    <g id="Page-1-V1" stroke="none" stroke-width="1" fill="none" fill-rule="evenodd">
        <g id="Marketplace-Copy-2" transform="translate(-1110.000000, -533.000000)">
            <g id="Group-162" filter="url(#filter-1)" transform="translate(1116.000000, 539.000000)">
                <circle id="Oval" fill="#E7E3D7" cx="12" cy="12" r="12"></circle>
                <path d="M18.1621622,10.3470814 C18.1621622,8.57315644 16.8033038,7.13513514 15.1270843,7.13513514 C15.0876218,7.13513514 15.0482903,7.13594357 15.009221,7.13751552 C14.6572482,7.15175291 14.3206582,7.22940732 14.0093716,7.36001404 C13.9747599,7.3745209 13.9404978,7.38970147 13.9065416,7.40551081 C13.4991551,7.59517799 13.1386167,7.87687172 12.8484816,8.22575514 C12.6308912,8.4873728 12.4528508,8.84128647 12.3243243,9.16798292 C12.1957978,8.84128647 12.0177574,8.4873728 11.800167,8.22575514 C11.510032,7.87687172 11.1494935,7.59517799 10.742107,7.40551081 C10.7081508,7.38970147 10.6738888,7.3745209 10.6392771,7.36001404 C10.3279904,7.22940732 9.99140049,7.15175291 9.63942761,7.13751552 C9.60031465,7.13594357 9.56102689,7.13513514 9.52156432,7.13513514 C7.84534481,7.13513514 6.48648649,8.57315644 6.48648649,10.3470814 C6.48648649,10.3883114 6.48648649,10.5489648 6.48648649,10.5886229 C6.48648649,13.359255 9.28933389,15.967437 11.0108283,17.3079524 C11.4599062,17.6595306 11.8474959,17.9296368 12.0831788,18.0879099 C12.230628,18.1868979 12.420599,18.1869429 12.5680046,18.087865 C12.7999728,17.9319274 13.1808325,17.6657286 13.6378204,17.3079524 C15.3593148,15.967437 18.1621622,13.359255 18.1621622,10.5886229 C18.1621622,10.5489648 18.1621622,10.3883114 18.1621622,10.3470814" id="Fill-17" fill="#F231AF"></path>
            </g>
        </g>
    </g>
</svg>