<?xml version="1.0" encoding="UTF-8"?>
<svg width="101px" height="51px" viewBox="0 0 101 51" version="1.1" xmlns="http://www.w3.org/2000/svg" xmlns:xlink="http://www.w3.org/1999/xlink">
    <title>Group 23</title>
    <g id="Page-1-V1" stroke="none" stroke-width="1" fill="none" fill-rule="evenodd">
        <g id="Marketplace-HOME" transform="translate(-678.000000, -104.000000)" fill="#43B5FF">
            <g id="Group-23" transform="translate(678.000000, 105.000000)">
                <g id="Market-Copy" transform="translate(50.500000, 20.902448) rotate(-8.000000) translate(-50.500000, -20.902448) translate(1.513740, 6.653537)" fill-rule="nonzero">
                    <path d="M8.37940712,24.2882352 C8.37940712,26.0413641 9.09165673,27.1683755 10.2228767,28.0449399 C10.8513322,28.5040927 11.2284055,28.5040927 11.6892729,27.6692695 C14.161198,23.2029649 18.2252105,17.5679078 21.9121496,12.8511563 C19.8591949,17.0252727 17.8062401,21.4080949 17.3034757,23.3699296 L17.3034757,23.3281884 C17.0520935,24.246494 16.9682994,25.0395761 16.9682994,25.7074348 C16.9682994,26.9179285 17.4291668,27.6275283 17.9319312,28.0866811 C18.6022838,28.6710574 18.9793571,28.6710574 19.2726364,27.8362341 C21.3255911,21.9924712 25.4733977,13.7277207 28.3642931,8.34311058 C28.9089546,7.21609916 29.369822,6.04734657 29.369822,4.92033515 C29.369822,3.91854721 28.9927486,2.91675928 28.1548079,2.04019484 C27.3587643,1.28885389 26.8141028,1.33059505 26.2694413,2.20715949 C21.6188704,9.55360434 17.1358876,13.6442384 12.7366988,20.2810835 C14.2449921,14.6877675 15.0829328,12.1415565 16.3817409,8.38485175 C16.7588142,7.174358 16.9682994,6.1308289 16.9682994,5.37948795 C16.9682994,4.0437707 16.3817409,2.95850044 15.250521,1.99845367 C14.4544773,1.37233622 13.7841247,1.6227832 13.2813603,2.29064182 C8.88217155,8.17614593 2.30433696,19.1123309 0.586558499,23.2864473 C0.209485178,24.2047529 -1.81743799e-12,25.1230585 -1.81743799e-12,25.9161406 C-1.81743799e-12,26.8344462 0.293279249,27.544046 0.754146641,28.0031988 C1.2988081,28.5458339 1.92726364,28.4206104 2.17864585,27.8362341 C4.44108578,22.6603298 8.16992195,16.6496022 11.4378907,11.6406625 C10.0133915,16.2321906 8.79837748,20.9489421 8.50509823,22.8272944 C8.42130416,23.3699296 8.37940712,23.8290824 8.37940712,24.2882352 Z" id="Path"></path>
                    <path d="M47.7626206,15.8147789 C48.6843554,15.7730378 49.6898842,15.5643319 50.8211042,15.063438 C49.1871198,16.9835315 47.3017532,19.5297425 46.6732977,21.6168007 C46.4638125,22.3681416 46.3381214,23.1612238 46.3381214,23.8290824 C46.3381214,26.2500699 47.8045176,28.0866811 50.4859279,28.1701634 C52.957853,28.2536458 55.9744396,26.4170345 57.1056595,23.8290824 C57.608424,22.6603298 57.4827329,21.5333184 57.2313507,21.0324244 C56.8961744,20.1976011 56.1839248,20.15586 55.8906455,20.8237186 C54.5499404,23.8708235 52.2037064,26.6257404 50.7373101,26.5005169 C50.1088546,26.4587757 49.7736783,25.7909171 49.7736783,24.747388 C49.7736783,24.2047529 49.8574724,23.5368942 50.0669576,22.9107768 C50.7373101,20.8654597 52.8321619,17.9853194 54.6756315,15.8982612 C55.0946018,15.313885 55.304087,14.7295087 55.304087,14.2286147 C55.304087,13.1433444 54.6756315,12.0580742 54.089073,11.4319567 C53.5025145,10.8058393 53.0835441,10.9310627 52.2875004,11.4736979 C51.0724864,12.3085212 49.7317813,12.9346386 48.5586643,13.2268268 C48.9776346,11.8493683 49.2709139,10.6388746 49.2709139,9.67882783 C49.2709139,8.76052222 48.8519435,8.17614593 47.9721058,8.21788709 C46.6314006,8.30136942 44.0337844,11.3484744 44.0337844,13.4772737 C44.0337844,14.312097 44.3689607,14.9799556 45.2906955,15.4391084 C43.3634319,21.3246125 39.969772,26.0831052 37.5397439,26.3335522 C37.1207736,26.3752934 36.9112884,25.9996229 36.9112884,25.3317643 C36.9112884,24.747388 37.2045676,23.8708235 37.5397439,22.9525179 C38.0006113,21.8255065 38.838552,20.4897893 39.5926987,19.154072 C40.2211542,17.9853194 40.8915068,16.9835315 41.3942712,15.8565201 C41.8551386,14.8964733 42.0227267,14.0199089 42.0227267,13.2685679 C42.0227267,12.3502623 41.7294475,11.5989214 41.2685801,11.0980274 C40.7239186,10.5136511 40.1373601,10.7223569 39.5926987,11.3902155 C39.4251105,11.6406625 39.1318313,12.0580742 38.796655,12.6007093 C38.4195817,11.5571802 37.5397439,10.8475804 36.1152447,10.8475804 C33.8947018,10.8475804 30.5010419,12.7259328 27.1492791,17.5261666 C25.6409858,19.6967072 24.9706332,21.8672477 24.9706332,23.6621177 C24.9706332,26.2083287 26.3113384,27.9614576 28.7413664,27.9614576 C30.542939,27.9614576 32.2188204,26.8344462 33.5176285,25.4569878 C33.8528048,27.1266343 35.1935099,28.1701634 37.3721558,28.0449399 C41.8970356,27.7110106 45.7096659,21.5750595 47.7626206,15.8147789 Z M36.9531854,14.1868735 C36.9531854,15.2721438 36.1990388,17.3174608 34.6069514,20.1141188 C32.5539967,23.7038589 30.542939,26.1248464 29.1603368,26.1248464 C28.8251605,26.1248464 28.6994694,25.5822113 28.6994694,24.8726115 C28.6994694,23.4534119 29.3279249,21.4080949 30.584836,19.404519 C32.8053789,15.8982612 35.5705832,13.3937914 36.7018032,13.3937914 C36.8693913,13.3937914 36.9531854,13.6442384 36.9531854,14.1868735 Z" id="Shape"></path>
                    <path d="M69.0882117,2.29064182 C69.0882117,1.70626553 68.9206236,1.1636304 68.6692414,0.662736431 C68.208374,-0.213828011 67.5380214,-0.213828011 66.8676688,0.620995267 C63.1807297,5.6716761 57.1475566,17.4426843 55.26219,22.7855533 C54.8432196,23.996047 54.7175285,24.9143526 54.7175285,25.5822113 C54.7175285,26.4587757 54.9689107,27.043152 55.3878811,27.5023048 C55.8906455,28.1284223 56.5609981,27.9197164 56.8542773,27.3353401 C58.1949825,24.2047529 59.3262024,21.6585419 60.4574224,19.654966 C60.4574224,25.4987289 62.9712445,27.9197164 66.0716252,27.9614576 C69.6328732,28.0031988 71.769622,24.997835 72.5656657,23.5368942 C73.1941212,22.451624 73.2779153,21.4080949 73.0684301,20.8654597 C72.6913568,19.8219306 72.1466953,19.905413 71.6439309,20.9072009 C70.4708139,23.3281884 68.1664769,26.2500699 66.7419777,26.2500699 C65.4850667,26.2500699 64.4795378,23.9543059 64.3119497,20.8237186 C66.7838748,19.9888953 68.5016532,18.8201427 69.8423584,17.5261666 C70.8897843,16.5243787 71.3087546,15.4808496 71.3087546,14.4790617 C71.3087546,13.7694619 71.1411665,13.1016033 70.8059902,12.4754858 C69.8842554,10.5553923 68.7530354,9.88753365 66.8676688,10.5553923 C66.1554192,10.8058393 65.4431696,11.0980274 64.689023,11.6406625 C67.2028451,7.09087567 69.0882117,3.91854721 69.0882117,2.29064182 Z M68.5016532,12.6007093 C68.8787266,13.1433444 68.1245799,14.5208028 66.4486985,15.8982612 C65.0660963,17.0252727 62.1333038,18.3192488 60.9182898,18.7366604 C62.1752009,16.6496022 63.3483179,15.1469203 64.7728171,14.06165 C66.7000807,12.6007093 68.1664769,12.0998153 68.5016532,12.6007093 Z" id="Shape"></path>
                    <path d="M81.9924987,13.2685679 C82.4533661,13.6442384 81.5735283,15.6060731 80.3585143,17.2339785 C79.5205736,18.3609899 78.1798685,19.6132248 77.1743396,19.6132248 C76.8810604,19.6132248 76.5877811,19.5297425 76.2526048,19.3210367 C78.2636625,15.313885 81.3640432,12.767674 81.9924987,13.2685679 Z M85.1347764,14.9382145 C85.1347764,14.3955793 84.9671882,13.7694619 84.715806,13.3937914 C84.1292475,12.5589681 83.2913068,11.8911095 82.1181898,11.2232509 C81.6992195,10.9728039 81.2383521,10.8893216 80.6517936,10.8893216 C78.2217655,10.8893216 74.8281056,13.1016033 72.6494598,17.5261666 C71.769622,19.1958132 71.3506517,20.8237186 71.3506517,22.3264005 C71.3506517,25.6656936 73.4874005,28.2119046 77.3838248,28.1701634 C80.6517936,28.1284223 84.0035564,26.1665876 85.7632319,23.6203766 C86.5173785,22.4933651 86.4754815,21.2828714 86.3497904,20.9072009 C86.0146141,20.0723776 85.4699527,20.15586 85.0090853,20.8237186 C83.2913068,23.4116707 80.4842054,26.5005169 77.3000307,26.5005169 C76.0431196,26.5005169 75.288973,25.2065408 75.288973,23.3699296 C75.288973,22.6185886 75.4146641,21.7420242 75.6660463,20.9072009 C76.6296781,21.5333184 77.635207,21.8255065 78.6407359,21.8255065 C82.327675,21.8255065 85.1347764,17.4426843 85.1347764,14.9382145 Z" id="Shape"></path>
                    <path d="M84.5901149,23.4534119 C84.5901149,26.3335522 86.5173785,28.1284223 88.7379214,28.1284223 C92.2572724,28.1284223 95.0643738,24.5386822 95.6509323,23.2864473 C96.1117997,22.3264005 96.2793878,21.700283 96.0699027,20.8237186 C95.7766234,19.6967072 94.8129916,19.7801895 94.3521242,20.7819774 C92.885728,23.9125647 90.7070821,26.542258 89.0730977,26.542258 C88.3608481,26.542258 87.9418778,25.6656936 87.9418778,24.4134587 C87.9418778,23.4951531 88.19326,22.4098828 88.6960244,21.2828714 C90.1624206,18.1105429 92.5505517,13.9781677 94.142639,11.2649921 C95.0643738,11.1397686 96.1536967,11.0562862 96.9078434,11.1397686 C97.9133722,11.2649921 98.2066515,10.7640981 97.7876811,10.0127571 C97.4944019,9.51186317 96.7821523,8.84400455 95.4833442,8.67703989 C95.9861086,7.50828731 96.1536967,6.54824054 96.1536967,5.79689959 C96.1536967,5.29600562 95.9861086,4.58640584 95.6928293,4.08551187 C95.231962,3.29242975 94.7291975,3.25068859 94.100742,4.1689942 C93.1371102,5.5464526 92.2572724,6.92391101 90.9584643,9.17793386 C90.0367295,9.26141619 88.9055096,9.30315735 87.9418778,9.26141619 C86.9782459,9.21967503 86.5592756,9.63708666 87.1458341,10.5136511 C87.4810104,11.0145451 88.235157,11.4736979 89.5339651,11.6406625 C87.8580837,14.6460263 86.2659963,17.9435783 85.4280556,19.9888953 C84.8414971,21.3663537 84.5901149,22.5351063 84.5901149,23.4534119 Z" id="Path"></path>
                </g>
                <path d="M1.26226838,46.8947067 C1.26226838,46.8947067 0.997374614,47.9298045 0.467587082,50 L96.8347641,36.1882519 L97.9537256,32.5881928 C33.4927541,42.1258687 1.26226838,46.8947067 1.26226838,46.8947067 Z" id="Path-5"></path>
                <path d="M32.0789985,12.5178484 C32.0789985,12.5178484 32.2660402,13.3985499 32.6401238,15.1599527 L60.5357007,10.9658832 L61.966288,8.02312296 C42.0414283,11.0196066 32.0789985,12.5178484 32.0789985,12.5178484 Z" id="Path-5-Copy"></path>
                <path d="M71.2025655,6.48025184 C71.2025655,6.48025184 70.9376718,7.5153496 70.4078843,9.58554513 L89.3856358,7.0162272 L90.8162231,4.07346698 C77.7404514,5.67799022 71.2025655,6.48025184 71.2025655,6.48025184 Z" id="Path-5-Copy-2"></path>
            </g>
        </g>
    </g>
</svg>