<?xml version="1.0" encoding="UTF-8"?>
<svg width="161px" height="67px" viewBox="0 0 161 67" version="1.1" xmlns="http://www.w3.org/2000/svg" xmlns:xlink="http://www.w3.org/1999/xlink">
    <title>Group 2</title>
    <g id="Page-1-V1" stroke="none" stroke-width="1" fill="none" fill-rule="evenodd">
        <g id="Marketplace-HOME" transform="translate(-647.000000, -52.000000)">
            <g id="Group-2" transform="translate(648.000000, 53.000000)">
                <g id="Group-5" transform="translate(74.003798, 32.000000) rotate(1.000000) translate(-74.003798, -32.000000) translate(0.527597, 1.271695)">
                    <g id="Group-21" transform="translate(73.476202, 29.473817) rotate(-10.000000) translate(-73.476202, -29.473817) translate(1.944349, 12.099679)" fill="#F231AF">
                        <path d="M14.6258301,25.3817214 L7.01384624,18.5634761 L5.71930011,20.6382535 L7.41436153,26.5699832 C7.67274434,27.4752218 7.20116281,28.3138411 6.31502822,28.5637723 C5.42845495,28.8132681 4.55811285,28.3517227 4.30718761,27.4726093 L0.0620765006,12.6182485 C-0.182268533,11.7635186 0.314756463,10.9174971 1.20089106,10.6680013 C2.08746433,10.4185055 2.93280163,10.8865822 3.18372687,11.7661311 L4.61338659,16.7682386 L9.18750807,8.93546423 C9.66610849,8.12166384 10.6794604,7.8364636 11.4594343,8.26883587 C12.2788895,8.74387933 12.5127062,9.6560847 12.0082236,10.4768518 L8.78743147,15.6740276 L16.7275484,22.9707996 C18.5827281,24.6754698 16.22833,26.7772432 14.6258301,25.3817214" id="Fill-1"></path>
                        <path d="M29.3318917,13.558582 C29.5402649,14.5565651 29.0853533,15.3438049 28.0803363,15.5497586 C27.0494371,15.7622437 26.5129309,15.1252239 26.0474909,14.1799266 C25.6750511,13.2955881 24.8358553,12.8810681 23.7531919,13.1035678 C21.6909549,13.5276671 21.1798921,15.8471506 21.7668466,18.6612715 L22.6099905,22.7041483 C22.7911656,23.5736825 22.2651877,24.4022871 21.3628219,24.5877761 C20.4604561,24.7732652 19.620383,24.2250711 19.4387693,23.3551015 L17.2677395,12.9415915 C17.0808616,12.0459321 17.6384245,11.2382276 18.5403516,11.0527386 C19.4427174,10.8672496 20.2516442,11.3949789 20.4385221,12.2906383 L20.5451215,12.802257 C21.0140709,11.1851063 22.2309706,10.187994 24.1129099,9.80134088 C26.6388322,9.28231998 28.7559042,10.7954052 29.3318917,13.558582" id="Fill-3"></path>
                        <path d="M44.1678027,8.54659043 L45.7115193,20.2816008 C46.1708178,23.7784606 44.0050522,26.483291 39.7511675,27.034533 C37.5590811,27.318427 35.5459763,26.9470135 34.0338447,25.74656 C32.119443,24.308367 33.7908157,21.8787222 35.9039396,23.2124143 C36.6646116,23.7458041 37.9328369,24.1085091 39.4208411,23.915618 C42.6569871,23.4963083 42.6205766,21.603972 42.5113452,20.7753673 L42.2963917,19.1434123 C41.5401065,20.4531564 40.2315226,21.2020791 38.4307392,21.4358998 C35.2731171,21.8447594 32.9897851,19.8222325 32.5155715,16.2217427 L31.718489,10.1598223 C31.5960972,9.22715224 32.182613,8.43991248 33.1218279,8.31843024 C34.0614815,8.19607716 34.8059223,8.81089051 34.9287529,9.74399604 L35.6920569,15.5464059 C35.9271897,17.3342413 36.9905512,18.3553017 38.7128108,18.1323666 C40.7224061,17.8719853 41.9309709,16.7668888 41.5501962,13.4703223 L40.9579775,8.96241674 C40.8382178,8.05587184 41.4541252,7.29083852 42.3420145,7.176323 C43.2553473,7.0578887 44.0489203,7.64004553 44.1678027,8.54659043" id="Fill-5"></path>
                        <path d="M58.1083229,13.0134794 C57.9938273,10.717944 56.3913275,9.22706515 53.9992028,9.34419319 C52.842841,9.40079782 51.7816729,9.79311144 51.033284,10.6404392 L51.3008791,16.0152664 C52.1023483,16.7602704 53.1744835,17.1264588 54.3839256,17.0672416 C56.7492908,16.9509844 58.2223799,15.3094502 58.1083229,13.0134794 M55.0388755,20.1735295 C53.8298721,20.2327466 52.5261137,19.9828154 51.4645069,19.3026891 L52.1929018,28.7488044 C52.2385245,29.6614452 51.5897161,30.3999178 50.6702418,30.4447661 C49.7498901,30.4900498 49.0050106,29.8203735 48.9593879,28.9068619 L47.6703593,8.18989419 C47.6273686,7.32863299 48.3011819,6.56359967 49.2206562,6.51831596 C49.9045591,6.48478861 50.5033579,6.87361886 50.769637,7.462307 C51.8321212,6.57361433 53.158691,6.22048853 54.3154914,6.16431932 C58.1267475,5.97708863 61.1400438,8.81123884 61.3387661,12.8031714 C61.5401204,16.846919 58.8242495,19.9880405 55.0388755,20.1735295 Z" id="Fill-7"></path>
                        <path d="M65.4947812,15.0825527 L65.6382297,9.31062229 L64.0067769,9.27056363 C63.1386283,9.24966346 62.4191923,8.52599506 62.4406876,7.66429844 C62.4621829,6.8021664 63.2425955,6.11594414 64.1111829,6.13727973 L65.7163148,6.17646755 L65.8312491,1.55361107 C65.8523058,0.691479031 66.6340344,-0.020868449 67.5021831,0.000467141776 C68.3707705,0.0218027326 69.0888904,0.771160932 69.0678338,1.63285755 L68.9528995,6.25571403 L72.5312162,6.34366891 C73.3998036,6.3650045 74.1455605,7.08867291 74.1240651,7.95036952 C74.1025698,8.81250156 73.3217185,9.49872383 72.4535698,9.47738824 L68.8748144,9.38986877 L68.7313658,15.1617992 C68.7032903,16.284748 69.3209524,16.8747424 70.2154219,16.8969488 C71.3730998,16.9248157 71.7135158,15.9403306 71.8402945,15.0812465 C72.0473517,14.1712182 72.8475049,13.7471189 73.6094929,13.8180924 C74.3442827,13.9138849 75.041346,14.4799311 75.0137091,15.5771901 C74.9461524,18.2933414 72.9523495,20.1260251 70.163219,20.0576642 C67.3214467,19.9879969 65.4210829,18.0599562 65.4947812,15.0825527" id="Fill-9"></path>
                        <path d="M79.7810255,13.5432987 C79.5577371,15.7264957 81.0953123,17.5091061 83.3470592,17.7363954 C85.5992449,17.9628139 87.4399482,16.5202668 87.6632366,14.3370698 C87.8865249,12.1538728 86.3779027,10.3473143 84.1257171,10.1208958 C81.8739701,9.89360643 80.0043139,11.3596663 79.7810255,13.5432987 M90.9362317,14.6666829 C90.5295749,18.6433758 87.1341879,21.3212101 83.0228743,20.9071255 C78.9119995,20.4930409 76.1272557,17.192991 76.5343512,13.2158627 C76.9432014,9.21348004 80.3385884,6.53564569 84.4503407,6.94973032 C88.5612155,7.36425037 91.3455206,10.6643002 90.9362317,14.6666829" id="Fill-12"></path>
                        <path d="M112.527822,17.5943178 L111.272319,23.8199561 C111.081054,24.7678659 110.301519,25.3056099 109.372394,25.1209917 C108.44283,24.9363736 107.906323,24.136942 108.097588,23.1894676 L109.301766,17.2198564 C109.657975,15.4520503 109.188586,14.1862838 107.846224,13.9198066 C106.297682,13.6119645 105.022876,14.3443413 104.3302,17.7771943 L103.425641,22.2607163 C103.234376,23.2086261 102.454841,23.7463701 101.525716,23.5617519 C100.59659,23.3771338 100.059645,22.5777022 100.251349,21.6297924 L101.455088,15.6606166 C101.811297,13.8928105 101.341908,12.6270439 99.9995461,12.3601313 C98.451004,12.0522893 97.1761985,12.7851015 96.483522,16.2179545 L95.5688732,20.7528561 C95.3929623,21.6236965 94.5827194,22.1819053 93.6790376,22.0025121 C92.7757945,21.823119 92.2182316,20.9927726 92.3941425,20.1219322 L94.4923513,9.72017855 C94.6730876,8.82364832 95.5039485,8.29635443 96.4076303,8.47574756 C97.2591091,8.64469061 97.7859644,9.36226313 97.6977896,10.1978345 C98.6791179,9.32699409 99.9179516,9.04005217 101.388847,9.33221914 C102.989592,9.65051132 104.099015,10.6702655 104.594286,12.2077343 C105.766879,10.9219384 107.273746,10.5017578 109.08111,10.8605441 C111.919811,11.4248487 113.246381,14.0334513 112.527822,17.5943178" id="Fill-14"></path>
                        <path d="M117.597477,20.2744599 C116.956126,22.3744916 118.120384,24.4170479 120.286589,25.0684365 C122.452793,25.7198252 124.537841,24.6543519 125.179192,22.5543202 C125.820104,20.4542885 124.688747,18.3943154 122.522543,17.7433622 C120.356339,17.0915381 118.238389,18.1744282 117.597477,20.2744599 M128.327602,23.5009237 C127.160273,27.3260904 123.309975,29.3076878 119.355709,28.1185552 C115.401004,26.9294225 113.306743,23.1604251 114.474072,19.3352585 C115.649297,15.4852729 119.499157,13.5036755 123.453862,14.6928081 C127.408128,15.8819407 129.502827,19.6505027 128.327602,23.5009237" id="Fill-16"></path>
                        <path d="M142.476759,27.7607704 L140.14912,33.6729061 C139.794666,34.5733551 138.933098,34.9682813 138.050473,34.626041 C137.167847,34.2833653 136.780054,33.4038164 137.134069,32.5038028 L139.366075,26.8346316 C140.026728,25.1560866 139.639373,23.7714503 138.095218,23.1727475 C136.256708,22.4595292 134.67702,22.8844993 133.393002,26.1444905 L131.69794,30.4512319 C131.372439,31.2780949 130.476215,31.6882608 129.618156,31.3551643 C128.760097,31.0225032 128.35695,30.1089916 128.682889,29.2816932 L132.571792,19.4037501 C132.906944,18.5520681 133.818083,18.1758651 134.675704,18.5089615 C135.533763,18.8416226 135.921995,19.7211714 135.586843,20.5728534 C136.841469,19.8256723 138.302275,19.7751635 139.945134,20.4121833 C142.836915,21.5342612 143.808154,24.3784261 142.476759,27.7607704" id="Fill-18"></path>
                    </g>
                    <path d="M15.2829755,61.4566098 C58.6315705,38.7844099 100.807451,33.6230095 141.810618,45.9724086" id="Path-2" stroke="#F231AF" stroke-width="3.63001269" stroke-linecap="round"></path>
                </g>
                <path d="M160,18.9957378 C155.553305,20.0057199 154.202275,21.2684812 153.121257,25.4239073 C152.040482,21.2684812 150.689452,20.0057199 146.242757,18.9957378 C150.689452,17.9857558 152.040482,16.7229945 153.121257,12.5675683 C154.202275,16.7229945 155.553305,17.9857558 160,18.9957378" id="Fill-1-Copy" fill="#FFCC00"></path>
            </g>
        </g>
    </g>
</svg>
