<?xml version="1.0" encoding="UTF-8"?>
<svg width="30px" height="32px" viewBox="0 0 30 32" version="1.1" xmlns="http://www.w3.org/2000/svg" xmlns:xlink="http://www.w3.org/1999/xlink">
    <title>seed-of-life (1)</title>
    <g id="Page-1-V4" stroke="none" stroke-width="1" fill="none" fill-rule="evenodd">
        <g id="Kryptomon-detail-PDP" transform="translate(-224.000000, -623.000000)" fill-rule="nonzero">
            <g id="seed-of-life-(1)" transform="translate(224.000000, 623.000000)">
                <path d="M15,0.46875 C12.1190464,0.46875 9.60380382,2.03 8.25755853,4.3505 L15,11.9821875 L21.7424415,4.3505 C20.3961962,2.03 17.8809536,0.46875 15,0.46875 Z" id="Path" fill="#FA9647"></path>
                <path d="M15,20.0178125 L8.25755853,27.6495 C9.60380382,29.97 12.1190464,31.53125 15,31.53125 C17.8809536,31.53125 20.3961962,29.97 21.7424415,27.6495 L15,20.0178125 Z" id="Path" fill="#66E0FF"></path>
                <path d="M1.5164328,8.234375 C0.0759559861,10.72325 0.173758792,13.67675 1.51517972,16 L12.0155421,16 L8.25755853,4.3505 C5.56995498,4.35325 2.95690961,5.7455 1.5164328,8.234375 Z" id="Path" fill="#FD4C7C"></path>
                <path d="M28.4848203,16 L26.8567576,16 L21.7420655,27.6484375 C24.4301077,27.64675 27.0430904,26.2545 28.4835672,23.765625 C29.924044,21.27675 29.8263039,18.32325 28.4848203,16 L28.4848203,16 Z" id="Path" fill="#0BCC63"></path>
                <path d="M27.6469491,19.8828125 C27.6469491,18.4683125 27.3592422,17.14225 26.8567576,16 L17.9844579,16 L21.7420655,27.6484375 C25.003266,27.64825 27.6469491,24.1715 27.6469491,19.8828125 L27.6469491,19.8828125 Z" id="Path" fill="#39E66D"></path>
                <path d="M21.7551853,4.3691375 C21.7659116,4.3691375 21.776638,4.3696375 21.7874646,4.3697375 C21.776638,4.3696375 21.7659116,4.3691375 21.7551853,4.3691375 Z" id="Path" fill="#FEEF4C"></path>
                <path d="M28.4835672,8.234375 C27.0705955,5.7930625 24.5293515,4.40775 21.8962569,4.353125 L26.9900225,15.678625 L28.4848203,16 C29.8263039,13.67675 29.924044,10.72325 28.4835672,8.234375 Z" id="Path" fill="#FDD937"></path>
                <path d="M21.8962569,4.353125 C21.8517099,4.3521875 21.807163,4.351 21.7625534,4.3508125 C21.7558494,4.3508125 21.7491454,4.3505 21.7423788,4.3505 L16.492229,13.42175 L26.9900225,15.678625 C27.4096786,14.6115625 27.6469491,13.4003125 27.6469491,12.116125 C27.6469491,7.8951875 25.0861571,4.460875 21.8962569,4.353125 L21.8962569,4.353125 Z" id="Path" fill="#FEEF4C"></path>
                <path d="M12.0155421,16 L1.51517972,16 C0.173696138,18.32325 0.0759559861,21.27675 1.5164328,23.765625 C2.95690961,26.2545 5.56995498,27.64675 8.25762119,27.6495 L12.0155421,16 Z" id="Path" fill="#806CD4"></path>
                <path d="M12.1505613,5.3919375 C10.9221681,4.6844375 9.58080982,4.349125 8.25755853,4.35049579 C7.59474247,5.493 7.21524753,6.8194375 7.21524753,8.234375 C7.21524753,12.5231875 10.7006237,16 15,16 C17.1497195,12.28575 15.8739599,7.536375 12.1505613,5.3919375 Z" id="Path" fill="#FF2796"></path>
                <path d="M12.1505613,26.6080625 C15.8739599,24.463625 17.1497195,19.71425 15,16 C10.7006237,16 7.21524753,19.4768125 7.21524753,23.765625 C7.21524753,25.1805625 7.59480512,26.507 8.25755853,27.6495042 C9.58087247,27.650875 10.9221681,27.3155 12.1505613,26.6080625 Z" id="Path" fill="#9AADEA"></path>
                <path d="M22.7847525,23.765625 C22.7847525,19.4768125 19.2993763,16 15,16 C12.8502805,19.71425 14.1260401,24.463625 17.8494387,26.6080625 C19.0778319,27.3155625 20.4191902,27.650875 21.7424415,27.6495042 C22.4051949,26.507 22.7847525,25.1805625 22.7847525,23.765625 L22.7847525,23.765625 Z" id="Path" fill="#1AD0FF"></path>
                <path d="M4.36580884,18.8424375 C8.08920739,20.9868125 12.8502805,19.71425 15,16 C12.8502805,12.28575 8.08920739,11.0131875 4.36580884,13.1575625 C3.13741562,13.8650625 2.17567759,14.8561875 1.51517972,16 C2.17567759,17.1438125 3.13741562,18.1349375 4.36580884,18.8424375 Z" id="Path" fill="#853C8B"></path>
                <path d="M17.8494387,5.3919375 C14.1260401,7.536375 12.8502805,12.28575 15,16 C19.2993763,16 22.7847525,12.5231875 22.7847525,8.234375 C22.7847525,6.8194375 22.4051949,5.493 21.7424415,4.35049579 C20.4191275,4.349125 19.0778319,4.6845 17.8494387,5.3919375 Z" id="Path" fill="#FC7161"></path>
                <path d="M25.6341912,13.1575625 C24.4059859,12.4501875 23.0648783,12.114875 21.7418149,12.1161215 C21.7418149,12.1171875 27.3614351,17.4924375 27.3614351,17.4924375 C27.7993235,17.0371875 28.1755604,16.5356875 28.4848203,16 C27.8243851,14.8561875 26.8625844,13.8650625 25.6341912,13.1575625 L25.6341912,13.1575625 Z" id="Path" fill="#39E66D"></path>
                <path d="M21.7418149,12.1171875 C19.0539608,12.118625 16.4406021,13.5109375 15,16 C17.1497195,19.71425 21.9107926,20.9868125 25.6341912,18.8424375 C26.2873585,18.46625 26.864276,18.0093125 27.3614351,17.4924375 C26.5948014,14.3733125 24.3688321,12.1171875 21.7418149,12.1171875 L21.7418149,12.1171875 Z" id="Path" fill="#9CF183"></path>
                <path d="M8.25724526,12.116625 L15,16 L15,8.234375 C12.1187958,8.234375 9.60336524,9.795875 8.25724526,12.116625 L8.25724526,12.116625 Z" id="Path" fill="#C23191"></path>
                <path d="M8.25724526,19.883375 C9.60336524,22.204125 12.1187958,23.765625 15,23.765625 L15,16 L8.25724526,19.883375 Z" id="Path" fill="#8D8DDF"></path>
                <path d="M21.7427547,19.883375 L15,16 L15,23.765625 C17.8812042,23.765625 20.3966348,22.204125 21.7427547,19.883375 Z" id="Path" fill="#0BCC63"></path>
                <path d="M7.21524753,16 C7.21524753,17.41475 7.59467981,18.741 8.25724526,19.883375 L15,16 L8.25724526,12.116625 C7.59467981,13.259 7.21524753,14.58525 7.21524753,16 Z" id="Path" fill="#484686"></path>
                <path d="M21.7427547,12.116625 C20.3966348,9.795875 17.8812042,8.234375 15,8.234375 L15,16 L21.7427547,12.116625 Z" id="Path" fill="#FD4C7C"></path>
                <path d="M15,16 L21.7427547,19.883375 C22.4053828,18.741 22.7847525,17.41475 22.7847525,16 C22.7847525,14.58525 22.4053202,13.259 21.7427547,12.116625 L15,16 Z" id="Path" fill="#FDD937"></path>
                <g id="Group" transform="translate(8.256932, 8.234375)" fill="#FFFFFF">
                    <path d="M6.74306801,7.765625 C5.30234058,5.276375 2.68873133,3.8840625 0.000689193378,3.88175 C1.34605732,6.203875 3.8616758,7.765625 6.74306801,7.765625 Z" id="Path"></path>
                    <path d="M6.74306801,7.765625 C3.8616758,7.765625 1.34605732,9.327375 0,11.6484375 C2.68873133,11.6471875 5.30234058,10.254875 6.74306801,7.765625 Z" id="Path"></path>
                    <path d="M6.74306801,7.765625 C5.30259119,10.2545 5.400394,13.208 6.74181493,15.53125 C8.08574201,13.208 8.18354482,10.2545 6.74306801,7.765625 Z" id="Path"></path>
                    <path d="M6.74306801,7.765625 C8.18354482,10.2545 10.7965902,11.64675 13.4842564,11.6495 C12.1392642,9.326875 9.62402163,7.765625 6.74306801,7.765625 Z" id="Path"></path>
                    <path d="M6.74306801,7.765625 C9.62402163,7.765625 12.1392642,6.204375 13.4854468,3.883875 C10.7965902,3.8845 8.18354482,5.27675 6.74306801,7.765625 Z" id="Path"></path>
                    <path d="M6.74306801,7.765625 C8.18354482,5.27675 8.08574201,2.32325 6.74432109,0 C5.400394,2.32325 5.30259119,5.27675 6.74306801,7.765625 L6.74306801,7.765625 Z" id="Path"></path>
                </g>
                <path d="M29.0240201,16 C29.31699,15.4506875 29.5497494,14.8643125 29.7151558,14.248375 C30.2858079,12.123875 29.9929634,9.9048125 28.8905046,8 C27.7880458,6.0951875 26.0079846,4.7326875 23.8782517,4.163375 C23.2587296,3.99775 22.6311877,3.905625 22.0057133,3.8844375 C20.5462524,1.5539375 17.9518152,0 15,0 C12.0481221,0 9.45374762,1.5539375 7.99428666,3.8845 C7.36881235,3.905625 6.74127045,3.9978125 6.12174826,4.163375 C3.99201541,4.7326875 2.21195423,6.0951875 1.10949544,8 C0.00703664829,9.9048125 -0.285870537,12.123875 0.284844233,14.248375 C0.450626568,14.8655 0.683887199,15.452875 0.97767154,16.0030625 C-0.165199042,18.1395 -0.34946429,20.7449375 0.663462013,23.109625 C0.765399979,23.347625 1.0413906,23.4581875 1.28022743,23.3565 C1.5188763,23.25475 1.62964847,22.9793125 1.52764786,22.74125 C0.707382428,20.8263125 0.773294376,18.733125 1.56392449,16.941875 C2.23689049,17.8718125 3.1053368,18.6576875 4.13085655,19.2483125 C5.18237768,19.8539375 6.32932077,20.213875 7.50345567,20.3206875 C7.01726107,21.369375 6.74534295,22.5363125 6.74534295,23.7655625 C6.74534295,24.966125 7.00441701,26.107375 7.46943458,27.1369375 C5.51707505,26.9255625 3.66477386,25.935625 2.41138173,24.2680625 C2.25574933,24.0609375 1.96108784,24.0189375 1.75351532,24.17425 C1.54588015,24.3295625 1.5037767,24.623375 1.6594091,24.8305 C3.20727477,26.88975 5.56406551,28.0335625 7.99253235,28.1126875 C9.45161739,30.4448125 12.0469317,32 15,32 C17.9516899,32 20.5460018,30.44625 22.0054627,28.115875 C22.6309997,28.09475 23.2587296,28.0021875 23.8782517,27.8365625 C26.0079846,27.2673125 27.7880458,25.90475 28.8905046,23.9999375 C29.9929634,22.095125 30.2858705,19.8760625 29.7151558,17.7515625 C29.5497494,17.1356875 29.31699,16.5493125 29.0240201,16 Z M23.6349665,5.0689375 C25.5222912,5.573375 27.0996669,6.7808125 28.0766298,8.46875 C29.0535928,10.1566875 29.3130428,12.123125 28.8073628,14.00575 C28.7097479,14.36925 28.5855678,14.721 28.4369527,15.059375 C27.7638614,14.128875 26.8951018,13.3425625 25.8690808,12.751625 C24.817685,12.1460625 23.6706166,11.786 22.4965443,11.679125 C22.9827389,10.6305 23.2545944,9.4635625 23.2545944,8.234375 C23.2545944,7.0335 22.995395,5.8919375 22.5301268,4.862125 C22.8999104,4.9029375 23.2690675,4.971125 23.6349665,5.0689375 L23.6349665,5.0689375 Z M21.4641953,27.1776875 C20.2880555,27.134625 19.1326541,26.805875 18.084391,26.202125 C17.188189,25.686 16.4271942,25.00175 15.8343626,24.1925625 C18.2397101,23.950625 20.3431909,22.674 21.6904387,20.8173125 C22.0914866,21.7194375 22.3148479,22.7169375 22.3148479,23.7656875 C22.3148479,24.9975 22.0067785,26.1588125 21.4641953,27.1776875 L21.4641953,27.1776875 Z M8.5358047,4.8224375 C9.71194452,4.8655 10.8674712,5.1941875 11.9156717,5.7979375 C12.8118737,6.3140625 13.5728685,6.9983125 14.1657001,7.8075 C11.7603525,8.0494375 9.65687171,9.3260625 8.30962396,11.18275 C7.90857607,10.280625 7.68521475,9.283125 7.68521475,8.234375 C7.68521475,7.0025 7.99322155,5.84125 8.5358047,4.8224375 L8.5358047,4.8224375 Z M22.3148479,8.234375 C22.3148479,9.2830625 22.0914866,10.280625 21.6904387,11.18275 C20.3431909,9.326 18.2397101,8.0494375 15.8343626,7.8075 C16.4271942,6.998375 17.1881263,6.3140625 18.084391,5.7979375 C19.1327168,5.1941875 20.2879928,4.8655625 21.464258,4.8224375 C22.0067785,5.84125 22.3148479,7.0025 22.3148479,8.234375 L22.3148479,8.234375 Z M15.3237956,21.771375 C15.2365813,22.096 15.1279394,22.4111875 15,22.7159375 C14.8720606,22.4111875 14.7634187,22.096 14.6762044,21.771375 C14.249907,20.184375 14.3674458,18.537875 15,17.0488125 C15.6325542,18.537875 15.750093,20.184375 15.3237956,21.771375 Z M14.6762044,10.228625 C14.7634187,9.904 14.8720606,9.5888125 15,9.2840625 C15.1279394,9.5888125 15.2365813,9.904 15.3237956,10.228625 C15.750093,11.815625 15.6325542,13.462125 15,14.9511875 C14.3674458,13.462125 14.249907,11.815625 14.6762044,10.228625 Z M19.6053155,11.929 C18.3972221,12.2519375 17.3019059,12.8303125 16.3787,13.617875 C16.6008709,12.4265625 16.5553215,11.1910625 16.2315886,9.986 C16.1164933,9.5574375 15.968442,9.143375 15.7906928,8.745875 C17.8830212,8.97125 19.7134562,10.08025 20.8987435,11.69025 C20.4659927,11.7355 20.0337431,11.8145 19.6053155,11.929 Z M20.8250624,12.6425625 C19.6616414,14.1686875 17.9105889,15.2258125 15.911239,15.47475 C16.887638,14.1841875 18.2580051,13.25975 19.8486007,12.834625 C20.1722083,12.7480625 20.4983221,12.684375 20.8250624,12.6425625 Z M13.7684114,9.986 C13.4446785,11.191125 13.3991917,12.4265625 13.6213,13.617875 C12.6980941,12.8303125 11.6027779,12.2519375 10.3946845,11.929 C9.96625688,11.8145 9.53400732,11.7354375 9.10125654,11.6901875 C10.2865438,10.08025 12.1169788,8.97125 14.2093072,8.7458125 C14.0314953,9.143375 13.8835067,9.5574375 13.7684114,9.986 L13.7684114,9.986 Z M10.1513993,12.834625 C11.7419323,13.25975 13.112362,14.1841875 14.088761,15.47475 C12.0894737,15.2258125 10.3385466,14.1688125 9.17512553,12.6428125 C9.5018032,12.684625 9.82785432,12.748125 10.1513993,12.834625 L10.1513993,12.834625 Z M10.3946845,20.071 C11.6027779,19.7480625 12.6980941,19.1696875 13.6213,18.382125 C13.3991291,19.5734375 13.4446785,20.8089375 13.7684114,22.014 C13.8835067,22.4425625 14.031558,22.856625 14.2093072,23.254125 C12.1169788,23.02875 10.2864812,21.9196875 9.10125654,20.3096875 C9.53400732,20.2645 9.96631953,20.1855 10.3946845,20.071 Z M9.17506288,19.3573125 C10.338484,17.8313125 12.0894737,16.77425 14.088761,16.5253125 C13.112362,17.815875 11.7419949,18.7403125 10.1513993,19.1654375 C9.82785432,19.2519375 9.50174054,19.3154375 9.17506288,19.3573125 L9.17506288,19.3573125 Z M16.2315886,22.014 C16.5553215,20.808875 16.6008083,19.5734375 16.3787,18.382125 C17.3019059,19.1696875 18.3972221,19.7480625 19.6053155,20.071 C20.0338058,20.1855 20.4660553,20.2645 20.8988061,20.30975 C19.7135188,21.91975 17.8830839,23.02875 15.7907554,23.254125 C15.9685047,22.856625 16.1164933,22.4425625 16.2315886,22.014 Z M15.911239,16.5253125 C17.9105263,16.77425 19.6614534,17.8313125 20.8249371,19.35725 C20.4982595,19.315375 20.1722083,19.2519375 19.8486007,19.1654375 C18.2580051,18.7403125 16.887638,17.8158125 15.911239,16.5253125 L15.911239,16.5253125 Z M21.6904387,18.948375 C20.7146035,17.6035 19.3419809,16.563375 17.7451825,16 C19.3419809,15.436625 20.7146035,14.3965 21.6904387,13.051625 C22.0914866,13.95375 22.3148479,14.95125 22.3148479,16 C22.3148479,17.04875 22.0914866,18.04625 21.6904387,18.948375 Z M8.30956131,13.051625 C9.28539647,14.3965 10.6580191,15.436625 12.2548175,16 C10.6580191,16.563375 9.28539647,17.6035 8.30956131,18.948375 C7.90851341,18.04625 7.68515211,17.04875 7.68515211,16 C7.68515211,14.95125 7.90851341,13.95375 8.30956131,13.051625 Z M14.1656374,24.1925625 C13.5728058,25.0016875 12.8118737,25.686 11.915609,26.202125 C10.8522463,26.8145625 9.69151934,27.13175 8.53423835,27.17475 C7.99259501,26.156625 7.68515211,24.996375 7.68515211,23.7656875 C7.68515211,22.717 7.90851341,21.7194375 8.30956131,20.8173125 C9.65680905,22.674 11.7602899,23.9505625 14.1656374,24.1925625 Z M22.5290617,12.625125 C23.5280789,12.732625 24.5029116,13.0473125 25.3992389,13.5635 C26.4490057,14.168125 27.3131915,15.0034375 27.9389165,15.9999375 C27.3131915,16.9964375 26.4490684,17.8318125 25.3992389,18.436375 C24.5027863,18.9526875 23.5279535,19.268 22.5288111,19.3754375 C22.9950191,18.3448125 23.2547197,17.2020625 23.2547197,15.999875 C23.254657,14.798125 22.9950818,13.655625 22.5290617,12.625125 L22.5290617,12.625125 Z M15,0.9375 C17.4173771,0.9375 19.5642145,2.1135625 20.8968012,3.9219375 C19.7541812,4.0386875 18.638941,4.3959375 17.6144864,4.986 C16.5645316,5.5906875 15.6794194,6.400125 15,7.3591875 C14.3205806,6.400125 13.4354684,5.5906875 12.3855136,4.986 C11.3609963,4.3959375 10.2457561,4.03875 9.10313615,3.9219375 C10.4357855,2.113625 12.5826229,0.9375 15,0.9375 L15,0.9375 Z M1.19263722,14.00575 C0.686957242,12.1230625 0.946407222,10.1566875 1.92337016,8.46875 C2.9003331,6.7808125 4.47770878,5.573375 6.36503352,5.0689375 C6.73105786,4.971125 7.10015224,4.902875 7.4698105,4.862125 C7.00454232,5.891875 6.74534295,7.0335 6.74534295,8.234375 C6.74534295,9.4635625 7.01719842,10.6305 7.50339302,11.679125 C6.32932077,11.786 5.18231503,12.146125 4.1309192,12.751625 C3.09199151,13.3499375 2.2289961,14.1445 1.5648643,15.063375 C1.41543464,14.7238125 1.29062799,14.3706875 1.19263722,14.00575 L1.19263722,14.00575 Z M2.06296315,16.002875 C2.67910203,15.0226875 3.5357694,14.176875 4.60076113,13.5635 C5.49721375,13.04725 6.47204645,12.731875 7.47118889,12.6244375 C7.0049809,13.6550625 6.7452803,14.7978125 6.7452803,16 C6.7452803,17.2021875 7.0049809,18.3449375 7.47118889,19.375625 C6.47204645,19.2681875 5.49721375,18.9528125 4.60069847,18.4365 C3.55199677,17.8324375 2.68856277,16.998125 2.06296315,16.002875 Z M15,31.0625 C12.5809939,31.0625 10.4329034,29.8848125 9.10050469,28.0743125 C10.2286516,27.9595 11.3481523,27.6114375 12.3855762,27.0139375 C13.435531,26.40925 14.3206433,25.5998125 15.0000627,24.64075 C15.679482,25.5998125 16.5645943,26.40925 17.6145491,27.0139375 C18.639129,27.6040625 19.7543065,27.9611875 20.8969265,28.0779375 C19.5642771,29.886375 17.4173771,31.0625 15,31.0625 L15,31.0625 Z M28.0766298,23.53125 C27.0996669,25.2191875 25.5222912,26.426625 23.6349665,26.9310625 C23.2688795,27.0289375 22.8996598,27.0976875 22.5299389,27.1384375 C22.9953324,26.1085 23.254657,24.96675 23.254657,23.765625 C23.254657,22.536375 22.9827389,21.369375 22.4965443,20.3206875 C23.6706166,20.213875 24.817685,19.853875 25.8691434,19.248375 C26.8951644,18.6574375 27.763924,17.871125 28.4370153,16.940625 C28.5855678,17.2789375 28.7097479,17.63075 28.8074254,17.99425 C29.3130428,19.876875 29.0535928,21.8433125 28.0766298,23.53125 L28.0766298,23.53125 Z" id="Shape" fill="#000000"></path>
            </g>
        </g>
    </g>
</svg>