<?xml version="1.0" encoding="UTF-8"?>
<svg width="38px" height="36px" viewBox="0 0 38 36" version="1.1" xmlns="http://www.w3.org/2000/svg" xmlns:xlink="http://www.w3.org/1999/xlink">
    <title>Group 37</title>
    <g id="Page-1-V2" stroke="none" stroke-width="1" fill="none" fill-rule="evenodd">
        <g id="My-kryptomon-detail-V2" transform="translate(-974.000000, -1289.000000)">
            <g id="Group-37" transform="translate(974.272461, 1289.159414)">
                <rect id="Rectangle-Copy-18" x="2.72753929" y="1.84058587" width="32" height="32" rx="5"></rect>
                <g id="measure" transform="translate(18.727539, 17.840586) rotate(-39.000000) translate(-18.727539, -17.840586) translate(2.727539, 7.840586)" fill-rule="nonzero">
                    <path d="M28.9525625,13.8173958 C29.083875,13.8173958 29.2229375,13.8415293 29.359375,13.8851907 L15.781,6.18260421 L4.381875,6.18260421 C4.226125,6.18260421 4.0795625,6.14471519 3.9503125,6.07870109 L17.592375,13.8173958 L28.9525625,13.8173958 Z" id="Path" fill="#E8B800"></path>
                    <path d="M20.84,13.8173958 L7.381125,6.18260421 L4.381875,6.18260421 C4.226125,6.18260421 4.0795625,6.14471519 3.9503125,6.07870109 L17.592375,13.8173958 L20.84,13.8173958 Z" id="Path" fill="#D7AA02"></path>
                    <path d="M30.90625,6.18260421 L4.381875,6.18260421 C3.8640625,6.18260421 3.444375,5.77018496 3.444375,5.26147724 L3.444375,1.07464813 C3.444375,0.735550588 3.724125,0.460563484 4.069375,0.460563484 L30.90625,0.460563484 C31.251375,0.460563484 31.53125,0.735550588 31.53125,1.07464813 L31.53125,5.56851956 C31.53125,5.90767851 31.251375,6.18260421 30.90625,6.18260421 Z" id="Path" fill="#FED402"></path>
                    <path d="M5.975625,4.61668836 C5.4578125,4.61668836 5.038125,4.20426912 5.038125,3.6955614 L5.038125,0.460563484 L4.069375,0.460563484 C3.7241875,0.460563484 3.444375,0.735550588 3.444375,1.07464813 L3.444375,5.26147724 C3.444375,5.77018496 3.8640625,6.18260421 4.381875,6.18260421 L30.90625,6.18260421 C31.251375,6.18260421 31.53125,5.90767851 31.53125,5.56851956 L31.53125,4.61668836 L5.975625,4.61668836 Z" id="Path" fill="#FAC600"></path>
                    <path d="M1.162125,13.8173958 C0.7791875,13.8173958 0.46875,14.1224116 0.46875,14.4986613 L0.46875,18.8582324 C0.46875,19.2344821 0.7791875,19.5394365 1.162125,19.5394365 L4.5594375,19.5394365 L4.5594375,13.8173958 L1.162125,13.8173958 Z" id="Path" fill="#766E6E"></path>
                    <path d="M2.6413125,17.9735207 C2.258375,17.9735207 1.9479375,17.6685662 1.9479375,17.2923166 L1.9479375,13.8173958 L1.162125,13.8173958 C0.7791875,13.8173958 0.46875,14.1224116 0.46875,14.4986613 L0.46875,18.8582324 C0.46875,19.2344821 0.7791875,19.5394365 1.162125,19.5394365 L4.5594375,19.5394365 L4.5594375,17.9735207 L2.6413125,17.9735207 Z" id="Path" fill="#5B5555"></path>
                    <path d="M29.29925,19.5394365 L4.5594375,19.5394365 L4.5594375,13.8173958 L28.9525625,13.8173958 C29.5269375,13.8173958 29.9925625,14.2748889 29.9925625,14.839294 L29.9925625,18.8582324 C29.9925625,19.2344821 29.6821875,19.5394365 29.29925,19.5394365 Z" id="Path" fill="#FED402"></path>
                    <path d="M6.1531875,17.9735207 L6.1531875,13.8173958 L4.5594375,13.8173958 L4.5594375,19.5394365 L29.29925,19.5394365 C29.6821875,19.5394365 29.9925625,19.2344821 29.9925625,18.8582324 L29.9925625,17.9735207 L6.1531875,17.9735207 Z" id="Path" fill="#FAC600"></path>
                    <path d="M30.90625,0 L4.069375,0 C3.4663125,0 2.975625,0.482117855 2.975625,1.07464813 L2.975625,5.26147724 C2.975625,5.7900813 3.2795,6.25009211 3.7244375,6.48233893 L15.843,13.3568323 L1.162125,13.3568323 C0.5213125,13.3568323 0,13.8690403 0,14.4986613 L0,18.8582324 C0,19.487792 0.5213125,20 1.162125,20 L29.29925,20 C29.94,20 30.4613125,19.487792 30.4613125,18.8582324 L30.4613125,17.660706 C30.4613125,17.4063521 30.2515,17.2001425 29.9925625,17.2001425 C29.733625,17.2001425 29.5238125,17.4063521 29.5238125,17.660706 L29.5238125,18.8582324 C29.5238125,18.9798826 29.423125,19.078873 29.29925,19.078873 L5.0281875,19.078873 L5.0281875,14.2779593 L6.7443125,14.2779593 L6.7443125,17.091081 C6.7443125,17.3454349 6.954125,17.5516445 7.2130625,17.5516445 C7.472,17.5516445 7.6818125,17.3454349 7.6818125,17.091081 L7.6818125,14.2779593 L9.240375,14.2779593 L9.240375,15.6567021 C9.240375,15.911056 9.4501875,16.1172656 9.709125,16.1172656 C9.9680625,16.1172656 10.177875,15.911056 10.177875,15.6567021 L10.177875,14.2779593 L11.7364375,14.2779593 L11.7364375,15.6567021 C11.7364375,15.911056 11.94625,16.1172656 12.2051875,16.1172656 C12.464125,16.1172656 12.6739375,15.911056 12.6739375,15.6567021 L12.6739375,14.2779593 L14.2324375,14.2779593 L14.2324375,17.091081 C14.2324375,17.3454349 14.44225,17.5516445 14.7011875,17.5516445 C14.960125,17.5516445 15.1699375,17.3454349 15.1699375,17.091081 L15.1699375,14.2779593 L16.7285,14.2779593 L16.7285,15.6567021 C16.7285,15.911056 16.9383125,16.1172656 17.19725,16.1172656 C17.4561875,16.1172656 17.666,15.911056 17.666,15.6567021 L17.666,14.2779593 L19.2245625,14.2779593 L19.2245625,15.6567021 C19.2245625,15.911056 19.434375,16.1172656 19.6933125,16.1172656 C19.95225,16.1172656 20.1620625,15.911056 20.1620625,15.6567021 L20.1620625,14.2779593 L21.720625,14.2779593 L21.720625,17.091081 C21.720625,17.3454349 21.9304375,17.5516445 22.189375,17.5516445 C22.4483125,17.5516445 22.658125,17.3454349 22.658125,17.091081 L22.658125,14.2779593 L24.216625,14.2779593 L24.216625,15.6567021 C24.216625,15.911056 24.4264375,16.1172656 24.685375,16.1172656 C24.9443125,16.1172656 25.154125,15.911056 25.154125,15.6567021 L25.154125,14.2779593 L26.7126875,14.2779593 L26.7126875,17.091081 C26.7126875,17.3454349 26.9225,17.5516445 27.1814375,17.5516445 C27.440375,17.5516445 27.6501875,17.3454349 27.6501875,17.091081 L27.6501875,14.2779593 L28.9528125,14.2779593 C29.2678125,14.2779593 29.5240625,14.5297954 29.5240625,14.839294 L29.5240625,15.4653533 C29.5240625,15.7197072 29.733875,15.9259168 29.9928125,15.9259168 C30.25175,15.9259168 30.4615625,15.7197072 30.4615625,15.4653533 L30.4615625,14.839294 C30.4615625,14.2409914 30.09875,13.7247304 29.5781875,13.4907028 L26.9028125,11.9709047 C26.6785,11.8436049 26.391875,11.9191373 26.2625,12.1394709 C26.1330625,12.3597431 26.209875,12.6414237 26.4340625,12.7686006 L27.4709375,13.3568323 L22.5034375,13.3568323 L23.75,11.2349856 L24.527375,11.6759598 C24.7515625,11.8030753 25.0383125,11.7276657 25.1676875,11.5073936 C25.297125,11.2871214 25.2203125,11.0054408 24.996125,10.8782639 L21.6515,8.98092653 C21.6514375,8.98086512 21.6513125,8.98080371 21.65125,8.98074231 C21.6511875,8.9806809 21.6510625,8.98061949 21.6509375,8.98061949 L17.5304375,6.64316769 L30.90625,6.64316769 C31.5093125,6.64316769 32,6.16104984 32,5.56851956 L32,1.07464813 C32,0.482117855 31.5093125,0 30.90625,0 Z M4.0906875,19.078873 L1.162125,19.078873 C1.0383125,19.078873 0.9375,18.9798826 0.9375,18.8582324 L0.9375,14.4986613 C0.9375,14.3770111 1.03825,14.2779593 1.162125,14.2779593 L4.0906875,14.2779593 L4.0906875,19.078873 Z M7.5253125,7.57485692 L5.882875,6.64316769 L8.07275,6.64316769 L7.5253125,7.57485692 Z M18.6149375,8.32201371 L17.9133125,9.51603989 C17.783875,9.73631205 17.8606875,10.0179927 18.084875,10.1451696 C18.1586875,10.1870502 18.2393125,10.2069465 18.3188125,10.2069465 C18.4808125,10.2069465 18.638375,10.1243521 18.7251875,9.97660338 L19.4268125,8.78257719 L20.7765,9.54821793 L20.074875,10.7422441 C19.9454375,10.9625163 20.02225,11.2441969 20.2464375,11.3713738 C20.3203125,11.4132544 20.400875,11.4331507 20.480375,11.4331507 C20.642375,11.4331507 20.7999375,11.350495 20.88675,11.2028076 L21.588375,10.0087814 L22.938125,10.7744221 L21.4206875,13.3568323 L17.718,13.3568323 L14.8220625,11.7140945 L15.524625,10.5184103 C15.6540625,10.2981381 15.57725,10.0164575 15.3530625,9.88928054 C15.12875,9.7620422 14.842125,9.83757461 14.71275,10.0578468 L14.0101875,11.253531 L8.3371875,8.0354204 L9.1553125,6.64316769 L13.8370625,6.64316769 L13.59,7.06363145 C13.4605625,7.28390361 13.537375,7.56558424 13.7615625,7.69276117 C13.835375,7.73464174 13.916,7.75453809 13.9955,7.75453809 C14.1575,7.75453809 14.3150625,7.6719437 14.401875,7.52419494 L14.9195625,6.64316769 L15.6553125,6.64316769 L16.45325,7.09580949 L15.8115625,8.1877748 C15.682125,8.40804697 15.7589375,8.68972759 15.983125,8.81690452 C16.057,8.85878509 16.1375625,8.87868144 16.2170625,8.87868144 C16.3790625,8.87868144 16.536625,8.79602564 16.6234375,8.64833829 L17.265125,7.55637297 L18.6149375,8.32201371 Z M31.0625,5.56851956 C31.0625,5.65314043 30.9924375,5.72204073 30.90625,5.72204073 L4.381875,5.72204073 C4.123375,5.72204073 3.913125,5.51546265 3.913125,5.26147724 L3.913125,1.07464813 C3.913125,0.990027265 3.9831875,0.921126968 4.069375,0.921126968 L5.7869375,0.921126968 L5.7869375,2.29986981 C5.7869375,2.55422367 5.99675,2.7604333 6.2556875,2.7604333 C6.514625,2.7604333 6.7244375,2.55422367 6.7244375,2.29986981 L6.7244375,0.921126968 L8.283,0.921126968 L8.283,3.73418732 C8.283,3.98854118 8.4928125,4.1947508 8.75175,4.1947508 C9.0106875,4.1947508 9.2205,3.98854118 9.2205,3.73418732 L9.2205,0.921126968 L10.7790625,0.921126968 L10.7790625,2.29986981 C10.7790625,2.55422367 10.988875,2.7604333 11.2478125,2.7604333 C11.50675,2.7604333 11.7165625,2.55422367 11.7165625,2.29986981 L11.7165625,0.921126968 L13.275,0.921126968 L13.275,2.29986981 C13.275,2.55422367 13.4848125,2.7604333 13.74375,2.7604333 C14.0026875,2.7604333 14.2125,2.55422367 14.2125,2.29986981 L14.2125,0.921126968 L15.7710625,0.921126968 L15.7710625,3.73418732 C15.7710625,3.98854118 15.980875,4.1947508 16.2398125,4.1947508 C16.49875,4.1947508 16.7085625,3.98854118 16.7085625,3.73418732 L16.7085625,0.921126968 L18.267125,0.921126968 L18.267125,2.29986981 C18.267125,2.55422367 18.4769375,2.7604333 18.735875,2.7604333 C18.9948125,2.7604333 19.204625,2.55422367 19.204625,2.29986981 L19.204625,0.921126968 L20.763125,0.921126968 L20.763125,2.29986981 C20.763125,2.55422367 20.9729375,2.7604333 21.231875,2.7604333 C21.4908125,2.7604333 21.700625,2.55422367 21.700625,2.29986981 L21.700625,0.921126968 L23.2591875,0.921126968 L23.2591875,3.73418732 C23.2591875,3.98854118 23.469,4.1947508 23.7279375,4.1947508 C23.986875,4.1947508 24.1966875,3.98854118 24.1966875,3.73418732 L24.1966875,0.921126968 L25.75525,0.921126968 L25.75525,2.29986981 C25.75525,2.55422367 25.9650625,2.7604333 26.224,2.7604333 C26.4829375,2.7604333 26.69275,2.55422367 26.69275,2.29986981 L26.69275,0.921126968 L28.25125,0.921126968 L28.25125,3.73418732 C28.25125,3.98854118 28.4610625,4.1947508 28.72,4.1947508 C28.9789375,4.1947508 29.18875,3.98854118 29.18875,3.73418732 L29.18875,0.921126968 L30.90625,0.921126968 C30.9924375,0.921126968 31.0625,0.990027265 31.0625,1.07464813 L31.0625,5.56851956 Z" id="Shape" fill="#000000"></path>
                    <path d="M2.415875,15.9090295 C2.675375,15.9090295 2.88575,15.70239 2.88575,15.4473607 C2.88575,15.1923927 2.6754375,14.9857532 2.415875,14.9857532 C2.1563125,14.9857532 1.946,15.1923927 1.946,15.4473607 C1.9460625,15.7023286 2.156375,15.9090295 2.415875,15.9090295 Z" id="Path" fill="#000000"></path>
                    <path d="M2.415875,18.3711405 C2.675375,18.3711405 2.88575,18.1644396 2.88575,17.9095331 C2.88575,17.6545651 2.6754375,17.4478642 2.415875,17.4478642 C2.1563125,17.4478642 1.946,17.6545037 1.946,17.9095331 C1.9460625,18.1644396 2.156375,18.3711405 2.415875,18.3711405 Z" id="Path" fill="#000000"></path>
                </g>
            </g>
        </g>
    </g>
</svg>