<?xml version="1.0" encoding="UTF-8"?>
<svg width="29px" height="32px" viewBox="0 0 29 32" version="1.1" xmlns="http://www.w3.org/2000/svg" xmlns:xlink="http://www.w3.org/1999/xlink">
    <title>brain</title>
    <g id="Page-1-V4" stroke="none" stroke-width="1" fill="none" fill-rule="evenodd">
        <g id="Kryptomon-detail-PDP" transform="translate(-585.000000, -1441.000000)" fill-rule="nonzero">
            <g id="brain" transform="translate(585.000000, 1441.000000)">
                <path d="M28.3691239,15.8936875 C28.3587217,14.56 27.6422957,13.4016875 26.5793196,12.7454375 C26.8870978,12.1974375 27.0745261,11.57475 27.0692935,10.9035 C27.0562435,9.2298125 25.9384826,7.6983125 24.4074717,7.1806875 C24.4055174,7.16225 24.9568326,5.5110625 23.5718935,4.157625 C23.0922587,3.6900625 22.4618239,3.373 21.7607174,3.284625 C21.2385913,1.8173125 19.8199239,0.5838125 18.1625739,0.596402987 C16.0733761,0.6125 14.3946543,2.4916875 14.4107935,4.562875 C14.3946543,2.4916875 12.6868065,0.6385 10.5976087,0.6545 C8.9402587,0.6671875 7.54094565,1.9223125 7.04183043,3.3974375 C6.34217391,3.4965625 5.71678261,3.82325 5.24452391,4.298125 C3.90201304,5.65125 4.45610217,7.3273125 4.45616522,7.333625 C2.93341304,7.8746875 1.83967174,9.423125 1.85272174,11.0968125 C1.85795435,11.7680625 2.0550913,12.3878125 2.37138043,12.931 C1.31874348,13.6034375 0.620473913,14.772625 0.630761431,16.1063125 C0.638126087,17.0380625 1.00453478,18.1049375 1.63339348,18.7861875 C1.03460652,19.4551875 0.663784783,20.3286875 0.67135,21.293625 C0.680365217,22.4529375 1.23054565,23.4725 2.06990652,24.15425 C2.00339565,24.437875 1.95901304,24.7295 1.9614087,25.033875 C1.97754783,27.1050625 3.68539565,28.95825 5.77459348,28.94225 C5.91770217,28.941125 6.05368696,28.913875 6.19225652,28.8971875 C6.90496304,30.38925 8.43238043,31.422 10.2069913,31.4085082 C12.6441891,31.3896875 14.6031391,29.228375 14.5843522,26.8121875 C14.6032022,29.228375 16.5956283,31.3594375 19.0328261,31.34075 C20.807437,31.327125 22.3185891,30.2711875 23.0079696,28.7683125 C23.1467913,28.782875 23.2831543,28.8080625 23.426263,28.807 C25.5154609,28.791 27.1941826,26.9118125 27.1780435,24.840625 C27.1756478,24.53625 27.1267261,24.245375 27.0558022,23.9628125 C27.8845087,23.2683125 28.4186761,22.2404375 28.4097118,21.081125 C28.4020957,20.116125 28.0176565,19.2484375 27.4085304,18.58875 C28.0271761,17.89725 28.376437,16.8245 28.3691239,15.8936875 Z" id="Path" fill="#FFA8BE"></path>
                <path d="M17.6521739,6.4375 C18.0001739,6.4375 18.2826087,6.1575 18.2826087,5.8125 C18.2826087,5.4675 18.0001739,5.1875 17.6521739,5.1875 C17.3041739,5.1875 17.0217391,5.4675 17.0217391,5.8125 C17.0217391,6.1575 17.3041739,6.4375 17.6521739,6.4375 Z" id="Path" fill="#000000"></path>
                <path d="M11.3478261,6.4375 C11.6958261,6.4375 11.9782609,6.1575 11.9782609,5.8125 C11.9782609,5.4675 11.6958261,5.1875 11.3478261,5.1875 C10.9998261,5.1875 10.7173913,5.4675 10.7173913,5.8125 C10.7173913,6.1575 10.9998261,6.4375 11.3478261,6.4375 Z" id="Path" fill="#000000"></path>
                <path d="M0,21.1875 C0,22.351 0.475852174,23.459375 1.31754565,24.282375 C0.884815217,26.875625 2.97092391,29.5 5.67391304,29.5 C5.69345652,29.5 5.71268478,29.4996875 5.73153478,29.499125 C6.62769783,31.03175 8.29116304,32 10.0869565,32 C11.9585913,32 13.6310087,30.88625 14.5,29.281625 C15.3689913,30.88625 17.0414087,32 18.9130435,32 C20.708837,32 22.3723022,31.03175 23.2684652,29.499125 C23.2873783,29.4996875 23.3065435,29.5 23.326087,29.5 C25.7182087,29.5 27.7391304,27.410625 27.7391304,24.9375 C27.7391304,24.7269375 27.7204696,24.510375 27.6824543,24.282375 C28.5241478,23.459375 29,22.3510625 29,21.1875 C29,20.29025 28.7147283,19.4169375 28.1881891,18.680125 C28.7292913,17.875 29,16.8704375 29,16 C29,14.68775 28.4119935,13.4685625 27.4029826,12.6418125 C27.6262826,12.1128125 27.7391304,11.562625 27.7391304,11 C27.7391304,9.2590625 26.7142957,7.6373125 25.1905978,6.88 C25.4217783,4.979125 24.1723826,3.23675 22.3208587,2.7923125 C21.5961739,1.1315 19.9832065,0 18.2826087,0 C16.699587,0 15.2797848,0.915375 14.5,2.251 C13.7201522,0.915375 12.30035,0 10.7173913,0 C9.01666739,0 7.4037,1.1315 6.6791413,2.792375 C4.81652174,3.239625 3.57885217,4.9906875 3.80940217,6.88 C2.28576739,7.63725 1.26086957,9.2590625 1.26086957,11 C1.26086957,11.562625 1.37371739,12.1128125 1.59701739,12.6418125 C0.588006522,13.468625 0,14.68775 0,16 C0,16.875 0.272978261,17.87825 0.81181087,18.6800625 C0.285271739,19.4169375 0,20.29025 0,21.1875 Z M18.2826087,1.25 C19.370487,1.25 20.2949565,1.914 20.850937,2.732125 C20.0626413,2.8525 19.3352457,3.21575 18.760037,3.7853125 C18.513663,4.02925 18.5134109,4.4249375 18.7594696,4.6691875 C19.0055283,4.9134375 19.4047826,4.913625 19.6510304,4.6696875 C20.1279543,4.1975625 20.7613522,3.9375 21.4347826,3.9375 C22.8212978,3.9375 23.9565217,5.0491875 23.9565217,6.4375 C23.9565217,6.454 23.9552609,6.4700625 23.9549457,6.4865 C23.7470913,6.4544375 23.5371565,6.4375 23.326087,6.4375 C20.9339652,6.4375 18.9130435,8.526875 18.9130435,11 C18.9130435,11.3451875 19.1953522,11.625 19.5434783,11.625 C19.8916043,11.625 20.173913,11.3451875 20.173913,11 C20.173913,9.2354375 21.6468609,7.6875 23.326087,7.6875 C25.0901696,7.6875 26.4782609,9.3123125 26.4782609,11 C26.4782609,11.5251875 26.3361609,12.0399375 26.0559326,12.529875 C25.8901283,12.8198125 25.9829913,13.18775 26.2670022,13.366125 C27.1888239,13.9450625 27.7391304,14.9296875 27.7391304,16 C27.7391304,17.7706875 26.29285,19.3125 24.5869565,19.3125 C24.2388304,19.3125 23.9565217,19.5923125 23.9565217,19.9375 C23.9565217,20.2826875 24.2388304,20.5625 24.5869565,20.5625 C25.5798913,20.5625 26.520437,20.1935625 27.2765804,19.5794375 C27.5774239,20.065875 27.7391304,20.620625 27.7391304,21.1875 C27.7391304,22.1044375 27.3202696,22.975875 26.590037,23.5783125 C26.4054457,23.7305625 26.3241826,23.9735 26.3803543,24.204875 C26.4471804,24.4800625 26.4782609,24.712875 26.4782609,24.9374375 C26.4782609,26.8774375 24.7083152,28.4453125 23.1125587,28.2290625 C23.0682391,28.2230625 23.0238565,28.217125 22.9792848,28.212125 C22.7090174,28.1818125 22.4504761,28.3259375 22.3363043,28.57 C21.7163348,29.8943125 20.372563,30.75 18.9130435,30.75 C16.8626804,30.75 15.1304348,28.9468125 15.1304348,26.8125 C15.1304348,24.74475 16.827313,23.0625 18.9130435,23.0625 C19.2611696,23.0625 19.5434783,22.7826875 19.5434783,22.4375 C19.5434783,22.0923125 19.2611696,21.8125 18.9130435,21.8125 C17.4077543,21.8125 16.0553457,22.4705 15.1304348,23.5105625 L15.1304348,11.625 C15.1304348,10.93575 15.6960609,10.375 16.3913043,10.375 C16.7394304,10.375 17.0217391,10.0951875 17.0217391,9.75 C17.0217391,9.4048125 16.7394304,9.125 16.3913043,9.125 C15.9321587,9.125 15.5016348,9.247875 15.1304348,9.4613125 L15.1304348,4.5625 C15.1304348,2.797875 16.6033826,1.25 18.2826087,1.25 Z M2.73306087,13.366125 C3.01707174,13.18775 3.10993478,12.8198125 2.94406739,12.529875 C2.66383913,12.0399375 2.52173913,11.5251875 2.52173913,11 C2.52173913,9.313125 3.90882174,7.6875 5.67391304,7.6875 C7.35313913,7.6875 8.82608696,9.2354375 8.82608696,11 C8.82608696,11.3451875 9.10833261,11.625 9.45652174,11.625 C9.80471087,11.625 10.0869565,11.3451875 10.0869565,11 C10.0869565,8.526875 8.06603478,6.4375 5.67391304,6.4375 C5.46284348,6.4375 5.2529087,6.4544375 5.04505435,6.4865 C5.04473913,6.4700625 5.04347826,6.4540625 5.04347826,6.4375 C5.04347826,5.0426875 6.18563696,3.9375 7.56521739,3.9375 C8.23864783,3.9375 8.8721087,4.1975625 9.34884348,4.6696875 C9.59515435,4.913625 9.99428261,4.913375 10.2404043,4.66925 C10.486463,4.425 10.4862739,4.0293125 10.239963,3.785375 C9.66481739,3.2158125 8.9373587,2.8525625 8.149,2.7321875 C8.70498043,1.914 9.62951304,1.25 10.7173913,1.25 C12.3966174,1.25 13.8695652,2.797875 13.8695652,4.5625 L13.8695652,9.4613125 C13.4983652,9.247875 13.0678413,9.125 12.6086957,9.125 C12.2605065,9.125 11.9782609,9.4048125 11.9782609,9.75 C11.9782609,10.0951875 12.2605065,10.375 12.6086957,10.375 C13.3039391,10.375 13.8695652,10.93575 13.8695652,11.625 L13.8695652,23.5105625 C12.9446543,22.4705 11.5922457,21.8125 10.0869565,21.8125 C9.73876739,21.8125 9.45652174,22.0923125 9.45652174,22.4375 C9.45652174,22.7826875 9.73876739,23.0625 10.0869565,23.0625 C12.172687,23.0625 13.8695652,24.74475 13.8695652,26.8125 C13.8695652,28.9468125 12.1373196,30.75 10.0869565,30.75 C8.62737391,30.75 7.28372826,29.8943125 6.6637587,28.57 C6.54946087,28.3259375 6.29060435,28.182 6.02071522,28.212125 C5.97614348,28.2171875 5.93182391,28.2230625 5.88750435,28.2290625 C4.09328696,28.4723125 2.07274348,26.458125 2.6197087,24.204875 C2.67588043,23.9734375 2.59455435,23.7305625 2.41002609,23.5783125 C1.67973043,22.975875 1.26086957,22.1044375 1.26086957,21.1875 C1.26086957,20.6205625 1.42257609,20.06575 1.72348261,19.57925 C2.47962609,20.193625 3.42017174,20.5625 4.41304348,20.5625 C4.76123261,20.5625 5.04347826,20.2826875 5.04347826,19.9375 C5.04347826,19.5923125 4.76123261,19.3125 4.41304348,19.3125 C2.70210652,19.3125 1.26086957,17.764375 1.26086957,16 C1.26086957,14.9296875 1.81117609,13.9450625 2.73306087,13.366125 Z" id="Shape" fill="#000000"></path>
                <path d="M8.73782609,15.3160625 C8.4951087,16.0740625 7.77868261,16.625 6.93478261,16.625 C6.58659348,16.625 6.30434783,16.9048125 6.30434783,17.25 C6.30434783,17.5951875 6.58659348,17.875 6.93478261,17.875 C8.47033261,17.875 9.75219565,16.780625 10.0303435,15.337375 C10.9070891,15.2236875 11.7322652,14.85175 12.3985717,14.2608125 C12.6580587,14.0306875 12.68025,13.6355625 12.4481239,13.3783125 C12.2159978,13.1210625 11.8175,13.0990625 11.55795,13.3291875 C9.53627174,15.122 6.30434783,13.6891875 6.30434783,11 C6.30434783,10.6548125 6.02210217,10.375 5.67391304,10.375 C5.32572391,10.375 5.04347826,10.6548125 5.04347826,11 C5.04347826,13.1696875 6.64522391,14.9746875 8.73782609,15.3160625 Z" id="Path" fill="#000000"></path>
                <path d="M5.67391304,24.3125 C5.32572391,24.3125 5.04347826,24.5923125 5.04347826,24.9375 C5.04347826,25.2826875 5.32572391,25.5625 5.67391304,25.5625 C7.35313913,25.5625 8.82608696,27.1104375 8.82608696,28.875 C8.82608696,29.2201875 9.10833261,29.5 9.45652174,29.5 C9.80471087,29.5 10.0869565,29.2201875 10.0869565,28.875 C10.0869565,26.401875 8.06603478,24.3125 5.67391304,24.3125 Z" id="Path" fill="#000000"></path>
                <path d="M10.7173913,19.3125 C8.5811,19.3125 6.74691304,20.4740625 5.78108696,22.163 C5.60941957,22.4633125 5.71577391,22.84475 6.01863478,23.0149375 C6.3215587,23.185125 6.70625,23.07975 6.87798043,22.7794375 C7.63040435,21.4634375 9.05808696,20.5625 10.7173913,20.5625 C11.0655804,20.5625 11.3478261,20.2826875 11.3478261,19.9375 C11.3478261,19.5923125 11.0655804,19.3125 10.7173913,19.3125 Z" id="Path" fill="#000000"></path>
                <path d="M16.5518761,13.3783125 C16.319687,13.6355625 16.3419413,14.0306875 16.6014283,14.2608125 C17.2677348,14.85175 18.0929739,15.2236875 18.9696565,15.337375 C19.2478043,16.780625 20.5296674,17.875 22.0652174,17.875 C22.4133435,17.875 22.6956522,17.5951875 22.6956522,17.25 C22.6956522,16.9048125 22.4133435,16.625 22.0652174,16.625 C21.2213174,16.625 20.5048913,16.0740625 20.2621739,15.3160625 C22.3547761,14.9746875 23.9565217,13.1696875 23.9565217,11 C23.9565217,10.6548125 23.674213,10.375 23.326087,10.375 C22.9779609,10.375 22.6956522,10.6548125 22.6956522,11 C22.6956522,12.723125 21.281587,14.125 19.5434783,14.125 C18.7670348,14.125 18.0207891,13.842375 17.44205,13.3291875 C17.1826261,13.0990625 16.7840022,13.121 16.5518761,13.3783125 Z" id="Path" fill="#000000"></path>
                <path d="M23.326087,24.3125 C20.9339652,24.3125 18.9130435,26.401875 18.9130435,28.875 C18.9130435,29.2201875 19.1953522,29.5 19.5434783,29.5 C19.8916043,29.5 20.173913,29.2201875 20.173913,28.875 C20.173913,27.1104375 21.6468609,25.5625 23.326087,25.5625 C23.674213,25.5625 23.9565217,25.2826875 23.9565217,24.9375 C23.9565217,24.5923125 23.674213,24.3125 23.326087,24.3125 Z" id="Path" fill="#000000"></path>
                <path d="M22.1218935,22.7794375 C22.293813,23.080125 22.6788196,23.185 22.9812391,23.015 C23.284163,22.8448125 23.3905174,22.463375 23.218913,22.1630625 C22.2554826,20.478125 20.4238174,19.3125 18.2826087,19.3125 C17.9344826,19.3125 17.6521739,19.5923125 17.6521739,19.9375 C17.6521739,20.2826875 17.9344826,20.5625 18.2826087,20.5625 C19.9407152,20.5625 21.3694696,21.4631875 22.1218935,22.7794375 Z" id="Path" fill="#000000"></path>
            </g>
        </g>
    </g>
</svg>