<?xml version="1.0" encoding="UTF-8"?>
<svg width="32px" height="32px" viewBox="0 0 32 32" version="1.1" xmlns="http://www.w3.org/2000/svg" xmlns:xlink="http://www.w3.org/1999/xlink">
    <title>Group 36</title>
    <g id="Page-1-V2" stroke="none" stroke-width="1" fill="none" fill-rule="evenodd">
        <g id="My-kryptomon-detail-V2" transform="translate(-977.000000, -1218.000000)">
            <g id="Group-36" transform="translate(977.000000, 1218.000000)">
                <rect id="Rectangle-Copy-9" x="9.09494702e-13" y="0" width="32" height="32" rx="5"></rect>
                <g id="color-wheel" fill-rule="nonzero">
                    <path d="M9.15625,9.15625 L5.01825,5.01825 C2.20775,7.8286875 0.4694375,11.7113125 0.4694375,16 L6.3215,16 C6.3215,13.327375 7.4048125,10.90775 9.15625,9.15625 Z" id="Path" fill="#FF4F4F"></path>
                    <path d="M25.6784375,16 C25.6784375,18.672625 24.595125,21.09225 22.8436875,22.84375 L26.98175,26.9818125 C29.79225,24.1713125 31.5305625,20.2886875 31.5305625,16 L25.6784375,16 L25.6784375,16 Z" id="Path" fill="#2AA1F2"></path>
                    <path d="M16,6.3215 L16,0.4694375 C11.711375,0.4694375 7.8286875,2.20775 5.01825,5.01825 L9.15625,9.15625 C10.90775,7.4048125 13.327375,6.3215 16,6.3215 Z" id="Path" fill="#FF5E2C"></path>
                    <path d="M25.6784375,16 L31.5305,16 C31.5305,11.711375 29.7921875,7.82875 26.9816875,5.01825 L22.8436875,9.15625 C24.5951875,10.90775 25.6784375,13.327375 25.6784375,16 Z" id="Path" fill="#00CF69"></path>
                    <path d="M22.8436875,9.15625 L26.98175,5.0181875 C24.17125,2.20775 20.288625,0.4694375 16,0.4694375 L16,6.3215 C18.672625,6.3215 21.09225,7.4048125 22.8436875,9.15625 Z" id="Path" fill="#FBC640"></path>
                    <path d="M6.3215,16 L0.4694375,16 C0.4694375,20.288625 2.20775,24.1713125 5.01825,26.98175 L9.1563125,22.8436875 C7.4048125,21.09225 6.3215,18.672625 6.3215,16 Z" id="Path" fill="#F35FAE"></path>
                    <path d="M16,25.6785 L16,31.5305625 C20.288625,31.5305625 24.1713125,29.79225 26.98175,26.98175 L22.8436875,22.8436875 C21.09225,24.5951875 18.672625,25.6785 16,25.6785 Z" id="Path" fill="#2858DD"></path>
                    <path d="M9.15625,22.8436875 L5.0181875,26.98175 C7.8286875,29.79225 11.7113125,31.5305625 15.9999375,31.5305625 L15.9999375,25.6785 C13.327375,25.6785 10.90775,24.5951875 9.15625,22.8436875 Z" id="Path" fill="#6017C9"></path>
                    <path d="M13.7525625,13.7525625 L9.15625,9.15625 C7.40475,10.9076875 6.3215,13.3273125 6.3215,16 L12.821625,16 C12.821625,15.1223125 13.177375,14.3276875 13.7525625,13.7525625 Z" id="Path" fill="#FF9C9C"></path>
                    <path d="M12.821625,16 L6.3215,16 C6.3215,18.672625 7.4048125,21.09225 9.15625,22.84375 L13.7525,18.2475 C13.177375,17.67225 12.821625,16.8776875 12.821625,16 Z" id="Path" fill="#F297CB"></path>
                    <path d="M16,12.821625 L16,6.3215 C13.327375,6.3215 10.90775,7.4048125 9.1563125,9.15625 L13.7525625,13.7525625 C14.3276875,13.177375 15.1223125,12.821625 16,12.821625 Z" id="Path" fill="#EF9A7F"></path>
                    <path d="M18.2474375,13.7525625 L22.8436875,9.15625 C21.09225,7.4048125 18.672625,6.3215 15.9999375,6.3215 L15.9999375,12.821625 C16.8776875,12.821625 17.67225,13.177375 18.2474375,13.7525625 Z" id="Path" fill="#FFCE76"></path>
                    <path d="M16,19.178375 L16,25.6785 C18.672625,25.6785 21.09225,24.5951875 22.84375,22.84375 L18.2475,18.2475 C17.67225,18.822625 16.8776875,19.178375 16,19.178375 Z" id="Path" fill="#73A6FF"></path>
                    <path d="M18.2474375,13.7525625 C18.822625,14.32775 19.178375,15.1223125 19.178375,16 L25.6785,16 C25.6785,13.327375 24.5951875,10.90775 22.84375,9.15625 L18.2474375,13.7525625 Z" id="Path" fill="#63CE96"></path>
                    <path d="M18.2474375,18.2474375 L22.8436875,22.8436875 C24.595125,21.09225 25.6784375,18.672625 25.6784375,15.9999375 L19.178375,15.9999375 C19.178375,16.8776875 18.822625,17.67225 18.2474375,18.2474375 Z" id="Path" fill="#7DCAFF"></path>
                    <path d="M13.7525625,18.2474375 L9.1563125,22.8436875 C10.90775,24.595125 13.327375,25.6784375 16,25.6784375 L16,19.178375 C15.1223125,19.178375 14.3276875,18.822625 13.7525625,18.2474375 Z" id="Path" fill="#8963C6"></path>
                    <path d="M13.7525625,13.7525625 C13.177375,14.32775 12.821625,15.1223125 12.821625,16 C12.821625,16.8776875 13.177375,17.67225 13.7525625,18.2474375 C14.32775,18.822625 15.1223125,19.178375 16,19.178375 C16.8776875,19.178375 17.67225,18.822625 18.2474375,18.2474375 C18.822625,17.67225 19.178375,16.8776875 19.178375,16 C19.178375,15.1223125 18.822625,14.32775 18.2474375,13.7525625 C17.67225,13.177375 16.8776875,12.821625 16,12.821625 C15.1223125,12.821625 14.3276875,13.177375 13.7525625,13.7525625 Z" id="Path" fill="#FFFFFF"></path>
                    <path d="M27.3136875,4.68625 C24.2916875,1.66425 20.2736875,0 16,0 C15.0521875,0 14.10225,0.0835625 13.1765,0.2484375 C12.92125,0.293875 12.751125,0.537625 12.796625,0.792875 C12.8420625,1.048125 13.085875,1.2181875 13.3410625,1.17275 C14.059875,1.04475 14.794375,0.9696875 15.5305625,0.947 L15.5305625,5.863375 C13.0858125,5.97525 10.8639375,6.9559375 9.167375,8.5035625 L5.6850625,5.0211875 C7.3045,3.4944375 9.238375,2.3490625 11.3856875,1.65875 C11.6325,1.5794375 11.76825,1.315 11.688875,1.0681875 C11.6095625,0.8213125 11.345375,0.6856875 11.0983125,0.7649375 C7.899,1.7935 5.14525,3.7718125 3.134875,6.485875 C1.084,9.2545625 0,12.5445 0,16 C0,20.2733125 1.664,24.2909375 4.6855,27.312875 C4.68575,27.313125 4.686,27.3134375 4.68625,27.3136875 C4.6865,27.3139375 4.6868125,27.3141875 4.6870625,27.3144375 C7.709,30.336 11.7265625,32 16,32 C20.2736875,32 24.2916875,30.33575 27.3136875,27.3136875 C30.3356875,24.291625 32,20.2736875 32,16 C32,11.72625 30.33575,7.7083125 27.3136875,4.68625 Z M26.976125,26.31225 L23.4965,22.8325625 C25.044125,21.1360625 26.02475,18.9141875 26.136625,16.4694375 L31.053125,16.4694375 C30.940875,20.1603125 29.5065625,23.623 26.976125,26.31225 Z M0.9468125,16.4694375 L5.863375,16.4694375 C5.888375,17.0150625 5.9563125,17.55775 6.0673125,18.0884375 C6.1204375,18.3421875 6.3694375,18.50475 6.6229375,18.45175 C6.87675,18.3986875 7.039375,18.1499375 6.98625,17.896125 C6.888375,17.4285 6.8270625,16.950375 6.802875,16.4694375 L12.3834375,16.4694375 C12.468,17.1244375 12.7265625,17.7253125 13.11175,18.2243125 L9.165,22.1710625 C8.5728125,21.515625 8.0744375,20.776625 7.6893125,19.9724375 C7.57725,19.7385 7.296875,19.639875 7.0631875,19.75175 C6.8293125,19.86375 6.7305625,20.144125 6.8425,20.377875 C7.27375,21.278375 7.834,22.104625 8.5005,22.8354375 L5.0238125,26.312125 C2.493375,23.6229375 1.059125,20.1603125 0.9468125,16.4694375 Z M13.11175,13.7756875 C12.7265625,14.2746875 12.468,14.8755625 12.383375,15.5305625 L6.8026875,15.5305625 C6.913,13.3445 7.7893125,11.3571875 9.1678125,9.8318125 L13.11175,13.7756875 Z M24.2906875,16.4694375 L25.1971875,16.4694375 C25.0868125,18.6555 24.2105,20.6428125 22.8320625,22.1681875 L18.8881875,18.2243125 C19.2734375,17.7253125 19.532,17.1244375 19.6165625,16.4694375 L22.2669375,16.4694375 C22.52625,16.4694375 22.736375,16.2593125 22.736375,16 C22.736375,15.74075 22.52625,15.5305625 22.2669375,15.5305625 L19.6165625,15.5305625 C19.532,14.8755 19.273375,14.274625 18.8881875,13.775625 L22.8320625,9.83175 C24.2105,11.357125 25.086875,13.3444375 25.1971875,15.5305 L24.29075,15.5305 C24.0314375,15.5305 23.8213125,15.7406875 23.8213125,15.9999375 C23.82125,16.2593125 24.0314375,16.4694375 24.2906875,16.4694375 Z M13.7756875,18.8881875 C14.2746875,19.273375 14.8755625,19.532 15.530625,19.6165625 L15.530625,25.19575 C13.9265,25.11475 12.3785,24.6209375 11.0275625,23.752625 C10.6015,23.47875 10.2014375,23.1710625 9.829,22.834875 L13.7756875,18.8881875 Z M16.4694375,19.6165625 C17.1244375,19.532 17.7253125,19.273375 18.2243125,18.88825 L22.1681875,22.8320625 C20.6428125,24.2105 18.6555,25.086875 16.4694375,25.197125 L16.4694375,19.6165625 L16.4694375,19.6165625 Z M22.8325625,8.5035 C21.1360625,6.955875 18.9141875,5.97525 16.4694375,5.8633125 L16.4694375,0.9468125 C20.1603125,1.0590625 23.623,2.493375 26.31225,5.0238125 L22.8325625,8.5035 Z M22.168125,9.167875 L18.22425,13.11175 C17.72525,12.7265625 17.124375,12.468 16.469375,12.3834375 L16.469375,6.8028125 C18.6555,6.913125 20.6428125,7.7894375 22.168125,9.167875 Z M16,13.2910625 C17.49375,13.2910625 18.7089375,14.5063125 18.7089375,16 C18.7089375,17.49375 17.49375,18.7089375 16,18.7089375 C14.50625,18.7089375 13.2910625,17.49375 13.2910625,16 C13.2910625,14.5063125 14.50625,13.2910625 16,13.2910625 Z M9.1640625,23.4998125 C9.58425,23.88275 10.037125,24.2320625 10.5199375,24.5424375 C12.0225,25.50825 13.746,26.0540625 15.530625,26.135875 L15.530625,31.0531875 C11.83975,30.940875 8.3770625,29.5065625 5.6878125,26.976125 L9.1640625,23.4998125 Z M16.469375,26.136625 C18.9141875,26.02475 21.1360625,25.044125 22.8325625,23.4965 L26.3121875,26.9761875 C23.6229375,29.506625 20.16025,30.9409375 16.469375,31.0531875 L16.469375,26.136625 L16.469375,26.136625 Z M26.136625,15.5305625 C26.02475,13.0858125 25.044125,10.8639375 23.4964375,9.167375 L26.9760625,5.68775 C29.5065,8.377 30.9408125,11.8396875 31.053125,15.5305625 L26.136625,15.5305625 L26.136625,15.5305625 Z M15.5305625,6.8028125 L15.5305625,12.3834375 C14.8755625,12.468 14.274625,12.726625 13.7756875,13.1118125 L9.8318125,9.1679375 C11.3571875,7.7894375 13.3445,6.913125 15.5305625,6.8028125 Z M3.88925,7.0446875 C4.243,6.567125 4.62125,6.11375 5.022,5.685875 L8.5035,9.167375 C6.955875,10.863875 5.9751875,13.0858125 5.8633125,15.5305625 L0.9466875,15.5305625 C1.040125,12.44975 2.0521875,9.5248125 3.88925,7.0446875 Z" id="Shape" fill="#000000"></path>
                </g>
            </g>
        </g>
    </g>
</svg>