<?xml version="1.0" encoding="UTF-8"?>
<svg width="32px" height="32px" viewBox="0 0 32 32" version="1.1" xmlns="http://www.w3.org/2000/svg" xmlns:xlink="http://www.w3.org/1999/xlink">
    <title>Group 24</title>
    <g id="Page-1-V2" stroke="none" stroke-width="1" fill="none" fill-rule="evenodd">
        <g id="My-kryptomon-detail-V2" transform="translate(-584.000000, -1145.000000)">
            <g id="Group-24" transform="translate(584.000000, 1145.000000)">
                <rect id="Rectangle-Copy-25" x="0" y="0" width="32" height="32" rx="5"></rect>
                <g id="egg" transform="translate(4.000000, 0.000000)" fill-rule="nonzero">
                    <path d="M24.359024,18.5584628 C24.3614402,19.3546468 24.310118,20.1498934 24.2052831,20.9392031 C23.7117769,24.7148279 22.0325413,27.4664749 19.6419933,29.1878948 C17.5543712,30.6521486 15.0530425,31.4120856 12.5022693,31.3574026 C11.3368811,31.3617773 10.175874,31.2155393 9.04803859,30.9221262 C6.18369961,30.2049981 3.7465236,28.3323407 2.31857877,25.751617 L2.31857877,25.745055 C1.15600699,23.5311758 0.580197553,21.0573183 0.645602055,18.5584628 C0.649983173,17.2666947 0.76577098,15.977739 0.991713554,14.7059694 C1.51494908,11.6721581 2.63245752,8.77114852 4.27946028,6.16917652 C6.40745167,2.88601095 9.30433639,0.639946992 12.5022693,0.639946992 C19.0524146,0.639946992 24.359024,10.0791651 24.359024,18.5584628 L24.359024,18.5584628 Z" id="Path" fill="#14AE2B"></path>
                    <path d="M12.5022693,31.9973496 C11.2814908,32.0014118 10.0654063,31.847987 8.88374515,31.5411374 C5.85041863,30.7812004 3.26960318,28.7969898 1.75841637,26.0631536 C1.74808938,26.0437803 1.73838822,26.0247194 1.7293129,26.0050335 C0.533882527,23.7080362 -0.0594515416,21.1460609 0.00470110381,18.5584628 C0.00939515839,17.2301353 0.128625324,15.9046201 0.360513777,14.5966034 C0.901899861,11.4793616 2.05070221,8.49867108 3.74182948,5.82358011 C6.17462438,2.06701631 9.28618592,0 12.5022693,0 C19.5406009,0 24.9999215,9.97604871 24.9999215,18.5584628 C25.0023411,19.3833945 24.9488283,20.2077012 24.8396123,21.025446 C24.3486096,24.7845095 22.6812657,27.7883232 20.0168954,29.7075393 C17.8200572,31.250224 15.1876067,32.0523451 12.5022693,31.9973496 Z M2.90534112,25.4885137 C4.25348625,27.8926896 6.53544407,29.6350453 9.21264502,30.3040524 C10.2869677,30.5824668 11.3925844,30.7215178 12.5022693,30.7174556 C14.9172266,30.7712012 17.2858688,30.0537606 19.2639619,28.6695003 C21.6351077,26.9602668 23.1247016,24.2586156 23.5693892,20.8545226 C23.6707818,20.0933356 23.7205392,19.3262117 23.7181257,18.5584628 C23.7181257,8.82739378 17.6892483,1.27989398 12.5022693,1.27989398 C9.73556755,1.27989398 7.00673154,3.13942748 4.81740401,6.51664774 C3.21921987,9.048313 2.13394426,11.868392 1.62291341,14.8172102 C1.4038554,16.0524204 1.29119703,17.3041916 1.28650299,18.5584628 C1.22203733,20.9485773 1.76999513,23.3155687 2.87842825,25.4347682 C2.88875533,25.4519543 2.89720472,25.4697653 2.90534112,25.4885137 L2.90534112,25.4885137 Z" id="Shape" fill="#00430F"></path>
                    <path d="M24.2052831,20.9392031 C23.7117769,24.7148279 22.0325413,27.4664749 19.6419933,29.1878948 C17.8078525,28.5851323 16.5135331,26.9437057 16.3570631,25.0219899 C16.2005932,23.1002741 17.2120149,21.2716756 18.9244221,20.3808118 C20.6371423,19.4899481 22.7175668,19.7096174 24.2052831,20.9392031 Z" id="Path" fill="#FBAE04"></path>
                    <path d="M19.6419933,29.8278487 C19.5743983,29.8281543 19.5071163,29.8175302 19.4426506,29.7965944 C16.9128444,28.9516644 15.3678601,26.4015631 15.7925195,23.771781 C16.217179,21.1419988 18.4869322,19.2062216 21.154432,19.1983678 C22.419648,19.1934102 23.6454336,19.6352486 24.6152344,20.4464314 C24.7845349,20.5867323 24.8699675,20.8042143 24.8408641,21.0223212 C24.3495484,24.7851345 22.6818916,27.7889482 20.0175212,29.7081642 C19.9079923,29.7865952 19.7765575,29.8284668 19.6419933,29.8278487 L19.6419933,29.8278487 Z M21.154432,20.4782636 C19.1760258,20.4836158 17.4742586,21.8775629 17.0824579,23.813965 C16.6903441,25.7500546 17.7164741,27.6945811 19.5374714,28.4667045 C21.7571542,26.6590418 23.1847861,24.0592571 23.5180671,21.2188674 C22.8261569,20.7332826 22.0003085,20.4745541 21.154432,20.4782636 L21.154432,20.4782636 Z" id="Shape" fill="#00430F"></path>
                    <path d="M6.09326701,9.91917838 C6.09326701,12.5698963 3.94117226,14.7187808 1.28650299,14.7187808 C1.18823982,14.7209682 1.08966381,14.7165935 0.991713554,14.7059694 C1.51494908,11.6721581 2.63245752,8.77114852 4.27946028,6.16917652 C5.42732387,7.07566391 6.09576352,8.45773696 6.09326701,9.91917838 Z" id="Path" fill="#FBAE04"></path>
                    <path d="M1.28650299,15.3587278 C1.16038819,15.3606027 1.03427338,15.3546657 0.909097418,15.3409168 C0.735728749,15.3184187 0.578945874,15.2259263 0.475362744,15.0853129 C0.371779614,14.9446996 0.330471546,14.7678392 0.360513777,14.5959785 C0.901899861,11.4790492 2.05070221,8.49867108 3.74182948,5.82358011 C3.84009265,5.67203018 3.99750137,5.56922621 4.17556423,5.53985361 C4.35362702,5.51048108 4.53607101,5.55735216 4.67751985,5.66921793 C6.48850305,7.10878621 7.18980144,9.53389782 6.42622806,11.7159046 C5.66265468,13.8975988 3.60100656,15.3587278 1.28650299,15.3587278 Z M4.41152089,7.16753126 C3.16789773,9.30454177 2.27664486,11.6274744 1.77187273,14.0475864 C3.86794428,13.7991695 5.44797787,12.0268163 5.45239221,9.91917838 C5.45642726,8.90519989 5.08590641,7.92559351 4.41152089,7.16753126 Z" id="Shape" fill="#00430F"></path>
                    <path d="M19.5521796,9.27923139 C19.5521796,10.8697246 18.2609895,12.1589929 16.6681254,12.1589929 C15.0752612,12.1589929 13.7840712,10.8697246 13.7840712,9.27923139 C13.7840712,7.68873817 15.0752612,6.39946992 16.6681254,6.39946992 C18.2609895,6.39946992 19.5521796,7.68873817 19.5521796,9.27923139 Z" id="Path" fill="#FBAE04"></path>
                    <path d="M16.6681254,12.7989398 C14.7213263,12.7989398 13.1431703,11.2231329 13.1431703,9.27923139 C13.1431703,7.33532993 14.7213263,5.75952293 16.6681254,5.75952293 C18.6149246,5.75952293 20.1930806,7.33532993 20.1930806,9.27923139 C20.19089,11.2221954 18.6139857,12.7967525 16.6681254,12.7989398 Z M16.6681254,7.03941692 C15.4291963,7.03941692 14.4249722,8.04214634 14.4249722,9.27923139 C14.4249722,10.5163164 15.4291963,11.5190459 16.6681254,11.5190459 C17.9070545,11.5190459 18.9112787,10.5163164 18.9112787,9.27923139 C18.9112787,8.04214634 17.9070545,7.03941692 16.6681254,7.03941692 Z" id="Shape" fill="#00430F"></path>
                    <path d="M12.5022693,15.0387543 C12.5022693,16.2758394 11.4980451,17.2785688 10.2591161,17.2785688 C9.02018695,17.2785688 8.0159628,16.2758394 8.0159628,15.0387543 C8.0159628,13.8016693 9.02018695,12.7989398 10.2591161,12.7989398 C11.4980451,12.7989398 12.5022693,13.8016693 12.5022693,15.0387543 Z" id="Path" fill="#FBAE04"></path>
                    <path d="M10.2591161,17.9185158 C8.6662519,17.9185158 7.37506187,16.6292475 7.37506187,15.0387543 C7.37506187,13.4482611 8.6662519,12.1589929 10.2591161,12.1589929 C11.8519802,12.1589929 13.1431703,13.4482611 13.1431703,15.0387543 C13.1416056,16.6286226 11.8513543,17.9166409 10.2591161,17.9185158 Z M10.2591161,13.4388868 C9.37443493,13.4388868 8.65686374,14.1550775 8.65686374,15.0387543 C8.65686374,15.9224311 9.37443493,16.6386218 10.2591161,16.6386218 C11.1441101,16.6386218 11.8613684,15.9224311 11.8613684,15.0387543 C11.8613684,14.1550775 11.1441101,13.4388868 10.2591161,13.4388868 Z" id="Shape" fill="#00430F"></path>
                    <path d="M11.8613685,26.5578002 C11.8616813,28.4376445 10.7613846,30.1440656 9.04803859,30.9221262 C6.18369961,30.2049981 3.7465236,28.3323407 2.31857877,25.751617 L2.31857877,25.745055 C2.74386413,23.2915083 4.97825508,21.5700884 7.46331088,21.7819458 C9.94805377,21.9934907 11.858239,24.067694 11.8613685,26.5578002 Z" id="Path" fill="#FBAE04"></path>
                    <path d="M9.04803859,31.5620834 C8.99233532,31.5623856 8.9369449,31.5555112 8.88311931,31.5411374 C5.85010563,30.7808879 3.26929026,28.7969898 1.75841637,26.0631536 C1.70521655,25.9678491 1.67736492,25.8606704 1.67767523,25.751617 C1.67767523,25.7134951 1.68080728,25.6756857 1.68644015,25.6381888 C2.12299135,23.0849629 4.30230488,21.1932445 6.89501201,21.1166884 C9.48803214,21.0398197 11.7753099,22.7993615 12.3626981,25.3222776 C12.9500863,27.8451935 11.6742303,30.4315418 9.31309871,31.504578 C9.22985665,31.5426998 9.13941704,31.5623856 9.04803859,31.5620834 L9.04803859,31.5620834 Z M2.99202546,25.6388138 C4.3088766,27.8976892 6.46065141,29.5503648 8.98513768,30.2412451 C10.6937896,29.3497564 11.566579,27.4039801 11.0949785,25.5375722 C10.6236911,23.6711642 8.93131202,22.3712719 7.00360218,22.3953325 C5.07589233,22.419393 3.41637197,23.7611568 2.99202546,25.6388138 L2.99202546,25.6388138 Z" id="Shape" fill="#00430F"></path>
                </g>
            </g>
        </g>
    </g>
</svg>