<?xml version="1.0" encoding="UTF-8"?>
<svg width="32px" height="32px" viewBox="0 0 32 32" version="1.1" xmlns="http://www.w3.org/2000/svg" xmlns:xlink="http://www.w3.org/1999/xlink">
    <title>arrogant</title>
    <g id="Page-1-V4" stroke="none" stroke-width="1" fill="none" fill-rule="evenodd">
        <g id="Kryptomon-detail-PDP" transform="translate(-583.000000, -1514.000000)" fill-rule="nonzero">
            <g id="arrogant" transform="translate(583.000000, 1514.000000)">
                <path d="M31.2380952,16 C31.2380952,24.4157676 24.4157676,31.2380952 16,31.2380952 C7.58423238,31.2380952 0.761904762,24.4157676 0.761904762,16 C0.761904762,7.58423238 7.58423238,0.761904762 16,0.761904762 C24.4157676,0.761904762 31.2380952,7.58423238 31.2380952,16 L31.2380952,16 Z" id="path59358" fill="#FFD764"></path>
                <path d="M21.0803566,1.63393524 C26.1147265,4.29785693 29.2690871,9.52154944 29.2827383,15.2172648 C29.2830475,19.3045349 27.6595226,23.2244897 24.7693861,26.114626 C21.8792495,29.0047623 17.9592945,30.6282868 13.8720244,30.6279771 C12.9031609,30.6266768 11.9365793,30.5340049 10.9851185,30.3511924 C12.5951587,30.9260474 14.2904567,31.225868 16,31.2380952 C24.4157676,31.2380952 31.2380952,24.4157676 31.2380952,16 C31.2380952,9.54281324 27.1681021,3.78675097 21.0803566,1.63393524 Z" id="path59355" fill="#FFB751"></path>
                <g id="Group">
                    <path d="M12.8690469,20.6101181 C12.5353478,20.8665143 12.4727162,21.344899 12.7291611,21.6785676 C12.9846811,22.0132114 13.4631893,22.0771505 13.7976122,21.8213486 C14.3311909,21.4129981 15.2898956,21.2086095 16.2053516,21.24992 C17.1208061,21.2912152 17.9959695,21.6373486 18.1577326,21.782659 C18.471075,22.0623238 18.9516389,22.0356724 19.2321371,21.7230781 C19.5125745,21.4105448 19.4872838,20.9300419 19.1755886,20.6486705 C18.4667048,20.0118705 17.4297051,19.7782248 16.2738072,19.726141 C15.1179078,19.6740267 13.8460526,19.8623695 12.8690469,20.6101181 Z" id="path59352" fill="#FFB751"></path>
                    <path d="M16,0 C7.17247695,0 0,7.17248 0,16 C0,24.82752 7.17247695,32 16,32 C24.827523,32 32,24.82752 32,16 C32,7.17248 24.827523,0 16,0 Z M16,1.52380952 C24.0039954,1.52380952 30.4761905,7.99600762 30.4761905,16 C30.4761905,24.0039924 24.0039954,30.4761905 16,30.4761905 C7.99600457,30.4761905 1.52380952,24.0039924 1.52380952,16 C1.52380952,7.99600762 7.99600457,1.52380952 16,1.52380952 Z M7.61904762,9.9047619 C7.19825981,9.9047619 6.85714286,10.2458819 6.85714286,10.6666667 C6.85714286,12.1304076 8.06007924,13.3333333 9.52380952,13.3333333 C10.9875398,13.3333333 12.1904762,12.1304076 12.1904762,10.6666667 C12.1904762,10.2458819 11.8493592,9.9047619 11.4285714,9.9047619 C11.0077836,9.9047619 10.6666667,10.2458819 10.6666667,10.6666667 C10.6666667,11.30688 10.1640198,11.8095238 9.52380952,11.8095238 C8.88359924,11.8095238 8.38095238,11.30688 8.38095238,10.6666667 C8.38095238,10.2458819 8.03983543,9.9047619 7.61904762,9.9047619 Z M20.5714286,9.9047619 C20.1506408,9.9047619 19.8095238,10.2458819 19.8095238,10.6666667 C19.8095238,12.1304076 21.0124602,13.3333333 22.4761905,13.3333333 C23.9399208,13.3333333 25.1428571,12.1304076 25.1428571,10.6666667 C25.1428571,10.2458819 24.8017402,9.9047619 24.3809524,9.9047619 C23.9601646,9.9047619 23.6190476,10.2458819 23.6190476,10.6666667 C23.6190476,11.30688 23.1164008,11.8095238 22.4761905,11.8095238 C21.8359802,11.8095238 21.3333333,11.30688 21.3333333,10.6666667 C21.3333333,10.2458819 20.9922164,9.9047619 20.5714286,9.9047619 Z M6.75000076,19.8065524 C6.41723276,20.0618514 6.35337905,20.5380876 6.60714362,20.8720305 C6.86266362,21.2066743 7.34117181,21.2706133 7.67559467,21.0148114 C9.97655619,19.2538362 13.361283,18.40672 16.5625006,18.4493257 C19.7637181,18.4919924 22.7485349,19.4508343 24.2470232,20.9493333 C24.5448899,21.2487924 25.0295147,21.2487924 25.3273813,20.9493333 C25.6248457,20.6518095 25.6248457,20.1694781 25.3273813,19.8719543 C23.3720046,17.9165714 20.0584488,16.9718248 16.5803566,16.9255467 C13.1022659,16.8792229 9.4267139,17.7580038 6.75000076,19.8065524 L6.75000076,19.8065524 Z" id="path58746" fill="#401510"></path>
                </g>
            </g>
        </g>
    </g>
</svg>