<?xml version="1.0" encoding="UTF-8"?>
<svg width="32px" height="32px" viewBox="0 0 32 32" version="1.1" xmlns="http://www.w3.org/2000/svg" xmlns:xlink="http://www.w3.org/1999/xlink">
    <title>Group 38</title>
    <g id="Page-1-V2" stroke="none" stroke-width="1" fill="none" fill-rule="evenodd">
        <g id="My-kryptomon-detail-V2" transform="translate(-977.000000, -1482.000000)">
            <g id="Group-38" transform="translate(977.000000, 1482.000000)">
                <rect id="Rectangle-Copy-8" x="0" y="0" width="32" height="32" rx="5"></rect>
                <g id="storm" transform="translate(7.000000, 0.000000)" fill-rule="nonzero">
                    <path d="M16.8719882,6.54269731 L13.6451461,6.54269731 L17.0641471,1.53056479 C17.3696699,1.08231412 17.0533213,0.468625702 16.5168265,0.468625702 L5.03410309,0.468625702 C4.76234959,0.468625702 4.51790676,0.636313454 4.41635288,0.892563838 L0.509942435,10.7555786 C0.42739531,10.9640789 0.452122541,11.2005793 0.575943229,11.3869546 C0.699763916,11.5731423 0.906500792,11.68483 1.12769264,11.68483 L4.80491487,11.68483 L1.06009257,19.6164669 C0.848373346,20.0650301 1.17056548,20.5855934 1.66049681,20.5855934 L5.43951896,20.5855934 L2.4435258,30.6589835 C2.3517521,30.9675464 2.48695223,31.2989844 2.76657908,31.4511721 C3.04694405,31.6037349 3.39281774,31.5336098 3.59451075,31.2854844 L16.2016465,15.7692736 C16.5589612,15.329898 16.251224,14.6620845 15.6882182,14.6620845 L11.9674465,14.6620845 L17.3957504,7.63732395 C17.7375028,7.19519829 17.4274283,6.54269731 16.8719882,6.54269731 Z" id="Path" fill="#F2D422"></path>
                    <path d="M7.04279081,0.468625702 L5.0341646,0.468625702 C4.7624111,0.468625702 4.51796827,0.636313454 4.41641439,0.892563838 L0.510003945,10.7555786 C0.42745682,10.9640789 0.452184052,11.2005793 0.576004739,11.3869546 C0.699825427,11.5731423 0.906562303,11.68483 1.12775415,11.68483 L4.80497638,11.68483 L1.06015408,19.6164669 C0.848434856,20.0650301 1.17062699,20.5855934 1.66055832,20.5855934 L5.43958047,20.5855934 L2.44358731,30.6589835 C2.35372043,30.9611089 2.48190837,31.2847969 2.74978671,31.4409846 C2.81185083,31.375047 2.42039784,32.1016731 9.64536265,18.366465 C9.71671485,18.2309023 9.71271667,18.0672146 9.63496737,17.9354644 C9.55715655,17.8036517 9.41703558,17.7229641 9.26571968,17.7229641 L5.84081363,17.7229641 L10.3609146,9.59476438 C10.436265,9.45926418 10.4350963,9.29345143 10.3579621,9.15913873 C10.2807664,9.02476353 10.1392307,8.9422009 9.98613096,8.9422009 L6.43254488,8.9422009 L10.1056459,1.09406414 C10.1690633,0.958563937 10.1597137,0.799438698 10.0807957,0.672626008 C10.0018777,0.545750818 9.86452465,0.468625702 9.71683788,0.468625702 L7.04272929,0.468625702 L7.04272929,0.468625702 L7.04279081,0.468625702 Z" id="Path" fill="#F7AC16"></path>
                    <path d="M16.8722958,6.07407161 L14.5263459,6.07407161 L17.4436671,1.79750269 C17.960786,1.03868906 17.425706,0 16.517134,0 L5.03447215,0 C4.57209753,0 4.16169931,0.281625422 3.98885473,0.717626076 L0.0823827729,10.5807659 C-0.215266659,11.332767 0.330454722,12.1533932 1.12800019,12.1533932 L4.07238602,12.1533932 L0.644527464,19.4137166 C0.285490528,20.1741552 0.831211909,21.0541566 1.66074285,21.0541566 L4.81857021,21.0541566 L2.00237231,30.5232958 C1.84761183,31.043609 2.07759969,31.6075474 2.54913937,31.8641728 C3.01692692,32.1187356 3.60398337,32.010048 3.95053367,31.5837348 L9.07565216,25.2759754 C9.2377939,25.0764751 9.20999115,24.7810371 9.01358804,24.6162244 C8.81724644,24.4514742 8.52648619,24.4796617 8.36422142,24.679287 L3.23916445,30.9869215 C3.09855139,31.1597967 2.82070834,31.011734 2.88529439,30.7944837 L5.88128755,20.7210936 C5.97066235,20.4205306 5.74903992,20.1168427 5.43982651,20.1168427 C1.33633634,20.1168427 1.57056842,20.1539677 1.48752922,20.019655 C1.44988477,19.9588424 1.44564055,19.8838423 1.47627279,19.8190297 L5.2211566,11.8873303 C5.36779769,11.5766424 5.14457599,11.2159543 4.80534544,11.2159543 L1.12812322,11.2159543 C0.983081396,11.2159543 0.884357003,11.0666416 0.938301734,10.9303914 C5.11043765,0.396438094 4.83407086,0.937313905 5.03447215,0.937313905 L16.517134,0.937313905 C16.6832739,0.937313905 16.7787998,1.12662669 16.6853653,1.26368939 L13.2663643,6.27582191 C13.0551986,6.58550987 13.2732534,7.01144801 13.6454536,7.01144801 L16.8722958,7.01144801 C16.9512753,7.01144801 17.0217664,7.05638558 17.0563353,7.12851069 C17.1363605,7.29576094 17.4551695,6.8018852 11.6049035,14.372709 C11.3675958,14.679772 11.5838053,15.1307727 11.9676925,15.1307727 L15.6884642,15.1307727 C15.7673822,15.1307727 15.8400261,15.1775853 15.8734879,15.2497104 C15.9526519,15.4203981 16.3639728,14.8337722 9.36462861,23.4480976 C9.20248686,23.6475979 9.23028962,23.9430359 9.42669273,24.1078486 C9.62315735,24.2726614 9.91385609,24.2445363 10.0760593,24.044786 L16.5574849,16.0678366 C16.8340362,15.7277736 16.8932094,15.2499604 16.7080012,14.8502098 C16.5228545,14.4512092 16.1226055,14.1934588 15.6885257,14.1934588 L12.9163694,14.1934588 L17.7587855,7.92688688 C18.3365538,7.17951076 17.8114385,6.07407161 16.8722958,6.07407161 Z" id="Path" fill="#000000"></path>
                </g>
            </g>
        </g>
    </g>
</svg>