<?xml version="1.0" encoding="UTF-8"?>
<svg width="32px" height="32px" viewBox="0 0 32 32" version="1.1" xmlns="http://www.w3.org/2000/svg" xmlns:xlink="http://www.w3.org/1999/xlink">
    <title>Group 34</title>
    <g id="Page-1-V2" stroke="none" stroke-width="1" fill="none" fill-rule="evenodd">
        <g id="My-kryptomon-detail-V2" transform="translate(-977.000000, -1145.000000)">
            <g id="Group-34" transform="translate(977.000000, 1145.000000)">
                <rect id="Rectangle-Copy-7" x="0" y="0" width="32" height="32" rx="5"></rect>
                <g id="equality" transform="translate(1.000000, 0.000000)" fill-rule="nonzero">
                    <path d="M17.5294542,13.6758192 C17.5294542,9.04069592 13.7118194,5.2837598 9.0037143,5.2837598 C4.29370393,5.2837598 0.476704213,9.04069592 0.476704213,13.6758192 C0.476704213,17.7636302 3.44699189,21.167129 7.37964287,21.9140037 L7.37964287,24.3829403 L6.07343776,24.3829403 C5.17782321,24.3829403 4.45063653,25.09794 4.45063653,25.9792522 C4.45063653,26.8625019 5.17782321,27.5774391 6.07343776,27.5774391 L7.37964287,27.5774391 L7.37964287,29.9338133 C7.37964287,30.8151879 8.10682955,31.5307502 9.0037143,31.5307502 C9.45056892,31.5307502 9.8573489,31.3525002 10.1516531,31.0634378 C10.4453222,30.7744379 10.6258169,30.3747506 10.6258169,29.9337508 L10.6258169,27.5775016 L11.932022,27.5775016 C12.8295419,27.5775016 13.5560935,26.8625019 13.5560935,25.9793147 C13.5560935,25.09794 12.8295419,24.3830028 11.932022,24.3830028 L10.6258169,24.3830028 L10.6258169,21.9140662 C14.559103,21.167129 17.5294542,17.7636927 17.5294542,13.6758192 Z M9.0037143,19.1154422 C5.95016533,19.1154422 3.47626989,16.6790056 3.47626989,13.6758817 C3.47626989,10.6708828 5.95016533,8.23507122 9.0037143,8.23507122 C12.055358,8.23507122 14.5311587,10.6708828 14.5311587,13.6758817 C14.5311587,16.6790056 12.055358,19.1154422 9.0037143,19.1154422 Z" id="Shape" fill="#FE93BB"></path>
                    <path d="M9.58565417,27.5776891 L10.6265155,27.5776891 L10.6265155,29.9332508 C10.6265155,30.3746256 10.4449411,30.7737504 10.1510815,31.0629378 C9.85722188,31.3521252 9.451077,31.5308127 9.00314271,31.5308127 C8.98828143,31.5308127 8.97342014,31.5308127 8.95855886,31.5296877 C9.14292768,31.3663752 9.33815666,31.2063753 9.42687979,30.9705004 C9.50144024,30.7722505 9.47070152,30.5466255 9.47070152,30.3399381 L9.47070152,27.8762515 C9.47070152,27.7113766 9.41805193,27.5776891 9.58565417,27.5776891 L9.58565417,27.5776891 Z" id="Path" fill="#FE76A8"></path>
                    <path d="M13.5550773,26.0253147 C13.530626,26.8953769 12.7829257,27.5776891 11.8984889,27.5776891 L11.3225824,27.5776891 C11.9520911,27.5776891 12.4374326,26.9889393 12.3704299,26.3845646 C12.3284499,26.0060022 12.1861246,25.7271898 11.8335819,25.5553149 C11.511778,25.3983774 11.1609501,25.3423149 10.8042793,25.3423149 C10.8018024,25.3423149 9.77542132,25.3423149 9.77542132,25.3423149 C9.60788258,25.3423149 9.47203522,25.2086275 9.47203522,25.0437526 L9.47203522,22.6568159 C9.47203522,22.3997535 9.65075167,22.1770036 9.90428261,22.1151911 C10.1402849,22.0576286 10.3988966,21.9902537 10.626579,21.9136912 L10.626579,24.3826278 L11.9324666,24.3826278 C12.8440221,24.3825653 13.5804177,25.1225025 13.5550773,26.0253147 L13.5550773,26.0253147 Z" id="Path" fill="#FE76A8"></path>
                    <path d="M17.5299623,13.6750692 C17.5299623,17.3516304 15.1273883,20.4747542 11.7832187,21.6087538 C13.7474483,20.3271918 15.8590206,18.4540675 16.0969282,14.6493189 C16.3862151,10.0235081 13.8366795,7.1861341 9.17017336,6.34563441 C8.34168862,6.19638447 6.31413973,6.05325952 5.23079035,6.14700948 C6.36825004,5.59463469 7.64879721,5.2837598 9.0030792,5.2837598 C13.712518,5.2837598 17.5299623,9.04050842 17.5299623,13.6750692 L17.5299623,13.6750692 Z" id="Path" fill="#FE76A8"></path>
                    <path d="M28.8619441,15.9581309 L28.8574985,15.9581309 C27.9396555,15.9581309 27.1959563,16.6900056 27.1959563,17.5926303 L23.6732608,14.1259441 C23.5232507,13.9776941 23.4984819,13.7487567 23.6103226,13.5711318 C25.728881,10.1945705 25.254082,5.68950965 22.1845921,2.82082321 C18.7827557,-0.359300628 13.3798539,-0.306800647 10.0383517,2.93469816 C6.58176983,6.28875943 6.56652749,11.7658824 9.99383136,15.1380687 C12.9145814,18.0130051 17.3887801,18.4258175 20.7570199,16.3791307 C20.9375146,16.2690683 21.1708494,16.2934433 21.320796,16.4410682 L24.8434915,19.9077544 C24.38457,19.9077544 23.9694702,20.0910044 23.6688151,20.3862543 C23.368795,20.6827542 23.1825844,21.0911915 23.1825844,21.5428788 L23.1825844,21.5472538 C23.1825844,22.4498785 23.9262836,23.1823782 24.8434915,23.1823782 L29.5115854,23.1823782 C30.0702807,23.1823782 30.5234863,22.7363784 30.5234863,22.1865661 L30.5234863,17.5926928 C30.5234863,16.6900056 29.7797871,15.9581309 28.8619441,15.9581309 L28.8619441,15.9581309 Z M20.2949229,13.1163819 C18.0174631,15.3576311 14.3257047,15.3576311 12.0482449,13.1163819 C9.7707851,10.8751328 9.7707851,7.24207158 12.0482449,5.00082241 C14.3257047,2.75957323 18.0174631,2.75957323 20.2949229,5.00082241 C22.5723827,7.24207158 22.5723827,10.8751328 20.2949229,13.1163819 Z" id="Shape" fill="#6BD9E7"></path>
                    <path d="M22.1786857,2.8318857 C18.7796437,-0.345613133 13.3813146,-0.293113152 10.0426069,2.94563566 C9.02009981,3.9381353 8.29862901,5.11625986 7.87946463,6.3706344 C8.30625018,5.47125973 8.84817891,4.87338495 9.60902576,4.13457272 C12.9477335,0.895823911 18.3460626,0.843323931 21.7451046,4.02082276 C24.2880352,6.39707189 25.1007695,9.6543832 24.0801677,12.7037571 C25.6221846,9.45750827 24.9889923,5.45813474 22.1786857,2.8318857 Z" id="Path" fill="#2ED1E2"></path>
                    <path d="M23.1696284,14.5149439 C23.0603916,14.6794439 23.0842713,14.8959438 23.2247549,15.0356937 C23.225517,15.0365062 23.2263426,15.0372562 23.2271047,15.0380687 C23.4611382,15.2711311 23.6951716,15.5041936 23.9292051,15.737256 C24.3972719,16.2034433 24.8656564,16.6692556 25.3335327,17.135693 C25.6752152,17.4763178 26.0168977,17.8163177 26.3579451,18.1563176 C26.9187362,18.7144424 27.5663452,18.9019423 28.0623563,18.2219426 C28.1975051,18.0366926 28.2816555,17.8106927 28.4450661,17.6456303 C28.8475909,17.2390679 29.5276534,17.6565053 29.5327977,18.1706926 L29.5327977,23.1756907 C30.0758061,23.1588157 30.5108479,22.7200659 30.5108479,22.1813161 L30.5108479,17.5919428 C30.5108479,16.6896306 29.7675932,15.9581934 28.8507029,15.9581934 L28.8462572,15.9581934 C27.9291764,15.9581934 27.1861123,16.6894431 27.1861123,17.5913178 L23.6664017,14.1275691 C23.6113387,14.0731941 23.5732329,14.0079441 23.5524652,13.9383191 L23.1696284,14.5149439 Z" id="Path" fill="#2ED1E2"></path>
                    <g id="Group" fill="#000000">
                        <path d="M28.8620712,15.4886936 L28.8574349,15.4886936 C28.0137714,15.4886936 27.2827106,15.9721309 26.9351217,16.6722556 L24.0228184,13.8061942 C25.110804,12.0668198 25.5700431,9.98707058 25.3161311,7.94857132 C25.0572018,5.87007209 24.0616864,3.9281353 22.5129376,2.48044833 C20.7776605,0.858386425 18.4956916,-0.024363251 16.0842262,0.00051173987 C13.6744121,0.0234492315 11.4085746,0.946886393 9.70390933,2.60076079 C9.00739786,3.27657304 8.43434935,4.04213526 7.99479835,4.87094745 C3.50338855,5.36613477 0,9.12544589 0,13.6758192 C0,15.6951935 0.708768853,17.6706928 1.995667,19.2383797 C2.16104639,19.4398796 2.46112998,19.4713796 2.66607596,19.3085047 C2.87089491,19.1456922 2.90284032,18.8503173 2.7373339,18.6487549 C1.58698173,17.2474429 0.953471935,15.4813811 0.953471935,13.6758192 C0.953471935,9.80057064 3.79534289,6.56713433 7.53555932,5.88594708 C7.26729412,6.59432182 7.0894033,7.33738405 7.00855538,8.10163377 C4.67565159,8.91300847 2.99956568,11.1052577 2.99956568,13.6758192 C2.99956568,16.933943 5.69307785,19.5845671 9.0037143,19.5845671 C10.7346091,19.5845671 12.2961234,18.8594423 13.3928099,17.7024427 C13.9646517,17.8810052 14.5549749,18.0053176 15.1553326,18.0704426 C15.3266184,18.0890051 15.4981582,18.1023801 15.6697616,18.1114426 C14.5060088,19.8043795 12.6893758,21.044379 10.535506,21.4533789 C10.3111896,21.4959414 10.1491127,21.6891913 10.1491127,21.9140037 L10.1491127,24.3830028 C10.1491127,24.6421277 10.3625055,24.8521276 10.6258169,24.8521276 L11.932022,24.8521276 C12.5646427,24.8521276 13.0793257,25.3578149 13.0793257,25.9793147 C13.0793257,26.601877 12.5646427,27.1083768 11.932022,27.1083768 L10.6258169,27.1083768 C10.3625055,27.1083768 10.1491127,27.3183767 10.1491127,27.5775016 L10.1491127,29.9338758 C10.1491127,30.2361881 10.030286,30.519563 9.81492438,30.731563 C9.59810208,30.9444379 9.31002184,31.0617503 9.0037143,31.0617503 C8.37103013,31.0617503 7.85641059,30.555813 7.85641059,29.9339383 L7.85641059,27.5775016 C7.85641059,27.3183767 7.64301782,27.1083768 7.37970638,27.1083768 L6.07350127,27.1083768 C5.44151571,27.1083768 4.92746776,26.601877 4.92746776,25.9793147 C4.92746776,25.3578149 5.44157922,24.8521276 6.07350127,24.8521276 L7.37970638,24.8521276 C7.64301782,24.8521276 7.85641059,24.6421277 7.85641059,24.3830028 L7.85641059,21.9140037 C7.85641059,21.6891913 7.6943337,21.4959414 7.47001725,21.4533789 C6.30772524,21.2326915 5.23142545,20.7718791 4.27077691,20.0838794 C4.05801923,19.9314419 3.75977743,19.9775044 3.60487714,20.1871293 C3.44991334,20.3965668 3.49684705,20.6900041 3.70979525,20.8424416 C4.67717582,21.5353163 5.74979206,22.0222537 6.90306568,22.2927536 L6.90306568,23.913878 L6.07356478,23.913878 C4.91590899,23.913878 3.97405934,24.8404401 3.97405934,25.9793147 C3.97405934,27.1192518 4.91590899,28.046689 6.07356478,28.046689 L6.90306568,28.046689 L6.90306568,29.9338758 C6.90306568,31.0731253 7.84548691,32 9.00384132,32 C9.56444191,32 10.0917634,31.7853751 10.4889534,31.3953752 C10.8847462,31.0058129 11.1027117,30.4867506 11.1027117,29.9338758 L11.1027117,28.046689 L11.9322126,28.046689 C13.090567,28.046689 14.0329882,27.1192518 14.0329882,25.9793147 C14.0329882,24.8404401 13.090567,23.913878 11.9322126,23.913878 L11.1025846,23.913878 L11.1025846,22.2926286 C13.5597135,21.7151288 15.5894852,20.1607543 16.7981394,18.1027551 C18.280457,18.0021926 19.7292415,17.5522553 20.9960071,16.7848806 L23.9083739,19.6510045 C23.1968741,19.9932544 22.7056261,20.7136916 22.7056261,21.5472538 C22.7056261,22.7073159 23.6647504,23.6511906 24.8436185,23.6511906 L29.5116489,23.6511906 C30.332322,23.6511906 31,22.9941283 31,22.1865036 L31,17.5926303 C31,16.4325682 30.0409392,15.4886936 28.8620712,15.4886936 Z M9.00365079,18.6463174 C6.21868457,18.6463174 3.95291059,16.4165682 3.95291059,13.6758192 C3.95291059,11.65082 5.19014411,9.90663311 6.95882724,9.13244589 C6.97794368,11.5268825 7.93306687,13.7739442 9.65646755,15.4700686 C10.4548487,16.2556933 11.3930147,16.8862555 12.4137435,17.3354429 C11.5145089,18.1479426 10.3177946,18.6463174 9.00365079,18.6463174 Z M30.0465916,22.1865036 C30.0465916,22.4767535 29.8065882,22.7128784 29.5117124,22.7128784 L24.843682,22.7128784 C24.1905477,22.7128784 23.6591616,22.1900036 23.6591616,21.5426288 C23.6591616,20.8998791 24.1905477,20.3770043 24.843682,20.3770043 C25.0364976,20.3770043 25.2103238,20.2626918 25.2841222,20.0873794 C25.3579205,19.9120669 25.3171472,19.710317 25.1808553,19.5760671 L21.6579057,16.1091308 C21.4781096,15.9321934 21.2409642,15.8406934 21.0007703,15.8406934 C20.8312628,15.8406934 20.660104,15.8862559 20.5065374,15.9796309 C18.9513741,16.924818 17.0882519,17.3366304 15.2599331,17.137818 C13.377504,16.9335055 11.6730293,16.1273808 10.3308776,14.8065063 C8.7628218,13.2634444 7.90366185,11.2118201 7.91142075,9.02950843 C7.91934876,6.84744673 8.79368754,4.80163498 10.3733656,3.26894804 C13.4983631,0.236949153 18.6752972,0.187199171 21.8564372,3.16069808 C23.2451415,4.4588226 24.1378346,6.19975947 24.3698357,8.06269628 C24.5980898,9.89475811 24.1843237,11.7633824 23.2046858,13.3243819 C22.9755426,13.6896942 23.0296529,14.1556315 23.336278,14.4574439 L26.859164,17.9243177 C26.9955195,18.0584426 27.2004655,18.0985676 27.3787373,18.0259426 C27.5568822,17.9533802 27.6730415,17.7822552 27.6730415,17.5925053 C27.6730415,16.9497555 28.2043641,16.4268807 28.8574985,16.4268807 L28.8621347,16.4268807 C29.515269,16.4268807 30.0465916,16.9497555 30.0465916,17.5925053 L30.0465916,22.1865036 Z" id="Shape"></path>
                        <path d="M21.8423381,7.63757144 C21.5827102,7.68063392 21.4076773,7.92263383 21.4514355,8.17813374 C21.7392617,9.85907062 21.1809475,11.5811325 19.9578766,12.7846945 C19.3854632,13.3480693 18.7142922,13.7559442 17.9989183,14.0103816 C18.0032369,13.8992566 18.0061584,13.7878817 18.0061584,13.6758817 C18.0061584,9.9320706 15.6348947,6.72350927 12.2932655,5.42775975 C12.3240042,5.39600976 12.3536633,5.36363477 12.3852911,5.33250978 C14.4730473,3.27794804 17.8701205,3.27794804 19.9578766,5.33250978 C20.269646,5.63932217 20.5416583,5.98163455 20.7662923,6.34994691 C20.9018221,6.57213433 21.1946021,6.6440093 21.4204428,6.51069685 C21.6461564,6.3773219 21.7193197,6.08913451 21.5837899,5.86694709 C21.3190812,5.43300975 20.998865,5.02994739 20.6320962,4.66894753 C18.1724904,2.24857342 14.1706138,2.24857342 11.7110081,4.66894753 C9.25152936,7.08938414 9.25152936,11.0276952 11.7110081,13.4481943 C12.940811,14.6583814 14.556118,15.2635061 16.1715521,15.2635061 C17.7869862,15.2635061 19.4022933,14.6583814 20.6320962,13.4481943 C22.072815,12.0303198 22.730522,10.0019456 22.3915704,8.0222588 C22.3478757,7.76675889 22.102474,7.59457145 21.8423381,7.63757144 L21.8423381,7.63757144 Z M10.8199662,9.03875842 C12.709826,9.75838316 14.0544545,11.564695 14.0544545,13.6758192 C14.0544545,13.7492567 14.0522952,13.8221942 14.0489291,13.8948191 C13.4445703,13.6387567 12.8781903,13.2696944 12.3853547,12.784632 C11.3363005,11.7523199 10.8148219,10.3947579 10.8199662,9.03875842 L10.8199662,9.03875842 Z M14.9843643,14.1941315 C14.9995431,14.0232566 15.0078629,13.8505067 15.0078629,13.6758192 C15.0078629,11.0741327 13.2906227,8.86057099 10.9135796,8.07332128 C11.0395195,7.41707152 11.2929869,6.78038425 11.6729657,6.20119696 C14.803171,7.28744657 17.0526865,10.2276955 17.0526865,13.6757567 C17.0526865,13.8708817 17.0447477,14.0644441 17.0303945,14.256569 C16.3517928,14.364319 15.6564245,14.343444 14.9843643,14.1941315 L14.9843643,14.1941315 Z" id="Shape"></path>
                    </g>
                </g>
            </g>
        </g>
    </g>
</svg>