<?xml version="1.0" encoding="UTF-8"?>
<svg width="32px" height="32px" viewBox="0 0 32 32" version="1.1" xmlns="http://www.w3.org/2000/svg" xmlns:xlink="http://www.w3.org/1999/xlink">
    <title>Group 25</title>
    <g id="Page-1-V2" stroke="none" stroke-width="1" fill="none" fill-rule="evenodd">
        <g id="My-kryptomon-detail-V2" transform="translate(-584.000000, -1218.000000)">
            <g id="Group-25" transform="translate(584.000000, 1218.000000)">
                <rect id="Rectangle-Copy-9" x="9.09494702e-13" y="0" width="32" height="32" rx="5"></rect>
                <g id="star" transform="translate(0.000000, 1.000000)" fill-rule="nonzero">
                    <path d="M28.2943968,9.29675168 L19.9355695,8.51209953 L16.6151886,0.708403649 C16.3826882,0.1619811 15.6172493,0.1619811 15.3848114,0.708403649 L12.0644305,8.51203627 L3.70560322,9.29675168 C3.12028968,9.35165962 2.88378926,10.0884887 3.32535254,10.4811311 L9.63211372,16.0886992 L7.78642295,24.3773309 C7.65717272,24.957723 8.27648632,25.413054 8.78186221,25.1093524 L16,20.7713722 L23.2181378,25.1093524 C23.7235762,25.4131173 24.3427648,24.957723 24.2135771,24.3773309 L22.3678238,16.0886992 L28.6746475,10.4811311 C29.1162107,10.0884887 28.8796478,9.35165962 28.2943968,9.29675168 Z" id="Path" fill="#FFDC64"></path>
                    <g id="Group" fill="#FFF082">
                        <path d="M7.45485986,0.43974695 C7.88098561,1.03880015 9.08373775,3.61150275 9.77136396,5.11084372 C9.87948916,5.34654301 9.58730114,5.55946941 9.40073831,5.3808921 C8.2140487,4.24528459 6.18498261,2.27467157 5.75885685,1.67555512 C5.42166876,1.20156297 5.52798145,0.54064345 5.99635727,0.199366574 C6.4646706,-0.141910302 7.11767176,-0.0342451966 7.45485986,0.43974695 Z" id="Path"></path>
                        <path d="M24.5451401,0.43974695 C24.1190144,1.03880015 22.9162623,3.61150275 22.228636,5.11084372 C22.1205108,5.34654301 22.4126989,5.55946941 22.5992617,5.3808921 C23.7859513,4.24528459 25.8149549,2.27460832 26.2411431,1.67555512 C26.5783312,1.20156297 26.4720186,0.54064345 26.0036427,0.199366574 C25.5353294,-0.141910302 24.8823282,-0.0342451966 24.5451401,0.43974695 Z" id="Path"></path>
                        <path d="M31.2788396,18.0068714 C30.5854633,17.7780039 27.7982709,17.3999109 26.1780805,17.1924247 C25.9233926,17.1597836 25.8117674,17.5062476 26.0364553,17.631878 C27.4660203,18.4311427 29.9374622,19.7889123 30.6308384,20.0177797 C31.1794644,20.1988873 31.7692779,19.8955653 31.9482158,19.3402233 C32.1271536,18.7848814 31.8274655,18.187979 31.2788396,18.0068714 Z" id="Path"></path>
                        <path d="M0.721160428,18.0068714 C1.41453666,17.7780039 4.2017291,17.3999109 5.82191947,17.1924247 C6.07660742,17.1597836 6.18823261,17.5062476 5.96354472,17.631878 C4.53397968,18.4311427 2.0625378,19.7889123 1.36916158,20.0177797 C0.820535604,20.1988873 0.230722059,19.8955653 0.051784242,19.3402233 C-0.127153575,18.7848814 0.172534456,18.187979 0.721160428,18.0068714 Z" id="Path"></path>
                        <path d="M14.9871232,29.9424529 C14.9871232,29.2042953 15.4961866,26.4051291 15.8036872,24.7817392 C15.8519997,24.5265565 16.2120629,24.5265565 16.2603755,24.7817392 C16.567876,26.4051291 17.0769394,29.2042953 17.0769394,29.9424529 C17.0769394,30.5265139 16.6091261,31 16.0320626,31 C15.4549365,31 14.9871232,30.5265139 14.9871232,29.9424529 Z" id="Path"></path>
                    </g>
                    <path d="M17.8225657,3.54615725 L16.6151261,0.708403649 C16.3826257,0.1619811 15.6171868,0.1619811 15.3847489,0.708403649 L12.064368,8.51203627 L3.70560322,9.29675168 C3.12028968,9.35165962 2.88378926,10.0884887 3.32535254,10.4811311 L9.63211372,16.0886992 L7.78642295,24.3773309 C7.65717272,24.957723 8.27648632,25.413054 8.78186221,25.1093524 L9.74255141,24.5319967 C11.3174917,14.2133527 15.7451245,6.63871404 17.8225657,3.54615725 Z" id="Path" fill="#FFC850"></path>
                </g>
            </g>
        </g>
    </g>
</svg>