<?xml version="1.0" encoding="UTF-8"?>
<svg width="32px" height="32px" viewBox="0 0 32 32" version="1.1" xmlns="http://www.w3.org/2000/svg" xmlns:xlink="http://www.w3.org/1999/xlink">
    <title>Group 27</title>
    <g id="Page-1-V2" stroke="none" stroke-width="1" fill="none" fill-rule="evenodd">
        <g id="My-kryptomon-detail-V2" transform="translate(-584.000000, -1291.000000)">
            <g id="Group-27" transform="translate(584.000000, 1291.000000)">
                <rect id="Rectangle-Copy-18" x="9.09494702e-13" y="0" width="32" height="32" rx="5"></rect>
                <g id="fengshui" fill-rule="nonzero">
                    <circle id="XMLID_6_" fill="#FFB554" cx="16" cy="4.8" r="4.26666667"></circle>
                    <circle id="Oval" fill="#FFB554" cx="27.2" cy="14.4" r="4.26666667"></circle>
                    <circle id="Oval" fill="#5DC4DD" cx="23.4666667" cy="27.2" r="4.26666667"></circle>
                    <circle id="XMLID_5_" fill="#5DC4DD" cx="4.8" cy="14.4" r="4.26666667"></circle>
                    <circle id="Oval" fill="#FFB554" cx="9.06666667" cy="27.2" r="4.26666667"></circle>
                    <path d="M28.2666667,12.8 C28.2666667,12.8 27.9787787,13.072624 27.6476587,13.4529973 C27.1973973,12.7986347 26.6666667,12.2666667 26.6666667,12.2666667 C26.6666667,12.2666667 25.0666667,13.8666667 25.0666667,14.9333333 C25.0666667,16.1258773 25.6,16.5333333 26.6666667,16.5333333 C26.9258133,16.5333333 27.1521813,16.5005227 27.3483733,16.4375627 C27.5303733,16.50104 27.7446613,16.5333333 28,16.5333333 C28.8889013,16.5333333 29.3333333,15.8222027 29.3333333,14.9333333 C29.3333333,14.044432 28.2666667,12.8 28.2666667,12.8 Z" id="Path" fill="#EA5B58"></path>
                    <polygon id="Path" fill="#5DC4DD" points="9.6 29.3333333 8.53333333 29.3333333 7.46666667 26.1333333 9.06666667 24.5333333 10.6666667 26.1333333"></polygon>
                    <polygon id="Path" fill="#EA5B58" points="24 24.5333333 23.034928 27.1068693 21.8666667 26.1333333 21.3333333 28.8 22.4 28.8 25.0666667 28.8 25.6 28.8"></polygon>
                    <polygon id="Path" fill="#93C666" points="14.4 5.86666667 16 2.13333333 17.6 5.86666667"></polygon>
                    <g id="Group" fill="#1E191A">
                        <path d="M4.8,19.2 C7.12672533,19.2 9.070832,17.5351893 9.50713067,15.3346027 L12.3013013,17.1973973 L10.2419573,22.5515947 C9.865072,22.4561867 9.472752,22.4 9.06666667,22.4 C6.42005333,22.4 4.26666667,24.5533867 4.26666667,27.2 C4.26666667,29.8466133 6.42005333,32 9.06666667,32 C11.71328,32 13.8666667,29.8466133 13.8666667,27.2 C13.8666667,25.420704 12.8911147,23.867776 11.449024,23.0388 L16.1539093,19.7658827 L21.073376,23.04544 C19.6374027,23.8760427 18.6666667,25.4252907 18.6666667,27.2 C18.6666667,29.8466133 20.8200533,32 23.4666667,32 C26.11328,32 28.2666667,29.8466133 28.2666667,27.2 C28.2666667,24.5533867 26.11328,22.4 23.4666667,22.4 C23.0582347,22.4 22.6637387,22.4568373 22.284928,22.5532853 L19.9796853,17.1044267 L22.4958293,15.3540693 C22.939584,17.545152 24.8800107,19.2 27.2,19.2 C29.8466133,19.2 32,17.0466133 32,14.4 C32,11.7533867 29.8466133,9.6 27.2,9.6 C24.733856,9.6 22.6978827,11.4704107 22.4314773,13.8666667 L18.6098933,13.8666667 L16.775712,9.53144533 C19.053904,9.15878933 20.8,7.181936 20.8,4.8 C20.8,2.15338667 18.6466133,0 16,0 C13.3533867,0 11.2,2.15338667 11.2,4.8 C11.2,7.19029867 12.958368,9.172496 15.2483093,9.53512533 L13.5825547,13.8666667 L9.56852267,13.8666667 C9.30211733,11.4704107 7.266144,9.6 4.8,9.6 C2.15338667,9.6 0,11.7533867 0,14.4 C0,17.0466133 2.15338667,19.2 4.8,19.2 Z M12.8,27.2 C12.8,29.258592 11.1252587,30.9333333 9.06666667,30.9333333 C7.00807467,30.9333333 5.33333333,29.258592 5.33333333,27.2 C5.33333333,25.141408 7.00807467,23.4666667 9.06666667,23.4666667 C11.1252587,23.4666667 12.8,25.141408 12.8,27.2 Z M27.2,27.2 C27.2,29.258592 25.5252587,30.9333333 23.4666667,30.9333333 C21.4080747,30.9333333 19.7333333,29.258592 19.7333333,27.2 C19.7333333,25.141408 21.4080747,23.4666667 23.4666667,23.4666667 C25.5252587,23.4666667 27.2,25.141408 27.2,27.2 Z M1.44114667,12.781056 C1.71741333,12.916896 2.064976,13.0666667 2.66666667,13.0666667 C3.32291733,13.0666667 3.67994667,12.88776 3.96666667,12.7440107 C4.21067733,12.621616 4.38698133,12.5333333 4.79478933,12.5333333 C5.20181867,12.5333333 5.37864533,12.6213547 5.62317333,12.743488 C5.91171733,12.8874987 6.27109333,13.0666667 6.93333333,13.0666667 C7.535024,13.0666667 7.88258667,12.916896 8.15885333,12.781056 C8.29362133,13.059472 8.39778667,13.3551467 8.46012267,13.6665707 C8.163248,13.7315467 7.94286933,13.832 7.76067733,13.9229173 C7.516144,14.0450507 7.33932267,14.1333333 6.93150933,14.1333333 C6.52343467,14.1333333 6.34661333,14.0450507 6.10208,13.9229173 C5.81432533,13.7789067 5.455728,13.6 4.796352,13.6 C4.13749867,13.6 3.779424,13.779168 3.49192533,13.9229173 C3.24791467,14.0450507 3.071616,14.1333333 2.66458133,14.1333333 C2.257808,14.1333333 2.08150933,14.0450507 1.83776,13.9231787 C1.65589333,13.8321653 1.435968,13.7317387 1.13984533,13.666736 C1.20214933,13.3552107 1.30637867,13.059536 1.44114667,12.781056 Z M1.08463467,14.754816 C1.177376,14.7889653 1.26464533,14.8290667 1.36015467,14.8768213 C1.64791467,15.020832 2.005728,15.2 2.66458133,15.2 C3.32343467,15.2 3.68150933,15.020832 3.969008,14.8770827 C4.21301867,14.7549493 4.38932267,14.6666667 4.796352,14.6666667 C5.20416533,14.6666667 5.38098667,14.7549493 5.62552,14.8770827 C5.91354133,15.020832 6.27187733,15.2 6.93150933,15.2 C7.59088533,15.2 7.94947733,15.0210933 8.23723733,14.8770827 C8.33365867,14.8289067 8.42168,14.7885387 8.51539733,14.7542293 C8.47884267,15.1403307 8.38447467,15.5097973 8.23896533,15.852896 C8.05153067,15.913344 7.89954667,15.986976 7.76276267,16.0554667 C7.51770667,16.1781227 7.340624,16.2666667 6.93333333,16.2666667 C6.52239467,16.2666667 6.34478933,16.1781227 6.09922133,16.0554667 C5.81146133,15.9119787 5.45312533,15.7333333 4.79479467,15.7333333 C4.13464,15.7333333 3.77656533,15.9127627 3.48880533,16.0570293 C3.246096,16.1786453 3.07057067,16.2666667 2.66666667,16.2666667 C2.259376,16.2666667 2.08229333,16.1781227 1.83723733,16.0554667 C1.70045333,15.986976 1.54846933,15.913344 1.36103467,15.852896 C1.21559467,15.5099627 1.12122133,15.1407573 1.08463467,14.754816 Z M2.481184,17.320608 C2.54404267,17.3243147 2.59746133,17.3333333 2.66666667,17.3333333 C3.32291733,17.3333333 3.67994667,17.1544267 3.96666667,17.0106773 C4.21067733,16.8882827 4.38698133,16.8 4.79478933,16.8 C5.20181867,16.8 5.37864533,16.8880213 5.62317333,17.0101547 C5.91171733,17.1541653 6.27109333,17.3333333 6.93333333,17.3333333 C7.00253867,17.3333333 7.05595733,17.3243147 7.118816,17.320608 C6.481216,17.8278667 5.67620267,18.1333333 4.8,18.1333333 C3.92379733,18.1333333 3.118784,17.8278667 2.481184,17.320608 Z M20.6822933,21.502864 L17.095056,19.1111947 L19.0849013,17.7268213 L20.6822933,21.502864 Z M27.2,10.6666667 C29.258592,10.6666667 30.9333333,12.341408 30.9333333,14.4 C30.9333333,16.458592 29.258592,18.1333333 27.2,18.1333333 C25.141408,18.1333333 23.4666667,16.458592 23.4666667,14.4 C23.4666667,12.341408 25.141408,10.6666667 27.2,10.6666667 Z M21.2328107,14.9333333 L19.554944,16.1005227 L19.0612,14.9333333 L21.2328107,14.9333333 Z M12.2666667,4.8 C12.2666667,2.741408 13.941408,1.06666667 16,1.06666667 C18.058592,1.06666667 19.7333333,2.741408 19.7333333,4.8 C19.7333333,6.858592 18.058592,8.53333333 16,8.53333333 C13.941408,8.53333333 12.2666667,6.858592 12.2666667,4.8 Z M16.02344,10.4911467 L17.4515627,13.8666667 L14.7252587,13.8666667 L16.02344,10.4911467 Z M14.315104,14.9333333 L17.902864,14.9333333 L18.6601547,16.7229173 L16.1411467,18.4752587 L13.6033867,16.7835893 L14.315104,14.9333333 Z M15.2,19.1299467 L11.7880213,21.5036427 L13.2109387,17.803904 L15.2,19.1299467 Z M13.1721333,14.9333333 L12.6937493,16.1770827 L10.8281227,14.9333333 L13.1721333,14.9333333 Z M4.8,10.6666667 C5.88981333,10.6666667 6.868944,11.1389333 7.55205333,11.8861333 C7.389776,11.954688 7.21868267,12 6.93333333,12 C6.52239467,12 6.34478933,11.911456 6.09922133,11.7888 C5.81146133,11.645312 5.45312533,11.4666667 4.79479467,11.4666667 C4.13464,11.4666667 3.77656533,11.646096 3.48880533,11.7903627 C3.246096,11.9119787 3.07057067,12 2.66666667,12 C2.38131733,12 2.210224,11.954688 2.04794667,11.8861333 C2.731056,11.1389333 3.71018667,10.6666667 4.8,10.6666667 Z" id="Shape"></path>
                        <path d="M26.6666667,17.0666667 C26.9091147,17.0666667 27.135936,17.041664 27.3432267,16.9921867 C27.540624,17.0421867 27.7572907,17.0666667 28,17.0666667 C29.1164053,17.0666667 29.8666667,16.209376 29.8666667,14.9333333 C29.8666667,13.8776053 28.7940107,12.5955733 28.671616,12.452864 C28.5765653,12.3419253 28.440368,12.2749973 28.2945333,12.2674453 C28.1419307,12.2559893 28.0057333,12.3122347 27.9,12.4127573 C27.8937493,12.4187467 27.81328,12.4950507 27.690624,12.6205707 C27.35208,12.1997387 27.0609387,11.906768 27.044272,11.8901013 C26.944272,11.7898453 26.808592,11.7333333 26.666928,11.7333333 L26.6666667,11.7333333 C26.5252587,11.7333333 26.389584,11.789584 26.289584,11.889584 C26.1098933,12.0692693 24.5333333,13.6817707 24.5333333,14.9333333 C24.5333333,16.34896 25.25104,17.0666667 26.6666667,17.0666667 L26.6666667,17.0666667 Z M26.6645813,13.0554667 C26.8296853,13.2476533 27.0270827,13.4919253 27.2083307,13.7554667 C27.3018187,13.8914027 27.452864,13.9762987 27.6174453,13.9856747 C27.7856747,13.992704 27.9419253,13.9276 28.05,13.80312 C28.107552,13.736976 28.164064,13.6742133 28.2174453,13.6156213 C28.5135413,14.0476587 28.8,14.5799467 28.8,14.9333333 C28.8,15.2541653 28.7221333,16 28,16 C27.8098933,16 27.6497387,15.9778667 27.5242187,15.933856 C27.4674453,15.914064 27.4078133,15.9041707 27.3484373,15.9041707 C27.293488,15.9041707 27.238544,15.9127627 27.1854187,15.9296907 C27.0401067,15.976304 26.8656267,16 26.6666667,16 C25.829168,16 25.6,15.770832 25.6,14.9333333 C25.6,14.467968 26.1411467,13.6653653 26.6645813,13.0554667 Z" id="Shape"></path>
                        <path d="M8.689584,24.1562507 L7.089584,25.7562507 C6.94661333,25.89896 6.89687467,26.110416 6.96067733,26.3020853 L8.027344,29.5020853 C8.1,29.719792 8.303648,29.8666667 8.53333333,29.8666667 L9.6,29.8666667 C9.82968533,29.8666667 10.0333333,29.719792 10.1059893,29.5020853 L11.172656,26.3020853 C11.2364587,26.110416 11.18672,25.89896 11.0437493,25.7562507 L9.44374933,24.1562507 C9.23541867,23.9479147 8.89791467,23.9479147 8.689584,24.1562507 L8.689584,24.1562507 Z M9.21562667,28.8 L8.91770667,28.8 L8.30992533,26.9766613 L8.89791467,27.172656 C8.952864,27.1908853 9.00963733,27.2 9.06666667,27.2 C9.123696,27.2 9.18046933,27.1908853 9.23541867,27.172656 L9.823408,26.9766613 L9.21562667,28.8 Z M9.67936,25.9001973 L9.06666667,26.1044267 L8.45397333,25.9001973 L9.06666667,25.2874987 L9.67936,25.9001973 Z" id="Shape"></path>
                        <path d="M20.920832,29.1380213 C21.0221333,29.2617173 21.17344,29.3333333 21.3333333,29.3333333 L25.6,29.3333333 C25.7749973,29.3333333 25.9388,29.2476587 26.0382827,29.103904 C26.1380213,28.9598933 26.1606773,28.77656 26.0994827,28.6127573 L24.4994827,24.3460907 C24.4213547,24.1380213 24.2223947,24 24,24 C23.7776053,24 23.5786453,24.1380213 23.5005227,24.346096 L22.7992213,26.2161493 L22.2080747,25.7237013 C22.0638027,25.6031307 21.8671893,25.5674507 21.6890667,25.6304747 C21.5117227,25.692976 21.3804747,25.8442773 21.3437547,26.0286507 L20.8104213,28.6953173 C20.7789067,28.8520853 20.8195307,29.0145813 20.920832,29.1380213 L20.920832,29.1380213 Z M22.2138027,27.116928 L22.693488,27.5164053 C22.8262987,27.6276053 23.004688,27.666928 23.1713547,27.6223947 C23.3382827,27.5781227 23.473696,27.455728 23.5343733,27.2940107 L24,26.0523413 L24.8304693,28.2666667 L21.983856,28.2666667 L22.2138027,27.116928 Z" id="Shape"></path>
                        <path d="M16.5333333,7.46666667 L16.5333333,6.4 L17.6,6.4 C17.779168,6.4 17.9466133,6.30989333 18.045312,6.16015467 C18.1440107,6.01067733 18.1609387,5.82135467 18.0901013,5.65650667 L16.4901013,1.92317333 C16.4062507,1.72708267 16.21328,1.6 16,1.6 C15.78672,1.6 15.5937493,1.72708267 15.5098933,1.92317867 L13.9098933,5.656512 C13.8390613,5.82135467 13.8559893,6.01067733 13.9546827,6.16016 C14.0533867,6.30989333 14.220832,6.4 14.4,6.4 L15.4666667,6.4 L15.4666667,7.46666667 L16.5333333,7.46666667 Z M16,3.48723733 L16.7911467,5.33333333 L15.2088533,5.33333333 L16,3.48723733 Z" id="Shape"></path>
                        <path d="M14.7749973,28.2054667 L14.6697867,29.2669227 C15.1143253,29.3109387 15.5617173,29.3333333 16,29.3333333 C16.610416,29.3333333 17.2393227,29.288544 17.8684907,29.2002613 L17.720576,28.1440107 C16.723696,28.283856 15.7554667,28.302864 14.7749973,28.2054667 L14.7749973,28.2054667 Z" id="Path"></path>
                        <path d="M4.40963733,20.0166667 L3.401824,20.3656267 C3.73437867,21.32552 4.17864533,22.2484373 4.72213867,23.1088533 L5.62370133,22.5390613 C5.12395733,21.7479147 4.71536533,20.8992213 4.40963733,20.0166667 L4.40963733,20.0166667 Z" id="Path"></path>
                        <path d="M5.132032,8.280208 L6.00130133,8.89843733 C7.13567467,7.30442667 8.65208,5.9888 10.386976,5.09401067 L9.89791467,4.146096 C8.01276267,5.11849067 6.36484267,6.548176 5.132032,8.280208 Z" id="Path"></path>
                        <path d="M22.1020853,4.146096 L21.613024,5.09401067 C23.34792,5.9888 24.8643253,7.30442667 25.9986987,8.89843733 L26.867968,8.280208 C25.6351573,6.548176 23.9872373,5.11849067 22.1020853,4.146096 Z" id="Path"></path>
                        <path d="M27.465104,22.805728 C27.9223947,22.036976 28.303648,21.216144 28.598176,20.3656213 L27.5903627,20.0166613 C27.3195307,20.7986933 26.9687467,21.5536427 26.5484373,22.2604107 L27.465104,22.805728 Z" id="Path"></path>
                    </g>
                </g>
            </g>
        </g>
    </g>
</svg>