<?xml version="1.0" encoding="UTF-8"?>
<svg width="32px" height="32px" viewBox="0 0 32 32" version="1.1" xmlns="http://www.w3.org/2000/svg" xmlns:xlink="http://www.w3.org/1999/xlink">
    <title>hungry</title>
    <g id="Page-1-V4" stroke="none" stroke-width="1" fill="none" fill-rule="evenodd">
        <g id="Kryptomon-detail-PDP" transform="translate(-584.000000, -1368.000000)" fill-rule="nonzero">
            <g id="hungry" transform="translate(584.000000, 1368.000000)">
                <g id="Group" transform="translate(0.499997, 0.499682)" fill="#6CF1CA">
                    <path d="M30.9998068,13.5002405 C30.9975687,11.2082206 29.4372426,9.21122121 27.2138304,8.65471959 C27.9151786,6.67015025 27.2962511,4.45889117 25.6665714,3.12678627 C24.0368918,1.79468137 21.7467247,1.62803795 19.9413757,2.71019388 C19.0855056,1.04607027 17.3712031,8.3267087e-16 15.4999034,8.3267087e-16 C13.6286037,8.3267087e-16 11.9143012,1.04607027 11.0584311,2.71019388 C9.25317269,1.62672487 6.96214073,1.79278974 5.33199833,3.1252729 C3.70185593,4.45775606 3.08332328,6.66997782 3.7859764,8.65471959 C1.60416126,9.19967042 0.0552506628,11.13508 0.00168313826,13.3833059 C-0.0518843863,15.6315318 1.40309248,17.6385153 3.55647783,18.2867612 C3.28566773,20.1559052 4.09180756,22.0180308 5.64005025,23.0996652 C7.18829294,24.1812995 9.2140699,24.2976095 10.8759322,23.4002834 C11.6463716,25.2758773 13.4732557,26.5004612 15.5009034,26.5004612 C17.528551,26.5004612 19.3554351,25.2758773 20.1258746,23.4002834 C21.7865221,24.3110279 23.8200561,24.2008109 25.3725428,23.1159152 C26.9250294,22.0310195 27.7276367,20.1593081 27.4433289,18.2867612 C29.554626,17.6501147 30.9998068,15.7054589 30.9998068,13.5002405 L30.9998068,13.5002405 Z" id="Path"></path>
                    <ellipse id="Oval" cx="1.49999065" cy="29.5003097" rx="1.49999065" ry="1.50000649"></ellipse>
                    <ellipse id="Oval" cx="6.49995948" cy="27.5003011" rx="1.49999065" ry="1.50000649"></ellipse>
                </g>
                <path d="M14.0499124,15.3999282 L10.3199357,19.1249443 C9.82509164,19.6197936 9.82509164,20.4221028 10.3199357,20.9169521 C10.8147797,21.4118013 11.6170805,21.4118013 12.1119245,20.9169521 L15.8394013,17.1894359 L14.0499124,15.3999282 Z" id="Path" fill="#EA4505"></path>
                <path d="M25.0808437,10.023405 L21.9678631,11.0609094 L23.4528538,8.0903966 C23.4971386,8.00240585 23.4800498,7.89593884 23.4104527,7.8262274 C23.3408555,7.75651595 23.2344176,7.7392535 23.1463557,7.78339527 L20.1758742,9.26890169 L21.2133678,6.15588823 C21.2471593,6.05525905 21.2072015,5.9446104 21.1169126,5.88879051 C21.0266236,5.83297061 20.909784,5.84668135 20.8348701,5.92188722 L17.9903879,8.76639952 C17.3820585,9.37504551 17.0403487,10.2003734 17.0403938,11.0609094 C17.0404389,11.9214455 16.698729,12.7467734 16.0903997,13.3554194 L15.8404013,13.6054204 L17.6313901,15.3999282 L17.8813885,15.1499271 C18.4900281,14.5415914 19.3153473,14.1998779 20.1758742,14.199923 C21.0364012,14.1999681 21.8617204,13.8582547 22.4703599,13.2499189 L25.3148422,10.3999066 C25.3877361,10.324606 25.4000596,10.2093702 25.3447377,10.1203577 C25.2894158,10.0313452 25.1806332,9.99137925 25.0808437,10.023405 L25.0808437,10.023405 Z" id="Path" fill="#EA4505"></path>
                <path d="M13.2949171,8.37289782 C11.5629279,6.64089033 9.15644293,6.23988859 7.91895064,7.47689394 C6.68145835,8.71389929 7.08295585,11.1209097 8.81494505,12.8529172 C10.100937,14.1384228 11.7574267,14.6889251 13.0324188,14.3824238 L19.567378,20.9169521 C19.8049929,21.1546202 20.1272983,21.2881451 20.4633724,21.2881451 C20.7994466,21.2881451 21.121752,21.1546202 21.3593669,20.9169521 C21.8537339,20.4219053 21.8537339,19.6199911 21.3593669,19.1249443 L14.8244076,12.5904161 C15.1309057,11.3154105 14.5809091,9.65840338 13.2949171,8.37289782 L13.2949171,8.37289782 Z" id="Path" fill="#FF7745"></path>
                <path d="M15.9999003,27.5 C13.9596413,27.504092 12.0859596,26.3745926 11.1369306,24.5684679 C9.43855489,25.284641 7.49435179,25.1024448 5.95860372,24.0831936 C4.42285565,23.0639424 3.49976456,21.3431618 3.49997818,19.4999459 C3.49997818,19.3804454 3.50497815,19.2579449 3.51497809,19.1284443 C1.36984605,18.2991293 -0.0320767788,16.2218384 0.00138674164,13.922201 C0.0348502621,11.6225636 1.49662271,9.58694509 3.66497716,8.82039975 C3.55601953,8.38866589 3.50060343,7.94516447 3.49997818,7.49989404 C3.49701143,5.61094032 4.46508147,3.85304707 6.06302172,2.84572984 C7.66096197,1.83841261 9.66445424,1.72307816 11.3674291,2.54037259 C12.3763571,0.957948623 14.1232148,0 15.9999003,0 C17.8765858,0 19.6234434,0.957948623 20.6323714,2.54037259 C22.5507759,1.61871359 24.8290224,1.88890111 26.4786421,3.23370821 C28.1282619,4.57851531 28.851991,6.75560576 28.3358234,8.82039975 C30.5041778,9.58694509 31.9659503,11.6225636 31.9994138,13.922201 C32.0328773,16.2218384 30.6309545,18.2991293 28.4858224,19.1284443 C28.4958224,19.2579449 28.5008223,19.3784454 28.5008223,19.4999459 C28.5011774,21.3434289 27.5779525,23.0644927 26.0419204,24.0837989 C24.5058883,25.1031051 22.5613503,25.28508 20.86287,24.5684679 C19.9138409,26.3745926 18.0401593,27.504092 15.9999003,27.5 L15.9999003,27.5 Z M11.3759291,23.3999628 C11.5786898,23.3999601 11.7613771,23.5224112 11.8384262,23.7099641 C12.5324437,25.3967075 14.1759751,26.4976918 15.9999003,26.4976918 C17.8238255,26.4976918 19.4673569,25.3967075 20.1613743,23.7099641 C20.2152349,23.5788497 20.3222141,23.4767576 20.4557012,23.4290832 C20.5891882,23.3814087 20.736637,23.3926327 20.86137,23.4599631 C22.3560089,24.2847952 24.1896171,24.1879377 25.5890417,23.2102311 C26.9884664,22.2325246 27.7101651,20.5441197 27.4498289,18.8569432 C27.4145086,18.6122987 27.5632507,18.3785585 27.7998267,18.3069408 C29.7380675,17.7238026 31.0477926,15.9174948 30.9995894,13.8939872 C30.9513861,11.8704796 29.557137,10.1285863 27.593328,9.63840329 C27.4571368,9.60415 27.3416286,9.51420133 27.2750496,9.39055322 C27.2084705,9.26690512 27.1969591,9.1209576 27.2433302,8.98840048 C27.8738377,7.20279446 27.3168568,5.21355042 25.8507936,4.01498874 C24.3847303,2.81642707 22.3244862,2.66599164 20.699871,3.63887735 C20.581461,3.70939323 20.4391961,3.72790716 20.3066825,3.69004574 C20.1741689,3.65218431 20.0631588,3.56130533 19.9998753,3.43887648 C19.2299877,1.94088798 17.6871357,0.999136359 16.0029003,0.999136359 C14.3186648,0.999136359 12.7758128,1.94088798 12.0059252,3.43887648 C11.9426417,3.56130533 11.8316316,3.65218431 11.699118,3.69004574 C11.5666044,3.72790716 11.4243395,3.70939323 11.3059295,3.63887735 C9.68134041,2.66346401 7.61930564,2.81284538 6.15226339,4.01222785 C4.68522114,5.21161033 4.1289506,7.20282817 4.76197032,8.98890048 C4.80834145,9.1214576 4.79683,9.26740512 4.73025095,9.39105323 C4.66367191,9.51470133 4.54816367,9.60465 4.4119725,9.63890329 C2.44729412,10.1274294 1.05135583,11.8686997 1.00186149,13.8926193 C0.95236715,15.9165389 2.2615232,17.7239629 4.19997382,18.3079408 C4.4365498,18.3795585 4.58529196,18.6132987 4.54997164,18.8579432 C4.30556088,20.5399799 5.03047442,22.2160805 6.42354029,23.1898937 C7.81660616,24.1637068 9.63971154,24.2687813 11.1354306,23.4614631 C11.2091999,23.4211924 11.2918839,23.4000484 11.3759291,23.3999628 L11.3759291,23.3999628 Z" id="Shape" fill="#000000"></path>
                <path d="M1.99998753,32 C0.895424919,32 0,31.1045656 0,29.9999827 C0,28.8954171 0.895424919,27.9999827 1.99998753,27.9999827 C3.10455015,27.9999827 3.99997507,28.8954171 3.99997507,29.9999827 C3.99997507,31.1045656 3.10455015,32 1.99998753,32 Z M1.99999377,28.999987 C1.44770623,28.999987 0.999993767,29.4477042 0.999993767,29.999987 C0.999993767,30.5522785 1.44770623,30.999987 1.99999377,30.999987 C2.55226884,30.999987 2.9999813,30.5522785 2.9999813,29.999987 C2.9999813,29.4477042 2.55226884,28.999987 1.99999377,28.999987 Z" id="Shape" fill="#000000"></path>
                <path d="M6.99995637,29.9999914 C5.89539375,29.9999914 4.99996883,29.104557 4.99996883,27.9999741 C4.99996883,26.8954084 5.89539375,25.9999741 6.99995637,25.9999741 C8.10451898,25.9999741 8.9999439,26.8954084 8.9999439,27.9999741 C8.9999439,29.104557 8.10451898,29.9999914 6.99995637,29.9999914 Z M6.9999626,26.9999784 C6.44767506,26.9999784 5.9999626,27.4476956 5.9999626,27.9999784 C5.9999626,28.5522698 6.44767506,28.9999784 6.9999626,28.9999784 C7.55223768,28.9999784 7.99995013,28.5522698 7.99995013,27.9999784 C7.99995013,27.4476956 7.55223768,26.9999784 6.9999626,26.9999784 Z" id="Shape" fill="#000000"></path>
                <path d="M25.7733394,9.85690424 C25.5964016,9.56870431 25.2437166,9.44111399 24.9233446,9.54940291 L22.9543569,10.2049057 L23.899851,8.31389756 C24.0394973,8.0334099 23.984296,7.69506108 23.7627415,7.47350428 C23.5411871,7.25194748 23.2028418,7.19674556 22.9223571,7.33639334 L21.0313689,8.28139742 L21.6878648,6.31338891 C21.7949845,5.99262863 21.6672849,5.64032515 21.3795164,5.46270314 C21.091748,5.28508113 20.719583,5.32884856 20.4808723,5.56838569 L17.6358901,8.41289799 C16.9309486,9.11421061 16.5360787,10.0685346 16.5393969,11.0629095 C16.5343805,11.7384809 16.2813546,12.388668 15.8284013,12.8899174 L15.3654042,12.4269154 C15.5819029,10.9984092 14.9284069,9.30190184 13.6484149,8.0213963 C11.7244269,6.09788798 8.99544393,5.69538624 7.56495285,7.12539242 C6.13446176,8.55539861 6.53645926,11.2839104 8.46094726,13.2084187 C9.74193928,14.4894243 11.4389287,15.1404271 12.8664198,14.9259262 L13.3399168,15.3989282 L9.96593788,18.7734428 C9.27558625,19.4638017 9.27558625,20.5830947 9.96593788,21.2734536 C10.6562895,21.9638125 11.7755707,21.9638125 12.4659223,21.2734536 L15.8399013,17.898939 L19.2143802,21.2734536 C19.9047319,21.9638125 21.024013,21.9638125 21.7143647,21.2734536 C22.4047163,20.5830947 22.4047163,19.4638017 21.7143647,18.7734428 L18.3498856,15.4074282 C18.8493801,14.9517039 19.5007286,14.6983991 20.1768742,14.6969252 C21.1713329,14.7002229 22.1256985,14.3051474 22.8268577,13.5999204 L25.67134,10.7559081 C25.9105609,10.5165667 25.9528593,10.1437563 25.7733394,9.85690424 Z M11.7584267,20.5634505 C11.4548579,20.8533579 10.9770022,20.8533579 10.6734335,20.5634505 C10.3745308,20.263541 10.3745308,19.7783553 10.6734335,19.4784458 L14.0499124,16.1044313 L15.1349057,17.1894359 L11.7584267,20.5634505 Z M21.0083691,20.5634505 C20.7045964,20.8528486 20.2271485,20.8528486 19.9233758,20.5634505 L13.3859166,14.0289223 C13.2921708,13.9351472 13.1650153,13.88245 13.0324188,13.8824216 C12.9931823,13.8821876 12.9540627,13.8867209 12.9159195,13.8959217 C11.7659267,14.1744229 10.2939358,13.6244205 9.16594287,12.4994157 C7.63195243,10.965409 7.22995493,8.87039997 8.26994845,7.83039547 C9.30994197,6.79039097 11.4044289,7.19239271 12.9394193,8.72639935 C14.0644123,9.85190422 14.6124089,11.3229106 14.3359106,12.4734156 C14.2951828,12.6426213 14.3453692,12.820832 14.4684098,12.9439176 L15.4824035,13.957422 L17.2783923,15.7499297 L21.0058691,19.4774458 C21.3051617,19.7775845 21.3051617,20.2633119 21.0058691,20.5634505 L21.0083691,20.5634505 Z M22.1188621,12.8929174 C21.6052698,13.4091785 20.906587,13.6986641 20.1783742,13.6969208 C19.2354591,13.694363 18.3268034,14.0502152 17.6363901,14.6924251 L16.5468969,13.6029204 C17.1892727,12.9126084 17.545149,12.0038721 17.5423907,11.0609094 C17.5403465,10.3324827 17.829865,9.63352588 18.3463856,9.11990105 L20.378373,7.08789226 L19.6998772,9.11090101 C19.635086,9.30331271 19.6930761,9.51580095 19.8466269,9.64862379 C20.0001776,9.78144662 20.2188001,9.80823072 20.3998728,9.71640363 L22.6418589,8.59489878 L21.5208659,10.8374085 C21.4306635,11.018289 21.4582355,11.2356878 21.5907367,11.388323 C21.7232379,11.5409581 21.9346034,11.598804 22.1263621,11.5349115 L24.1498495,10.8614086 L22.1188621,12.8929174 Z" id="Shape" fill="#000000"></path>
                <path d="M12.4999221,12.4999157 C12.4134226,12.4999157 10.3814353,12.4694155 9.98343777,10.8789087 C9.91160154,10.6169467 9.64376332,10.4602558 9.38021119,10.5260087 C9.11665907,10.5917615 8.95381093,10.8559031 9.01344382,11.1209097 C9.48544088,13.0029178 11.4999283,13.49992 12.4999221,13.49992 C12.7760627,13.49992 12.999919,13.2760614 12.999919,12.9999178 C12.999919,12.7237743 12.7760627,12.4999157 12.4999221,12.4999157 L12.4999221,12.4999157 Z" id="Path" fill="#000000"></path>
            </g>
        </g>
    </g>
</svg>