<?xml version="1.0" encoding="UTF-8"?>
<svg width="32px" height="32px" viewBox="0 0 32 32" version="1.1" xmlns="http://www.w3.org/2000/svg" xmlns:xlink="http://www.w3.org/1999/xlink">
    <title>Group 29</title>
    <g id="Page-1-V2" stroke="none" stroke-width="1" fill="none" fill-rule="evenodd">
        <g id="My-kryptomon-detail-V2" transform="translate(-585.000000, -1441.000000)">
            <g id="Group-29" transform="translate(585.000000, 1441.000000)">
                <rect id="Rectangle-Copy-20" x="9.09494702e-13" y="0" width="32" height="32" rx="5"></rect>
                <g id="sun" fill-rule="nonzero">
                    <g id="Group" fill="#FFD900">
                        <path d="M14.9333119,3.2 C14.9333119,3.78907042 15.4108652,4.26668813 16,4.26668813 C16.5890704,4.26668813 17.0666881,3.78913481 17.0666881,3.2 L17.0666881,1.06668813 C17.0666881,0.47755332 16.5890704,0 16,0 C15.4108652,0 14.9333119,0.47755332 14.9333119,1.06668813 L14.9333119,3.2 Z" id="Path"></path>
                        <path d="M14.9333119,30.9333119 C14.9333119,31.5224467 15.4108652,32 16,32 C16.5890704,32 17.0666881,31.5224467 17.0666881,30.9333119 L17.0666881,28.8 C17.0666881,28.2109296 16.5891348,27.7333119 16,27.7333119 C15.4108652,27.7333119 14.9333119,28.2108652 14.9333119,28.8 L14.9333119,30.9333119 Z" id="Path"></path>
                        <path d="M28.8,14.9333119 C28.2109296,14.9333119 27.7333119,15.4108652 27.7333119,16 C27.7333119,16.5891348 28.2108652,17.0666881 28.8,17.0666881 L30.9333119,17.0666881 C31.5224467,17.0666881 32,16.5891348 32,16 C32,15.4108652 31.5224467,14.9333119 30.9333119,14.9333119 L28.8,14.9333119 Z" id="Path"></path>
                        <path d="M1.06668813,14.9333119 C0.47755332,14.9333119 0,15.4108652 0,16 C0,16.5891348 0.47755332,17.0666881 1.06668813,17.0666881 L3.2,17.0666881 C3.78907042,17.0666881 4.26668813,16.5891348 4.26668813,16 C4.26668813,15.4108652 3.78913481,14.9333119 3.2,14.9333119 L1.06668813,14.9333119 Z" id="Path"></path>
                        <circle id="Oval" cx="16" cy="16" r="9.6"></circle>
                        <path d="M24.2966922,6.1948008 C23.8801127,6.61138028 23.8801127,7.28672837 24.2966922,7.70330785 C24.7132716,8.11988732 25.3886197,8.11988732 25.8051992,7.70330785 L27.3137062,6.1948008 C27.7302857,5.77822133 27.7302857,5.10287324 27.3137062,4.68629376 C26.8971268,4.26971429 26.2217787,4.26971429 25.8051992,4.68629376 L24.2966922,6.1948008 Z" id="Path"></path>
                        <path d="M4.68629376,25.8051992 C4.26971429,26.2217787 4.26971429,26.8971268 4.68629376,27.3137062 C5.10287324,27.7302857 5.77822133,27.7302857 6.1948008,27.3137062 L7.70330785,25.8051992 C8.11988732,25.3886197 8.11988732,24.7132716 7.70330785,24.2966922 C7.28672837,23.8801127 6.61138028,23.8801127 6.1948008,24.2966922 L4.68629376,25.8051992 Z" id="Path"></path>
                        <path d="M25.8051992,24.2966922 C25.3886197,23.8801127 24.7132716,23.8801127 24.2966922,24.2966922 C23.8801127,24.7132716 23.8801127,25.3886197 24.2966922,25.8051992 L25.8051992,27.3137062 C26.2217787,27.7302857 26.8971268,27.7302857 27.3137062,27.3137062 C27.7302857,26.8971268 27.7302857,26.2217787 27.3137062,25.8051992 L25.8051992,24.2966922 Z" id="Path"></path>
                        <path d="M6.1948008,4.68629376 C5.77822133,4.26971429 5.10287324,4.26971429 4.68629376,4.68629376 C4.26971429,5.10287324 4.26971429,5.77822133 4.68629376,6.1948008 L6.1948008,7.70330785 C6.61138028,8.11988732 7.28672837,8.11988732 7.70330785,7.70330785 C8.11988732,7.28672837 8.11988732,6.61138028 7.70330785,6.1948008 L6.1948008,4.68629376 Z" id="Path"></path>
                    </g>
                    <path d="M11.1019396,4.6578994 C10.9124507,4.6578994 10.7326197,4.54567404 10.6556137,4.35966197 L10.2474044,3.37416499 C10.1453521,3.12775855 10.2623421,2.84529577 10.5087485,2.74324346 C10.7551549,2.64131992 11.0376177,2.7581167 11.13967,3.00458753 L11.5478793,3.99008451 C11.6499316,4.23649095 11.5329416,4.51895372 11.2865352,4.62100604 C11.2261408,4.64598793 11.1635573,4.6578994 11.1019396,4.6578994 L11.1019396,4.6578994 Z" id="Path" fill="#FFA400"></path>
                    <path d="M21.3068491,29.2946801 C21.1173602,29.2946801 20.9375936,29.1824547 20.8605231,28.9964427 L20.4523139,28.0109457 C20.3501972,27.7645392 20.4671871,27.4820765 20.7136579,27.3800241 C20.9600644,27.2779074 21.2425272,27.3948974 21.3445795,27.6413682 L21.7527887,28.6268652 C21.8549054,28.8732716 21.7379155,29.1557344 21.4914447,29.2577867 C21.4310503,29.282833 21.3684024,29.2946801 21.3068491,29.2946801 L21.3068491,29.2946801 Z" id="Path" fill="#FFA400"></path>
                    <path d="M4.17500201,11.5859316 C4.11338431,11.5859316 4.0508008,11.5740845 3.99040644,11.5490382 L3.00490946,11.140829 C2.75850302,11.0387767 2.64151308,10.7563139 2.74356539,10.5099074 C2.84561771,10.263501 3.12820926,10.1463179 3.37448692,10.2485634 L4.3599839,10.6567726 C4.60639034,10.7588249 4.72338028,11.0412877 4.62132797,11.2876942 C4.54432193,11.4736419 4.36449095,11.5859316 4.17500201,11.5859316 Z" id="Path" fill="#FFA400"></path>
                    <path d="M28.8117827,21.7909054 C28.750165,21.7909054 28.6875815,21.7790584 28.6271871,21.7540121 L27.6416901,21.3458028 C27.3952837,21.2437505 27.2782294,20.9612877 27.3804105,20.7148813 C27.4825272,20.4685392 27.7651187,20.3513561 28.011332,20.4535372 L28.996829,20.8617465 C29.2432354,20.9637988 29.3602897,21.2462616 29.258173,21.492668 C29.1811026,21.6785513 29.001336,21.7909054 28.8117827,21.7909054 Z" id="Path" fill="#FFA400"></path>
                    <path d="M3.19098592,21.7909054 C3.00149698,21.7909054 2.821666,21.6786801 2.74465996,21.492668 C2.64260765,21.2462616 2.75966197,20.9637988 3.00600402,20.8617465 L3.99150101,20.4535372 C4.23784306,20.3515493 4.52037022,20.4684105 4.62242254,20.7148813 C4.72447485,20.9612877 4.60748491,21.2437505 4.36107847,21.3458028 L3.37558149,21.7540121 C3.31518712,21.778994 3.25260362,21.7909054 3.19098592,21.7909054 L3.19098592,21.7909054 Z" id="Path" fill="#FFA400"></path>
                    <path d="M27.8277666,11.5859316 C27.6382777,11.5859316 27.4585111,11.4737062 27.3814406,11.2876942 C27.2793239,11.0412877 27.3963139,10.7588249 27.6427847,10.6567726 L28.6282817,10.2485634 C28.8746237,10.1465111 29.1571509,10.263501 29.2592032,10.5099074 C29.3613199,10.7563139 29.24433,11.0387767 28.9978592,11.140829 L28.0123622,11.5490382 C27.9519678,11.5740845 27.8893199,11.5859316 27.8277666,11.5859316 L27.8277666,11.5859316 Z" id="Path" fill="#FFA400"></path>
                    <path d="M10.6959195,29.2946801 C10.6343662,29.2946801 10.5717183,29.282833 10.5113239,29.2577867 C10.2649175,29.1557344 10.1479276,28.8732716 10.2499799,28.6268652 L10.6581891,27.6413682 C10.7601771,27.3950262 11.0427686,27.2777787 11.2891107,27.3800241 C11.5355171,27.4820765 11.652507,27.7645392 11.5504547,28.0109457 L11.1422455,28.9964427 C11.0652394,29.1823903 10.8854085,29.2946801 10.6959195,29.2946801 L10.6959195,29.2946801 Z" id="Path" fill="#FFA400"></path>
                    <path d="M20.900829,4.6578994 C20.8392113,4.6578994 20.7766278,4.64605231 20.7162334,4.62100604 C20.469827,4.51895372 20.3527726,4.23649095 20.4548893,3.99008451 L20.8630986,3.00458753 C20.9652153,2.75824547 21.2478712,2.64106237 21.4940201,2.74324346 C21.7404266,2.84529577 21.8574809,3.12775855 21.7553642,3.37416499 L21.3471549,4.35966197 C21.2701489,4.54560966 21.0903823,4.6578994 20.900829,4.6578994 L20.900829,4.6578994 Z" id="Path" fill="#FFA400"></path>
                    <path d="M16,6.4 C15.7508249,6.4 15.5039034,6.40952918 15.2595573,6.42813682 C20.215501,6.80614889 24.1191147,10.9472193 24.1191147,16 C24.1191147,21.0527807 20.215501,25.1938511 15.2595573,25.5718632 C15.5039034,25.5904708 15.7508249,25.6000644 16,25.6000644 C21.3019557,25.6000644 25.6,21.3020201 25.6,16.0000644 C25.6,10.6981087 21.3019557,6.4 16,6.4 Z" id="Path" fill="#FFBB00"></path>
                    <path d="M3.2,14.9333119 L1.71911469,14.9333119 C2.30818511,14.9333119 2.78580282,15.4108652 2.78580282,16 C2.78580282,16.5890704 2.3082495,17.0666881 1.71911469,17.0666881 L3.2,17.0666881 C3.78907042,17.0666881 4.26668813,16.5891348 4.26668813,16 C4.26668813,15.4109296 3.78907042,14.9333119 3.2,14.9333119 L3.2,14.9333119 Z" id="Path" fill="#FFBB00"></path>
                    <path d="M30.9333119,14.9333119 L29.4524266,14.9333119 C30.0415614,14.9333119 30.5191147,15.4108652 30.5191147,16 C30.5191147,16.5890704 30.0415614,17.0666881 29.4524266,17.0666881 L30.9333119,17.0666881 C31.5224467,17.0666881 32,16.5891348 32,16 C32,15.4109296 31.5224467,14.9333119 30.9333119,14.9333119 Z" id="Path" fill="#FFBB00"></path>
                    <path d="M16,0 C15.7121288,0 15.4514286,0.11454326 15.2595573,0.299847082 C15.4603783,0.493843058 15.5858028,0.765424547 15.5858028,1.06668813 L15.5858028,3.2 C15.5858028,3.50126358 15.4603783,3.77284507 15.2595573,3.96677666 C15.4514286,4.15208048 15.7121288,4.26662374 16,4.26662374 C16.5890704,4.26662374 17.0666881,3.78907042 17.0666881,3.19993561 L17.0666881,1.06668813 C17.0666881,0.47755332 16.5890704,0 16,0 Z" id="Path" fill="#FFBB00"></path>
                    <path d="M16,27.7333119 C15.7121288,27.7333119 15.4514286,27.8478551 15.2595573,28.033159 C15.4603783,28.2271549 15.5858028,28.498672 15.5858028,28.7999356 L15.5858028,30.9332475 C15.5858028,31.2345111 15.4603783,31.5060926 15.2595573,31.7000241 C15.4514286,31.885328 15.7121288,31.9998712 16,31.9998712 C16.5890704,31.9998712 17.0666881,31.5223179 17.0666881,30.9331831 L17.0666881,28.8 C17.0666881,28.2108652 16.5890704,27.7333119 16,27.7333119 L16,27.7333119 Z" id="Path" fill="#FFBB00"></path>
                    <path d="M27.3137062,4.68629376 C26.9015694,4.27415694 26.2365231,4.27048692 25.8190423,4.67380282 C25.8235493,4.67818109 25.8283783,4.68185111 25.8328209,4.68629376 C26.2494004,5.10287324 26.2494004,5.77822133 25.8328209,6.1948008 L24.3243139,7.70330785 C24.3198712,7.7077505 24.3149779,7.71142052 24.3105352,7.71579879 C24.7280805,8.11911469 25.3931268,8.11544467 25.8051992,7.70330785 L27.3137062,6.1948008 C27.7302857,5.77822133 27.7302857,5.10287324 27.3137062,4.68629376 Z" id="Path" fill="#FFBB00"></path>
                    <path d="M27.3137062,25.8051992 L25.8051992,24.2966922 C25.3930624,23.8845553 24.7280161,23.8808853 24.3105352,24.2842012 C24.3150423,24.2885151 24.3198712,24.2922495 24.3243139,24.2966922 L25.8328209,25.8051992 C26.2494004,26.2217787 26.2494004,26.8971268 25.8328209,27.3137062 C25.8283783,27.3181489 25.8234849,27.3218189 25.8190423,27.3261972 C26.2365231,27.7295775 26.9015694,27.7258431 27.3137062,27.3137062 C27.7302857,26.8971268 27.7302857,26.2217787 27.3137062,25.8051992 Z" id="Path" fill="#FFBB00"></path>
                    <path d="M7.70330785,6.1948008 L6.1948008,4.68629376 C5.78317907,4.27467203 5.11935614,4.27055131 4.70174648,4.67238632 C4.70676861,4.67721529 4.71224145,4.68133602 4.71713481,4.68629376 L6.22564185,6.1948008 C6.64222133,6.61138028 6.64222133,7.28672837 6.22564185,7.70330785 C6.2206841,7.70826559 6.21527565,7.71238632 6.21025352,7.71721529 C6.62786318,8.1190503 7.2917505,8.11486519 7.70330785,7.70330785 C8.11982294,7.28672837 8.11982294,6.6113159 7.70330785,6.1948008 Z" id="Path" fill="#FFBB00"></path>
                    <path d="M7.70330785,24.2966922 C7.29168612,23.8850704 6.62786318,23.8809497 6.21025352,24.2827847 C6.21527565,24.2876137 6.2206841,24.2917344 6.22564185,24.2966922 C6.64222133,24.7132716 6.64222133,25.3886197 6.22564185,25.8051992 L4.71713481,27.3137062 C4.71217706,27.318664 4.70676861,27.3227847 4.70174648,27.3276137 C5.11935614,27.7294487 5.78324346,27.7252636 6.1948008,27.3137062 L7.70330785,25.8051992 C8.11982294,25.3886197 8.11982294,24.7132716 7.70330785,24.2966922 Z" id="Path" fill="#FFBB00"></path>
                </g>
            </g>
        </g>
    </g>
</svg>