<?xml version="1.0" encoding="UTF-8"?>
<svg width="31px" height="28px" viewBox="0 0 31 28" version="1.1" xmlns="http://www.w3.org/2000/svg" xmlns:xlink="http://www.w3.org/1999/xlink">
    <title>self-love</title>
    <g id="Page-1-V4" stroke="none" stroke-width="1" fill="none" fill-rule="evenodd">
        <g id="Kryptomon-detail-PDP" transform="translate(-584.000000, -1297.000000)" fill-rule="nonzero">
            <g id="self-love" transform="translate(584.000000, 1297.000000)">
                <path d="M27.5753907,2.24369235 C24.5048369,-0.267398619 20.0140251,0.148155125 17.2276357,2.98137189 L15.5000968,4.73701482 L13.7725579,2.98079872 C10.9861685,0.148155125 6.49535677,-0.267971796 3.42480299,2.24311917 C-0.191526787,5.2001423 -0.404086239,10.5943165 2.78656081,13.8379284 L14.6329445,25.8809625 C15.1116261,26.3675903 15.8885676,26.3675903 16.3672492,25.8809625 L28.2136329,13.8379284 C31.4048437,10.5943165 31.1922843,5.20071548 27.5753907,2.24369235 Z" id="Path" fill="#FB5058"></path>
                <path d="M26.095368,21.0771612 C21.6039924,23.5584469 14.0871685,22.448202 10.7104614,18.7724142 L10.9337334,17.7785242 C11.1321974,16.896404 11.1575693,15.9827589 11.0087213,15.0903214 L10.8345014,14.0448455 C10.7437267,13.4991805 10.2898531,13.0927975 9.74633236,13.0698704 C9.14417455,13.0440775 8.6243342,13.4951682 8.55385692,14.1038828 L8.3452442,15.9053799 C7.98891111,15.427923 7.24861785,14.2643725 6.66844895,13.3369712 C5.9721335,12.222714 4.59359806,11.6524023 3.38589953,12.1367373 C2.50972609,12.4880952 1.89685573,13.2475555 1.5670221,14.4443503 C1.38039828,15.1224194 1.43621628,15.8469158 1.73503992,16.4819966 C3.0932779,19.369092 6.90638022,24.3511515 12.6652191,26.4220421 C18.9162712,28.6700446 27.2218767,27.2262103 26.095368,21.0771612 L26.095368,21.0771612 Z" id="Path" fill="#FFC588"></path>
                <path d="M4.9048257,21.0771612 C9.39620128,23.5584469 16.9130252,22.448202 20.2897322,18.7724142 L20.0664602,17.7785242 C19.8679962,16.896404 19.8426244,15.9827589 19.9914724,15.0903214 L20.1656922,14.0448455 C20.256467,13.4991805 20.7103406,13.0927975 21.2538613,13.0698704 C21.8560191,13.0440775 22.3758595,13.4951682 22.4463368,14.1038828 L22.6549495,15.9053799 C23.0112826,15.427923 23.7515758,14.2643725 24.3317447,13.3369712 C25.0280602,12.222714 26.4065956,11.6524023 27.6142941,12.1367373 C28.4904676,12.4880952 29.1033379,13.2475555 29.4331716,14.4443503 C29.6197954,15.1224194 29.5639774,15.8469158 29.2651538,16.4819966 C27.9069158,19.369092 24.0938135,24.3511515 18.3349746,26.4220421 C12.0839225,28.6700446 3.77831698,27.2262103 4.9048257,21.0771612 L4.9048257,21.0771612 Z" id="Path" fill="#FFDBAA"></path>
                <path d="M29.5115423,13.1409445 C31.983885,9.57979217 31.3219625,4.57537874 27.9300323,1.79833337 C24.6649613,-0.869235076 19.8911128,-0.535072548 16.8261972,2.57441581 L15.5000968,3.92654172 L14.1728689,2.57326946 C11.1079533,-0.535072548 6.33523241,-0.868088721 3.06903372,1.79890655 C-0.321768785,4.57537874 -0.983691322,9.57979217 1.48808756,13.1409445 C1.29977229,13.4791192 1.14246702,13.859136 1.02462902,14.2895923 C0.801357019,15.1080899 0.873525746,15.9747344 1.22816738,16.7301825 C1.90080246,18.1625532 3.01941772,19.8012679 4.31281661,21.2645903 C4.04387534,23.177857 4.60825734,24.8131327 5.97551641,26.0013298 C7.48880439,27.3167723 9.92900945,28 12.6347729,28 C13.5752216,28 14.5478079,27.9163161 15.5249048,27.7495214 C16.5222992,27.9163161 17.4982684,28 18.4302599,28 C21.3846671,28 23.9105726,27.1809292 25.369734,25.6746186 C26.4855302,24.5231048 26.9320742,23.0018915 26.6873771,21.2663098 C28.1747294,19.5868995 29.211591,17.9246845 29.7737178,16.7301825 C30.129487,15.9741612 30.2016557,15.1075167 29.9761285,14.2907387 C29.8577267,13.8597091 29.6998576,13.4796924 29.5115423,13.1409445 Z M3.77662553,2.69191722 C6.59233349,0.391755596 10.7200464,0.688661581 13.37563,3.38374255 L15.1009136,5.14339772 C15.3123454,5.35891249 15.6878483,5.35891249 15.8998439,5.14339772 L17.6234361,3.38488891 C20.2807111,0.688661581 24.4072964,0.390609241 27.2235681,2.69191722 C30.0646479,5.01844501 30.6949966,9.15678712 28.7813978,12.2072382 C28.4994887,11.9527473 28.1814952,11.748123 27.8217792,11.6042554 C26.3953192,11.031651 24.7298004,11.6329143 23.856446,13.0303212 C23.5514204,13.5180953 23.2774047,13.9508444 23.0394735,14.3199707 L23.006772,14.0373942 C22.9052847,13.1604325 22.1633,12.4961197 21.3017859,12.4961197 C21.2786693,12.4961197 21.2549889,12.4966929 21.2307448,12.4978392 C20.4261762,12.5316567 19.7445201,13.142664 19.6097675,13.949698 L19.4355477,14.9951739 C19.2737319,15.9655636 19.3007952,16.9451241 19.5173013,17.9063428 L19.6717875,18.5964487 C18.6027883,19.6688639 17.1255846,20.4913737 15.4797994,21.0399047 C13.7787599,20.4638612 12.3517361,19.6253024 11.3300976,18.5941559 L11.4828923,17.9051965 C11.6993985,16.9365264 11.725898,15.9563927 11.5629545,14.9968935 L11.3921176,13.946259 C11.248344,13.1289077 10.5802194,12.5345226 9.74351327,12.4995588 L9.68713145,12.4995588 C8.82223437,12.4995588 8.09434511,13.1610057 7.99398548,14.0373942 L7.96128402,14.3205439 C7.68388548,13.8895144 7.39239148,13.4263869 7.14600294,13.0280285 C6.26870186,11.6317679 4.59923625,11.0339437 3.17728681,11.6054017 C2.81813463,11.7492693 2.500705,11.9527473 2.21935973,12.206665 C0.305760844,9.15621394 0.935545745,5.01787183 3.77662553,2.69191722 Z M2.11110664,14.5968155 C2.38737755,13.5891693 2.87113354,12.9598204 3.59056553,12.6720852 C4.49605752,12.3063979 5.61692805,12.7259639 6.19315023,13.6419017 C6.74343676,14.5303269 7.51925057,15.7460366 7.89588111,16.251006 C8.0351442,16.4372887 8.27251165,16.5209726 8.49296456,16.4573499 C8.71510892,16.3960199 8.87805237,16.2034323 8.90455183,15.9712953 L9.11316455,14.1703714 C9.14755746,13.8717459 9.393946,13.6459139 9.68656764,13.6459139 L9.71983291,13.6453407 C10.0006144,13.6573775 10.2317798,13.8637214 10.2802682,14.1405662 L10.4499774,15.1883348 C10.5886767,16.0028201 10.566124,16.8316349 10.3823193,17.6524252 L10.1624302,18.6440224 C10.1218353,18.8285856 10.1731427,19.0217464 10.299438,19.1604554 C11.1564416,20.0981739 12.2919714,20.8994762 13.629912,21.5276788 C10.7093338,22.1002832 7.54856912,21.8498046 5.24819096,20.6100215 C3.98241916,19.1977119 2.89030336,17.6094369 2.24529537,16.2361034 C2.00849173,15.7305608 1.96056719,15.1482123 2.11110664,14.5968155 Z M24.5662931,24.8704504 C23.3958066,26.0781356 21.2961477,26.7688146 18.8294432,26.8404618 C21.5752377,25.7926931 23.8468611,24.1362099 25.6234522,22.3828597 C25.5777829,23.352103 25.2276518,24.1872228 24.5662931,24.8704504 L24.5662931,24.8704504 Z M28.7565898,16.2355302 C27.5302852,18.8423418 23.9156469,23.8077792 18.1472232,25.882682 C13.8830663,27.4165052 8.96600801,27.0926599 6.70848004,25.130673 C5.76013787,24.3064437 5.31190242,23.2374675 5.36997569,21.9460984 C10.1302925,24.0645627 17.341527,22.8213406 20.7007557,19.1644676 C20.8287424,19.0251855 20.8800499,18.8308783 20.8383273,18.6457419 L20.6150553,17.651852 C20.4323782,16.8379398 20.4092617,16.0085519 20.5468333,15.1871884 L20.7210531,14.1417125 C20.7667224,13.8648677 21.000707,13.6550848 21.2769779,13.6436212 C21.5662166,13.6315845 21.8503809,13.862575 21.8859015,14.1715178 L22.0945142,15.9735881 C22.1215775,16.205725 22.2845209,16.3983126 22.5061015,16.4596426 C22.7265544,16.5209726 22.9639218,16.4395814 23.1037487,16.2532987 C23.4764326,15.7534879 24.2358956,14.5589858 24.8070434,13.6459139 C25.3827018,12.7259639 26.5035723,12.3081174 27.4068091,12.671512 C28.1268049,12.9598204 28.6122523,13.5908889 28.8902147,14.6002546 C29.0424456,15.1493587 28.994521,15.7299876 28.7565898,16.2355302 L28.7565898,16.2355302 Z" id="Shape" fill="#000000"></path>
            </g>
        </g>
    </g>
</svg>