<?xml version="1.0" encoding="UTF-8"?>
<svg width="32px" height="32px" viewBox="0 0 32 32" version="1.1" xmlns="http://www.w3.org/2000/svg" xmlns:xlink="http://www.w3.org/1999/xlink">
    <title>Group 28</title>
    <g id="Page-1-V2" stroke="none" stroke-width="1" fill="none" fill-rule="evenodd">
        <g id="My-kryptomon-detail-V2" transform="translate(-584.000000, -1364.000000)">
            <g id="Group-28" transform="translate(584.000000, 1364.000000)">
                <rect id="Rectangle-Copy-19" x="9.09494702e-13" y="0" width="32" height="32" rx="5"></rect>
                <g id="shield" fill-rule="nonzero">
                    <g id="Group" transform="translate(0.468691, 24.369268)" fill="#B32425">
                        <path d="M7.22754483,2.32059571 C5.98674609,3.0079309 5.44843956,3.62591119 5.44843956,3.62591119 L3.55821053,0 L3.55821053,0 L0,2.39145695 L2.86434323,3.97350157 L2.86434323,7.15999776 L8.07116047,4.07304623 L7.23810721,2.32731153 L7.22754483,2.32059571 Z" id="Path"></path>
                        <path d="M23.8349231,2.32059571 C25.0757219,3.0079309 25.6140284,3.62591119 25.6140284,3.62591119 L27.5042574,0 L27.5042574,0 L31.0625304,2.39151972 L28.1981872,3.97356433 L28.1981872,7.16006053 L22.99137,4.073109 L23.8244232,2.32737429 L23.8349231,2.32059571 Z" id="Path"></path>
                    </g>
                    <g id="Group" transform="translate(5.917130, 26.696265)" fill="#8C1E23">
                        <path d="M1.78966765,0.000251058417 C1.78966765,0.000251058417 1.78154274,0 1.76766789,0 C0.535119064,0.684761833 0,1.29885072 0,1.29885072 L2.62259591,1.745923 L1.78966765,0.000251058417 Z" id="Path"></path>
                        <path d="M18.3759212,0.000251058417 C18.3759212,0.000251058417 18.3840461,0 18.3979209,0 C19.6304698,0.684761833 20.1655888,1.29885072 20.1655888,1.29885072 L17.5429929,1.745923 L18.3759212,0.000251058417 Z" id="Path"></path>
                    </g>
                    <g id="Group" transform="translate(3.333034, 20.881439)" fill="#E93234">
                        <path d="M3.14946506,0 C0.937302103,1.05356665 0,2.15671733 0,2.15671733 L2.58415884,7.11374025 C2.58415884,7.11374025 3.71177133,5.81840435 6.46842825,4.89237538 C5.06781879,3.40623508 3.9849558,1.73318178 3.14946506,0 Z" id="Path"></path>
                        <path d="M22.1843789,0 C21.3488257,1.73318178 20.2660252,3.40617231 18.8654157,4.89237538 C21.6220727,5.81840435 22.7496852,7.11374025 22.7496852,7.11374025 L25.333844,2.15671733 C25.333844,2.15671733 24.3964794,1.05350388 22.1843789,0 Z" id="Path"></path>
                    </g>
                    <path d="M15.9998933,29.9663641 C30.1281741,24.3223825 28.1730707,5.254433 28.1730707,5.254433 C20.7874027,4.48933247 15.9998933,0.470514856 15.9998933,0.470514856 C15.9998933,0.470514856 11.2123839,4.48933247 3.82677831,5.254433 C3.82677831,5.254433 1.87167499,24.3223825 15.9998933,29.9663641 Z" id="Path" fill="#F5BA3D"></path>
                    <g id="Group" transform="translate(5.252887, 20.881439)" fill="#B32425">
                        <path d="M20.2645252,0 C19.428972,1.73318178 18.3461715,3.40617231 16.945562,4.89237538 C17.3603699,5.0317128 17.7376157,5.17946068 18.0803619,5.32990743 C19.5034087,3.92316436 20.6197713,2.32812747 21.4941366,0.660911283 C21.1383905,0.445503161 20.7299576,0.221684582 20.2645252,0 Z" id="Path"></path>
                        <path d="M1.22961136,0 C2.06516459,1.73318178 3.14796508,3.40617231 4.54857455,4.89237538 C4.13376665,5.0317128 3.75652083,5.17946068 3.41377463,5.32990743 C1.99072792,3.92316436 0.874365301,2.32812747 0,0.660911283 C0.355683555,0.445503161 0.764054025,0.221684582 1.22961136,0 Z" id="Path"></path>
                    </g>
                    <path d="M28.1730707,5.254433 C27.6632014,5.2015852 27.1661444,5.13279519 26.6817748,5.05132674 C26.8371481,9.43505776 26.4347775,23.9481172 14.8555935,29.4629292 C15.2250269,29.640553 15.6058351,29.8089504 15.9999558,29.9663641 C30.1281741,24.3223825 28.1730707,5.254433 28.1730707,5.254433 Z" id="Path" fill="#EF9325"></path>
                    <path d="M15.9998933,26.4531781 C26.7625239,22.1536772 25.2731654,7.6280648 25.2731654,7.6280648 C19.6469153,7.04523269 15.9998933,3.98370082 15.9998933,3.98370082 C15.9998933,3.98370082 12.3528712,7.04516992 6.72662114,7.6280648 C6.72662114,7.6280648 5.23726266,22.1536772 15.9998933,26.4531781 Z" id="Path" fill="#FFDB57"></path>
                    <path d="M14.7448447,18.9653608 C14.4338482,18.9653608 14.135539,18.8412752 13.9156039,18.6204693 L11.248446,15.9419898 C10.7904511,15.4820508 10.7904511,14.7364073 11.248446,14.276531 C11.7064409,13.816592 12.4488702,13.816592 12.9068026,14.276531 L14.7447822,16.1223125 L19.2499197,11.5980516 C19.7079146,11.1381125 20.4504064,11.1380498 20.9082763,11.5979888 C21.3662713,12.0579278 21.3662713,12.8035713 20.9082763,13.2634476 L15.5739605,18.6203438 C15.3541504,18.8412752 15.0557788,18.9653608 14.7448447,18.9653608 Z" id="Path" fill="#00B76C"></path>
                    <path d="M31.7917806,26.3696384 L28.5831912,24.2131094 L29.0819357,23.2563885 C29.1706847,23.0861709 29.1474974,22.8788594 29.0232488,22.7326806 C28.9849992,22.6875529 28.1166339,21.6818129 26.1377808,20.6640221 C26.8455855,19.1166235 27.4152667,17.424427 27.8407619,15.6013035 C29.1212477,10.114924 28.6595029,5.40412658 28.6391906,5.20629254 C28.6164408,4.9845452 28.4419428,4.80924366 28.2211327,4.78639734 C24.4914241,4.40001844 21.4515203,3.15087728 19.5582288,2.17112181 C17.5001266,1.10606924 16.3119523,0.119095837 16.3004524,0.109492852 C16.1264544,-0.0364976174 15.8732697,-0.0364976174 15.6993966,0.109492852 C15.6525846,0.148783494 10.9390119,4.04464525 3.77865384,4.78646011 C3.55784379,4.80936919 3.38334573,4.98460796 3.36059598,5.20635531 C3.35147108,5.29516722 3.14041092,7.41585767 3.37815828,10.4723056 C3.39834556,10.7313979 3.62321807,10.9253405 3.8817777,10.9048165 C4.13983734,10.8846063 4.3326477,10.6580888 4.31252292,10.3990593 C4.13864985,8.16332135 4.21458651,6.41369524 4.26333597,5.67916107 C7.97385731,5.23277921 10.9938238,3.98206894 12.8980527,2.99371471 C14.4500355,2.18819378 15.5130237,1.4368387 15.9998933,1.06815942 C16.4866379,1.4368387 17.5497511,2.18819378 19.1016714,2.99371471 C21.0059627,3.98206894 24.0258043,5.23271644 27.7362631,5.67916107 C27.8168247,6.89924222 27.970323,10.9220768 26.9282721,15.3866486 C26.4768396,17.3207399 25.8586589,19.0989239 25.082105,20.7039403 C25.0603553,20.7488798 25.0381055,20.7931916 25.0161058,20.8377545 C24.9681688,20.9351024 24.9197318,21.0317599 24.8706074,21.1277897 C24.8429202,21.1818928 24.815233,21.2359331 24.7871708,21.2896596 C24.7350464,21.3893926 24.6821095,21.4882468 24.6287351,21.5865362 C24.5841731,21.6685068 24.5390486,21.7497869 24.4936741,21.8307533 C24.4529245,21.9034347 24.4119875,21.9759278 24.3706129,22.0477305 C24.3289259,22.1199098 24.2868014,22.1916498 24.2444268,22.2630131 C24.2138647,22.3145429 24.182865,22.3655077 24.1519279,22.4165353 C24.051929,22.581418 23.9502426,22.7443549 23.8463062,22.9047812 C23.8386813,22.9165182 23.8313064,22.9284434 23.8236815,22.9401804 C23.7695571,23.0232808 23.7147452,23.1053141 23.6596208,23.1871591 C23.6359961,23.2222446 23.6122463,23.2572672 23.5883716,23.2921016 C23.2626252,23.768987 22.919379,24.2249719 22.559008,24.6582987 C22.5569455,24.6608093 22.5548831,24.6633199 22.5528206,24.6658305 C22.4830089,24.749684 22.4124471,24.8324705 22.3413854,24.9146921 C22.2853861,24.9792769 22.2288242,25.0430457 22.1720123,25.106689 C22.1605749,25.119493 22.1492626,25.1325481 22.1378252,25.1452893 C22.0736384,25.2167154 22.0089516,25.2874511 21.9437023,25.3576219 C21.9403899,25.3611995 21.9370774,25.3648399 21.9337025,25.3684174 C20.2795958,27.1445302 18.2921179,28.515623 15.9999558,29.4589122 C13.7557307,28.5345779 11.243321,26.9529726 9.11234468,24.2499522 C9.10553225,24.2412907 9.09871983,24.2325664 9.0919074,24.2239049 C9.04897038,24.1692369 9.00640835,24.113753 8.96384633,24.0582063 C8.18654245,23.0369007 7.4966751,21.9053804 6.90424417,20.6764494 C6.89043182,20.647766 6.87399451,20.6211538 6.85549471,20.5966756 C5.78213162,18.353657 4.94870336,15.6166181 4.50845825,12.2750306 C4.47452112,12.0173819 4.23833624,11.8360549 3.98246408,11.8702616 C3.72590443,11.9043428 3.54540643,12.1409026 3.57934355,12.3984885 C3.98327657,15.4642884 4.74983057,18.2351574 5.86213073,20.6640221 C3.88309018,21.6819384 3.01478731,22.6876784 2.97647524,22.7327434 C2.85228912,22.8789222 2.82910187,23.0862337 2.91772589,23.2564513 L3.41647036,24.2131721 L0.207943449,26.3697012 C0.0720074572,26.4611492 -0.00667916995,26.6171192 0.000445751018,26.7812487 C0.00757067199,26.9453781 0.0993821536,27.0938792 0.242818063,27.1731509 L2.86435148,28.6211303 L2.86435148,31.5293282 C2.86435148,31.6982278 2.95453798,31.8541978 3.10059886,31.9379886 C3.17266056,31.9792877 3.25278467,32 3.33297129,32 C3.41534537,32 3.49778196,31.9780952 3.57121864,31.9345365 L8.77803589,28.847585 C8.78128585,28.8456393 8.78416082,28.8434425 8.78734828,28.8414341 C8.79266072,28.8381075 8.79784817,28.8346555 8.80303561,28.8311407 C8.81234801,28.8248014 8.82134791,28.8181484 8.83009781,28.8112443 C8.83434776,28.807855 8.83866021,28.8045285 8.84278517,28.8010136 C8.85378505,28.7916617 8.86422243,28.7818704 8.87422232,28.7717026 C8.8758473,28.7700707 8.87753478,28.7686271 8.87909727,28.7669325 C8.89122213,28.7541913 8.90247201,28.7408224 8.91297189,28.7269514 C8.91328439,28.7265121 8.91372188,28.7261355 8.91409688,28.7256334 C8.91490937,28.7245036 8.91553436,28.7232483 8.91634685,28.7221185 C8.92709673,28.7074944 8.93684662,28.6923681 8.94578403,28.676677 C8.94765901,28.6733504 8.94965898,28.6700867 8.95147146,28.6667602 C8.96053386,28.6499392 8.96872127,28.6327417 8.97565869,28.6150421 C8.97684618,28.6120294 8.97778367,28.608954 8.97890866,28.6058785 C8.9845336,28.5905639 8.98934604,28.5749983 8.9934085,28.5592444 C8.99447099,28.5550392 8.99565847,28.5508967 8.99659596,28.5466915 C9.00078342,28.5283014 9.00397088,28.5097859 9.00597086,28.4909565 C9.00622086,28.4884459 9.00628335,28.4859353 9.00647085,28.483362 C9.00797084,28.4664155 9.00847083,28.4494063 9.00809583,28.4323344 C9.00803334,28.428443 9.00797084,28.4245516 9.00784584,28.4206601 C9.00697085,28.4013914 9.00515837,28.3820599 9.0019084,28.3628539 C9.00165841,28.3615359 9.00128341,28.3602178 9.00103341,28.358837 C8.99790845,28.3413257 8.9935335,28.3240027 8.98834605,28.3067424 C8.98697107,28.3022233 8.98559608,28.2977671 8.9841586,28.2933108 C8.97803367,28.2749207 8.97115874,28.2566562 8.96259634,28.2387683 L8.32066596,26.8935346 C8.70597419,26.7006589 9.1556567,26.5028877 9.67315096,26.3166023 C11.4028193,28.0895769 13.4599215,29.4580335 15.8268952,30.4035823 C15.8825821,30.425801 15.9412689,30.4369103 16.0000808,30.4369103 C16.0588926,30.4369103 16.117642,30.425801 16.1732664,30.4035823 C18.5360526,29.4596654 20.5963423,28.0899534 22.3271981,26.3167278 C22.8446299,26.5030132 23.2942499,26.7007217 23.6794956,26.8935973 L23.0375652,28.2388311 C23.0290028,28.256719 23.0221279,28.2750463 23.016003,28.2934363 C23.014503,28.2978926 23.013128,28.3023489 23.0118155,28.3068679 C23.0066281,28.3241282 23.0022531,28.341514 22.9991281,28.3590253 C22.9988781,28.3603434 22.9985031,28.3616614 22.9983156,28.3629795 C22.9950657,28.3821854 22.9932532,28.4015169 22.9923782,28.4207857 C22.9921907,28.4247398 22.9921907,28.4286313 22.9921282,28.4325227 C22.9918157,28.4495946 22.9922532,28.4666038 22.9937532,28.4835503 C22.9940032,28.4860609 22.9940032,28.4886342 22.9942532,28.4911448 C22.9961907,28.5099114 22.9994406,28.5284897 23.0036281,28.546817 C23.0045656,28.551085 23.0057531,28.5552275 23.0068781,28.5594327 C23.010878,28.5751866 23.0156905,28.5906895 23.0213154,28.6059413 C23.0224404,28.6090167 23.0233779,28.612155 23.0245654,28.6152304 C23.0315028,28.63293 23.0396277,28.6500648 23.0486901,28.6668229 C23.0505026,28.6702122 23.0525025,28.6735387 23.05444,28.6768653 C23.0633774,28.6924309 23.0730648,28.7076199 23.0837522,28.7221185 C23.0846272,28.7232483 23.0851897,28.7245664 23.0860647,28.7256961 C23.0864397,28.7261355 23.0868147,28.7265748 23.0871897,28.7270142 C23.0976895,28.7408852 23.1089394,28.754254 23.1210643,28.7669952 C23.1226268,28.7686899 23.1243143,28.7701335 23.1259392,28.7717653 C23.1358766,28.7819332 23.1463765,28.7917245 23.1573764,28.8010764 C23.1615013,28.8045912 23.1658138,28.8079178 23.1700637,28.811307 C23.1788136,28.8182111 23.1878135,28.8248642 23.1971259,28.8312034 C23.2023134,28.8347182 23.2075008,28.8382331 23.2127508,28.8414968 C23.2159382,28.8435053 23.2188132,28.845702 23.2220632,28.8476477 L28.4288179,31.9345993 C28.5022546,31.9781579 28.5845662,32 28.6670653,32 C28.7471894,32 28.827376,31.9793504 28.8994377,31.9380513 C29.0454986,31.8542606 29.1356851,31.6982905 29.1356851,31.529391 L29.1356851,28.6211303 L31.7572185,27.1731509 C31.9005919,27.0939419 31.9924659,26.9454409 31.9995908,26.7812487 C32.0064032,26.6170565 31.9277791,26.4610864 31.7917806,26.3696384 Z M7.01493044,27.6747656 C7.03918017,27.6572543 7.06336741,27.6398057 7.08886712,27.621855 C7.10449195,27.6108085 7.12117927,27.5995108 7.13730409,27.5883387 C7.1634288,27.5702625 7.18930351,27.5522491 7.21661571,27.5337335 C7.23311552,27.5226242 7.25067783,27.5111383 7.26767764,27.4998406 C7.29636482,27.4806974 7.32473951,27.4617425 7.35473917,27.4422227 C7.36548906,27.4352559 7.37711393,27.4281007 7.3880513,27.4210711 C7.42180093,27.3993545 7.45586305,27.377638 7.49117516,27.3555448 C7.49386263,27.3538502 7.4968001,27.3521555 7.49948757,27.3504609 L7.72648505,27.8261538 L6.98130582,27.6991183 C6.9921182,27.6911472 7.00361807,27.682925 7.01493044,27.6747656 Z M3.55884378,27.9304058 L1.36974306,26.7213085 L3.85384051,25.0518328 L5.50200973,28.2134742 C5.51107213,28.23086 5.52119701,28.2474926 5.53219689,28.263372 C5.53650934,28.2695857 5.54157179,28.2751718 5.54613424,28.2811344 C5.55338416,28.2906119 5.56050908,28.3002776 5.56844649,28.3090647 C5.5763214,28.3178517 5.58494631,28.3258228 5.59338371,28.3339822 C5.59869615,28.3390662 5.6036961,28.3444639 5.60925854,28.349234 C5.61963342,28.3583349 5.6306958,28.3666198 5.64188317,28.3747792 C5.64594563,28.3777292 5.64988309,28.3808674 5.65400804,28.3836918 C5.6665079,28.3922278 5.67957026,28.3998851 5.69288261,28.4072285 C5.69600757,28.4089232 5.69907004,28.4107433 5.7022575,28.4123752 C5.71650735,28.4197814 5.73113218,28.426309 5.74619452,28.4322088 C5.74869449,28.4332131 5.75119446,28.4342173 5.75375693,28.4351588 C5.76931926,28.4409959 5.78519408,28.4459543 5.8014439,28.4501595 C5.80369388,28.4507244 5.80600635,28.4512893 5.80831883,28.4517914 C5.81850621,28.4542392 5.8284436,28.4573774 5.83888099,28.4591348 L7.1987409,28.6909245 L3.80177859,30.7049779 L3.80177859,28.342832 C3.80165359,28.1711708 3.70859212,28.0131923 3.55884378,27.9304058 Z M8.9839711,25.5703312 C8.39935259,25.7991709 7.89885814,26.0408146 7.47398785,26.2759309 C7.47267537,26.276684 7.47123788,26.2770606 7.4699254,26.2778138 C7.46592544,26.2800106 7.46211298,26.2822073 7.45811303,26.2844668 C7.45805053,26.2844668 7.45805053,26.2844668 7.45798803,26.2845296 C7.45642555,26.2854083 7.45492556,26.286287 7.45330058,26.2871657 C7.4334258,26.2982123 7.41398852,26.3091961 7.39448873,26.3202427 C7.35817664,26.3407039 7.32261453,26.3611024 7.28755242,26.3814382 C7.26667765,26.3935517 7.24574038,26.4056025 7.22530311,26.4176533 C7.22299064,26.4190342 7.22074066,26.4203522 7.21842819,26.421733 C7.21524072,26.423616 7.21217826,26.4254989 7.20899079,26.4273191 C7.15267892,26.4605843 7.09817952,26.493473 7.04493011,26.5261733 C7.0367427,26.5311945 7.0282428,26.5363412 7.02011789,26.5413624 C6.98780574,26.5613843 6.95636859,26.5811551 6.92518144,26.600926 C6.91849401,26.6051312 6.91199409,26.6093364 6.90536916,26.6135417 C6.90455667,26.6140438 6.90380668,26.6145459 6.90299419,26.615048 C6.54262318,26.8450803 6.25900133,27.0582289 6.04850366,27.2326517 L4.51539567,24.2918162 L3.90621493,23.1230765 C4.24739864,22.799776 5.00464024,22.1645354 6.2710012,21.5110932 C6.31956316,21.6066209 6.36868761,21.7013954 6.41843706,21.7957306 C6.44368678,21.84362 6.46949899,21.8910073 6.49506121,21.9385829 C6.55974799,22.0590909 6.62518477,22.1788458 6.69180903,22.2974081 C6.70662136,22.323832 6.72068371,22.3509463 6.73555854,22.3772447 C7.23617799,23.2606565 7.78823437,24.0846302 8.3891027,24.849668 C8.40297755,24.8673676 8.41685239,24.8850672 8.43078974,24.9027041 C8.4796017,24.9644017 8.52866365,25.0257855 8.5781631,25.0866671 C8.60360032,25.1179867 8.62922504,25.1490551 8.65478725,25.1801864 C8.69834927,25.233097 8.74178629,25.2860703 8.7857233,25.3383532 C8.85122257,25.4163696 8.91734684,25.4937584 8.9839711,25.5703312 Z M24.4079875,27.5445918 L24.5006115,27.3505864 C24.5033615,27.3522811 24.5062364,27.3540385 24.5089864,27.3557331 C24.544236,27.3777007 24.5780481,27.3993545 24.6116103,27.4209455 C24.6226726,27.4280379 24.634485,27.4353186 24.6454224,27.442411 C24.675547,27.4619308 24.7039842,27.4810113 24.7327339,27.5002172 C24.7495462,27.5113893 24.767046,27.5228125 24.7834208,27.5338591 C24.8107955,27.5523746 24.8367328,27.5704508 24.86292,27.5885898 C24.8790448,27.5997619 24.8956696,27.6110595 24.9112944,27.6221061 C24.9362942,27.6397429 24.9600439,27.6568149 24.9838561,27.6740124 C24.995606,27.6824856 25.0076059,27.6910844 25.0190432,27.6994321 L24.273864,27.8264676 L24.4079875,27.5445918 Z M23.0190654,25.5666281 C23.0595025,25.520245 23.099252,25.4731088 23.1391266,25.4262864 C23.1634388,25.3977285 23.1879385,25.3695472 23.2121258,25.3408638 C23.2731876,25.2683707 23.3335619,25.1951871 23.3936863,25.121627 C23.3957487,25.1191164 23.3978112,25.1166686 23.3998112,25.114158 C23.6932454,24.7543913 23.9756173,24.3813185 24.2459893,23.9944375 C24.2818639,23.943096 24.3163635,23.890311 24.3517381,23.8385302 C24.3948002,23.7756401 24.4377997,23.7127499 24.4801742,23.6491694 C24.5277362,23.5778688 24.5748607,23.5061289 24.6216101,23.4339496 C24.6593597,23.3758295 24.6966093,23.3172074 24.7337964,23.2585225 C24.7957957,23.1608608 24.8571075,23.0625714 24.9177319,22.9633406 C24.9587939,22.8961197 24.999481,22.828585 25.0398555,22.7607364 C25.08723,22.6811509 25.1342295,22.6013143 25.1806664,22.5207873 C25.2329159,22.4303435 25.2845403,22.3393976 25.3356647,22.2478241 C25.3637269,22.1974241 25.3919766,22.1472124 25.4197263,22.0964359 C25.486663,21.9742332 25.5524123,21.850838 25.6173491,21.7266268 C25.6394114,21.6843862 25.6612861,21.6420201 25.6831609,21.5995912 C25.6983482,21.5700919 25.713848,21.5408436 25.7289104,21.5112187 C26.9863964,22.1610206 27.7492005,22.7999015 28.0931341,23.1242062 L25.9513454,27.2327145 C25.7407852,27.0582916 25.4571634,26.8450803 25.0966674,26.615048 C25.0959174,26.6145459 25.0952299,26.6141065 25.0944799,26.6136044 C25.0879175,26.6093992 25.081355,26.605194 25.0747301,26.6009887 C25.0436055,26.5812179 25.0121683,26.561447 24.9799187,26.5414879 C24.9697313,26.5352114 24.9590439,26.5287467 24.9487315,26.5224702 C24.8974821,26.4909624 24.8450452,26.459329 24.7909208,26.4273191 C24.7877333,26.4254361 24.7846708,26.4235532 24.7814834,26.421733 C24.7791709,26.4203522 24.7769209,26.4190342 24.7746084,26.4176533 C24.7541712,26.4056025 24.7331714,26.3935517 24.7123591,26.3814382 C24.6772345,26.3611024 24.6416724,26.3407667 24.6054228,26.3202427 C24.585923,26.3092589 24.5664233,26.2982123 24.546611,26.2871657 C24.5450485,26.286287 24.5435485,26.2854083 24.5419235,26.2845296 C24.541861,26.2845296 24.541861,26.2844668 24.541861,26.2844668 C24.5378611,26.2822701 24.5340486,26.2800733 24.5300487,26.2778138 C24.5287362,26.2770606 24.5272987,26.2766213 24.5259862,26.2758681 C24.1011159,26.0407519 23.6006215,25.7990454 23.016003,25.5702684 C23.0169404,25.5690759 23.0180029,25.5678206 23.0190654,25.5666281 Z M28.4410053,27.9304058 C28.2913194,28.0131296 28.1981955,28.1711708 28.1981955,28.3427693 L28.1981955,30.7049152 L24.8012332,28.6908618 L26.1610931,28.4590721 C26.1660305,28.4582561 26.170718,28.4565615 26.1755929,28.4555573 C26.1871553,28.4531722 26.1985927,28.4504733 26.209905,28.4472723 C26.2180924,28.44495 26.2262173,28.4424395 26.2342173,28.4396778 C26.2450921,28.4359119 26.2557795,28.4317695 26.2662794,28.4271877 C26.2740918,28.4238611 26.2818417,28.4204719 26.2894666,28.416706 C26.299779,28.411622 26.3097164,28.4059732 26.3195913,28.4001361 C26.3267787,28.3959309 26.3339661,28.3918512 26.3408411,28.3872694 C26.350716,28.3806791 26.3600909,28.3734612 26.3694658,28.3661805 C26.3756532,28.3613476 26.3820281,28.3568285 26.3879031,28.3516818 C26.3976529,28.3432714 26.4067153,28.3341078 26.4157777,28.3248814 C26.4205902,28.3199857 26.4257151,28.3154667 26.4302776,28.31032 C26.44084,28.298583 26.4505899,28.2859673 26.4599648,28.2731006 C26.4623397,28.2698368 26.4650897,28.2669496 26.4673397,28.2636231 C26.4784645,28.2476181 26.4886519,28.2307972 26.4977768,28.2132859 L28.1460085,25.0516445 L30.6300435,26.7211202 L28.4410053,27.9304058 Z" id="Shape" fill="#000000"></path>
                    <path d="M25.7675349,10.9939422 C25.8798462,8.98597701 25.7451602,7.63628696 25.7393477,7.57979882 C25.716598,7.35805147 25.5420999,7.1828127 25.3212899,7.15990362 C19.9152873,6.59985505 16.3357021,3.65198988 16.3005149,3.62255328 C16.1267669,3.47675111 15.8737697,3.47675111 15.6997716,3.62230223 C15.664272,3.65205265 12.0846867,6.59991782 6.67862167,7.15990362 C6.45781162,7.1828127 6.28331356,7.35805147 6.26056381,7.57979882 C6.25162641,7.66704162 6.0452537,9.74900631 6.36718763,12.5917408 C6.66549682,15.2251553 7.4968001,19.0227277 9.76283746,22.1593888 C9.85452395,22.286236 9.99752236,22.3536452 10.1424583,22.3536452 C10.2378322,22.3536452 10.3341436,22.3244597 10.4172677,22.2638918 C10.6267029,22.1112483 10.6733899,21.8169451 10.521329,21.6066209 C8.37966531,18.6420603 7.58798659,15.0224884 7.30092727,12.5080755 C7.06555488,10.4463211 7.12149176,8.7684349 7.16486628,8.05147482 C11.8045023,7.47215752 15.029279,5.30652762 15.9998933,4.57983903 C16.97057,5.30659038 20.1950342,7.47234582 24.8352328,8.05147482 C24.8672949,8.57543374 24.906107,9.61299541 24.8317328,10.9409689 C24.817233,11.2005005 25.0149183,11.4226872 25.2732904,11.4371859 C25.5324125,11.4513079 25.7530351,11.2534739 25.7675349,10.9939422 Z" id="Path" fill="#000000"></path>
                    <path d="M15.8267077,26.8903963 C15.8823946,26.912615 15.9410814,26.9237243 15.9998933,26.9237243 C16.0587051,26.9237243 16.1174545,26.912615 16.1730789,26.8903963 C19.1941703,25.6834958 21.5586441,23.5821996 23.2007509,20.6448788 C24.4165499,18.4701481 25.2209785,15.8757104 25.5917244,12.933494 C25.6242865,12.675657 25.4424135,12.440227 25.1856664,12.4075894 C24.9291692,12.3749518 24.6944843,12.5574713 24.6619847,12.8153083 C23.6189338,21.0920139 19.4153554,24.5246101 15.9997683,25.9452869 C14.3492241,25.2594581 12.9018026,24.275058 11.6955035,23.0175692 C11.516068,22.8304679 11.2193213,22.8247563 11.0329484,23.0051418 C10.8465754,23.1854645 10.841013,23.4834081 11.0205735,23.6705721 C12.3621836,25.0690303 13.9791657,26.1523473 15.8267077,26.8903963 Z" id="Path" fill="#000000"></path>
                    <path d="M14.7447822,19.435907 C15.1832773,19.435907 15.5953978,19.2644341 15.9053318,18.9531845 L21.2397102,13.5962255 C21.8795781,12.9535787 21.8795781,11.9079204 21.2396477,11.2652109 C20.5996548,10.6225641 19.5585413,10.6226896 18.9185484,11.2652736 L14.7447822,15.4567567 L13.2381739,13.9436903 C12.598181,13.3010436 11.5570676,13.3011063 10.9170747,13.9437531 C10.2772068,14.5864627 10.2772068,15.6320582 10.9170747,16.274705 L13.5843576,18.9532472 C13.8942291,19.2645597 14.3064121,19.435907 14.7447822,19.435907 Z M11.5796923,14.6092462 C11.7169408,14.4714151 11.8972513,14.4024996 12.0776243,14.4024996 C12.2578723,14.4024996 12.4381828,14.4714779 12.5754313,14.6092462 L14.4133484,16.4550277 C14.5012849,16.5433375 14.6204086,16.5928588 14.7447197,16.5928588 C14.8689683,16.5928588 14.9881545,16.5432747 15.076091,16.4550277 L19.5811661,11.9307667 C19.855788,11.654979 20.3023456,11.6549163 20.5769675,11.9306412 C20.851527,12.2064289 20.851527,12.6549447 20.5769675,12.9306696 L15.2425892,18.2876286 C15.1096532,18.4211289 14.9328426,18.494689 14.7447822,18.494689 C14.5567218,18.494689 14.3799112,18.4211289 14.2469752,18.2876286 L11.5798173,15.6091491 C11.3053204,15.333487 11.3053204,14.8849083 11.5796923,14.6092462 Z" id="Shape" fill="#000000"></path>
                </g>
            </g>
        </g>
    </g>
</svg>