<?xml version="1.0" encoding="UTF-8"?>
<svg width="32px" height="33px" viewBox="0 0 32 33" version="1.1" xmlns="http://www.w3.org/2000/svg" xmlns:xlink="http://www.w3.org/1999/xlink">
    <title>Group 31</title>
    <g id="Page-1-V2" stroke="none" stroke-width="1" fill="none" fill-rule="evenodd">
        <g id="My-kryptomon-detail-V2" transform="translate(-585.000000, -1514.000000)">
            <g id="Group-31" transform="translate(585.000000, 1514.000000)">
                <rect id="Rectangle-Copy-21" x="0" y="0" width="32" height="32" rx="5"></rect>
                <g id="gem" transform="translate(1.000000, 0.000000)" fill-rule="nonzero">
                    <g id="Group" transform="translate(4.141673, 0.469740)">
                        <path d="M5.55520184,13.625594 L5.03078196,12.066758 L1.2361097,14.4058573 L0.0618845221,15.8102811 L9.97133582,30.8876907 C10.0463256,31.0022787 10.1689783,31.0598859 10.291631,31.060512 L10.9377504,17.4091916 L5.55520184,13.625594 Z" id="Path" fill="#BD80E1"></path>
                        <polygon id="Path" fill="#AF66DA" points="3.25314346 14.3463091 4.88150151 13.6043044 5.47487383 13.3868375 5.03071841 12.066758 1.2361097 14.4058573 0.0618845221 15.8102811 9.6122747 30.3414876"></polygon>
                        <path d="M10.2846405,0.000259365735 L10.2570595,0.00683409061 C10.2661472,0.00376588567 10.2753621,0.00138646143 10.2846405,0.000259365735 C10.2297963,0.00144907786 10.1753334,0.0145359112 10.1250648,0.0384553865 L10.1221415,0.0391441672 L10.1216331,0.0400207971 C10.0625945,0.0688243538 10.0095933,0.113031552 9.97012835,0.17370687 L0.0606770599,15.4007697 C-0.0206677593,15.5253764 -0.0200322529,15.6856744 0.0619480727,15.8102811 L5.55526539,13.625594 L8.5152,12.2580512 L10.0087671,1.45652962 L10.3929308,0.356108523 L10.2846405,0.000259365735 Z" id="Path" fill="#CB97E7"></path>
                        <g transform="translate(10.235041, 31.029006)" fill="#BD80E1" id="Path">
                            <path d="M0.106131905,0.100069839 C0.120731905,0.100069839 0.135731905,0.100269839 0.158731905,0.100469839 C0.158731905,0.100469839 0.132331905,0.100269839 0.106131905,0.100069839 Z"></path>
                            <path d=""></path>
                        </g>
                        <path d="M18.5007214,13.0720648 L15.8320394,12.2580512 L15.0318733,13.625594 L12.2036791,15.1008996 L9.88306398,28.3505357 L10.2935376,31.060512 C10.2935376,31.060512 10.3678918,31.0592597 10.2935376,31.060512 C10.4168258,31.060512 10.540114,31.0029049 10.6157393,30.8876907 L20.5251906,15.8102811 L18.5007214,13.0720648 Z" id="Path" fill="#D9B1EE"></path>
                        <path d="M20.5264616,15.4007697 L11.1142941,0.937815133 L10.6170103,0.173644253 C10.5458336,0.0653178338 10.4327135,0.0077107206 10.3170513,0.000822913582 C10.3810468,0.00990229556 10.3170513,0.000822913582 10.3170513,0.000822913582 L10.2846405,2.10035172 L11.9365123,12.3793392 L15.0318733,13.6255314 L20.5251906,15.8102185 C20.6071709,15.6856744 20.6078064,15.5253764 20.5264616,15.4007697 Z" id="Path" fill="#E5CAF3"></path>
                        <path d="M10.287818,0.0107789255 L10.2845769,0.000259365735 C10.2297327,0.00144907786 10.1752698,0.0145359112 10.1250013,0.0384553865 L10.1220779,0.0391441672 L10.1215695,0.0400207971 C10.062531,0.0688243538 10.0095298,0.113031552 9.9700648,0.17370687 L0.0606135093,15.4007697 C-0.0207313099,15.5253764 -0.0200958035,15.6856744 0.0618845221,15.8102811 L3.33963588,14.5067323 L10.287818,0.0107789255 Z" id="Path" fill="#BD80E1"></path>
                        <path d="M10.4651243,0.181847005 C10.4435171,0.0710159287 10.383144,0.0102779941 10.3170513,0.000885530009 C10.3170513,0.000885530009 10.3164158,0.000885530009 10.3157803,0.000885530009 C10.3056122,0.000259365735 10.2960796,-0.00036679854 10.2859115,0.000259365735 C10.285276,0.000259365735 10.285276,0.000259365735 10.2846405,0.000259365735 C10.2179123,0.0083995013 10.1524551,0.0678851073 10.1219508,0.181847005 L5.55520184,13.625594 L7.37878746,15.415735 L13.347972,15.415735 L15.0318733,13.625594 L10.4651243,0.181847005 Z" id="Path" fill="#D9B1EE"></path>
                        <path d="M15.0318733,13.625594 L10.4683018,30.7236356 C10.4428816,30.9484286 10.3678918,31.0592597 10.2935376,31.060512 C10.2929021,31.060512 10.2922665,31.060512 10.291631,31.060512 C10.2153703,31.0598859 10.141016,30.9465501 10.1187733,30.7236356 L5.55520184,13.625594 L15.0318733,13.625594 Z" id="Path" fill="#CB97E7"></path>
                        <path d="M8.68640543,19.1272611 C8.25508723,18.8292069 7.89310279,18.480997 7.60693426,18.0778724 C7.48390022,17.9045502 7.21991086,17.9035483 7.10551971,18.0825687 C6.83911542,18.4994062 6.47395345,18.8444853 6.0278915,19.1307677 C5.83774799,19.2528071 5.84658153,19.526253 6.04225395,19.6394635 C6.49041306,19.8988834 6.8466144,20.2247393 7.09414414,20.629304 C7.21018761,20.8190318 7.48841231,20.8231645 7.60782396,20.6354404 C7.88001136,20.2073945 8.23462393,19.8757153 8.65958706,19.6263141 C8.8480147,19.5156708 8.86606309,19.2514295 8.68640543,19.1272611 L8.68640543,19.1272611 Z" id="Path" fill="#FED402"></path>
                        <path d="M17.8281014,8.07301965 C17.3967832,7.77496546 17.0347988,7.42675551 16.7486303,7.02363095 C16.6255962,6.85030868 16.3616069,6.84930681 16.2472157,7.02832718 C15.9808114,7.44516474 15.6155859,7.79024387 15.1695875,8.07652617 C14.979444,8.19856559 14.9882775,8.47201153 15.18395,8.58522203 C15.6321091,8.84464189 15.9883104,9.17049778 16.2358402,9.57506252 C16.3518836,9.76479029 16.6301083,9.76892297 16.74952,9.58119893 C17.0217074,9.15315303 17.3763199,8.82147381 17.8012831,8.57207258 C17.9897107,8.46142935 18.0077591,8.19718803 17.8281014,8.07301965 L17.8281014,8.07301965 Z" id="Path" fill="#FED402"></path>
                    </g>
                    <g id="Group" fill="#000000">
                        <path d="M18.6971702,8.81301169 C18.7035253,9.08151093 18.8482301,9.32327296 19.0841936,9.45990201 C19.4789702,9.68838935 19.7685069,9.95908016 19.9692634,10.2871902 C20.1102823,10.5177439 20.3573672,10.6566898 20.6303807,10.6590066 C20.6326685,10.6590692 20.6349564,10.6590692 20.6372442,10.6590692 C20.9064447,10.6590692 21.1519408,10.5252579 21.2949933,10.3003397 C21.5214242,9.94424007 21.8131217,9.66459511 22.1867994,9.44531238 C22.4174247,9.30993566 22.5611127,9.071868 22.5710266,8.80850331 C22.5807499,8.54983485 22.4583513,8.30675788 22.2434866,8.15835694 C21.8533492,7.88866799 21.5294952,7.57439614 21.2808851,7.22418246 C21.1297616,7.01122399 20.8817235,6.88724347 20.618878,6.89413128 C20.3599092,6.9003303 20.1231195,7.03251358 19.9855959,7.24766362 C19.7630416,7.59593619 19.457363,7.89192405 19.0510202,8.15272147 C18.8231276,8.29905606 18.6908787,8.5458274 18.6971702,8.81301169 L18.6971702,8.81301169 Z M20.6469039,7.95804699 C20.8842655,8.25560026 21.1649051,8.52879573 21.4850097,8.77375119 C21.155881,8.997918 20.8721909,9.2689219 20.6378161,9.58319375 C20.4150711,9.2826349 20.1316988,9.0169534 19.7914487,8.78965577 C20.1303643,8.54413675 20.4168506,8.2656815 20.6469039,7.95804699 L20.6469039,7.95804699 Z" id="Shape"></path>
                        <path d="M10.8275674,21.3414943 C10.9685863,21.5719854 11.2157347,21.7109313 11.4886211,21.7132481 C11.4909725,21.7133107 11.4931968,21.7133107 11.4954846,21.7133107 C11.7646851,21.7133107 12.0101813,21.5794994 12.1532337,21.3545812 C12.3797282,20.9984816 12.6714257,20.7188366 13.0449763,20.4995539 C13.2756651,20.3642398 13.4192896,20.1261721 13.4292035,19.86287 C13.4389903,19.6041389 13.3165282,19.3609994 13.1016635,19.2125358 C12.7115261,18.9429095 12.3876721,18.6287002 12.1391255,18.2784239 C11.9879385,18.0655281 11.7409172,17.9421111 11.4771185,17.9483728 C11.2180861,17.9545718 10.9812964,18.0867551 10.8437728,18.3019677 C10.621282,18.6501151 10.3156034,18.9461029 9.90932419,19.2069003 C9.68149515,19.3531097 9.54918272,19.599881 9.55541068,19.8670027 C9.56170219,20.1355646 9.70634345,20.3774518 9.94237053,20.5140809 C10.3372107,20.7426308 10.6267474,21.013259 10.8275674,21.3414943 L10.8275674,21.3414943 Z M11.5052079,19.0122259 C11.7425695,19.3098417 12.0232091,19.5829746 12.3433137,19.8279301 C12.0141849,20.0521595 11.7304949,20.3231634 11.4960566,20.6374352 C11.2733116,20.3368138 10.9900028,20.0711323 10.6497527,19.8438346 C10.9887318,19.598253 11.2751545,19.3197977 11.5052079,19.0122259 Z" id="Shape"></path>
                        <path d="M25.0733331,16.5251014 C25.0750489,16.5223462 25.0767648,16.5195285 25.0784171,16.5167108 C25.2496225,16.2408228 25.247017,15.8901708 25.0691387,15.6167875 L22.3489807,11.4372662 C22.2068814,11.2189227 21.9121336,11.1554922 21.6904689,11.29544 C21.4689314,11.4354503 21.4044275,11.7259279 21.5465267,11.9442714 L23.8194789,15.43664 L19.5558029,13.7411124 L18.3048721,10.0585777 C18.2213666,9.81268296 17.9514035,9.68024921 17.7015859,9.76233935 C17.451959,9.84461734 17.3173587,10.1107372 17.4009278,10.3567571 L18.5114117,13.6259608 L10.358945,13.6259608 L14.4351466,1.62664955 L16.7481357,8.4353094 C16.8317048,8.68120411 17.1016679,8.81376309 17.3514219,8.73154772 C17.6010488,8.64926974 17.7356491,8.38314992 17.65208,8.13712998 L16.1050032,3.58291198 L18.2410037,6.86501464 C18.383103,7.0832955 18.6778508,7.14685118 18.8995155,7.00684084 C19.121053,6.86683051 19.1855569,6.57635291 19.0434577,6.35800942 L15.1596239,0.390225576 C15.0006202,0.145896276 14.7297673,0 14.4352101,0 C14.1405894,0 13.8698001,0.145896276 13.7107964,0.390162959 L3.80115443,15.6168501 C3.6193996,15.8962446 3.62022576,16.25679 3.80331515,16.5353705 L3.80630203,16.5398788 C3.80636558,16.5399415 3.80636558,16.5400041 3.80642913,16.5401293 L5.8387786,19.6323163 C5.93003732,19.771137 6.08306726,19.846715 6.23927473,19.846715 C6.32805498,19.846715 6.41785203,19.8222946 6.49792584,19.7711996 C6.71889141,19.63025 6.7819972,19.3394593 6.63894471,19.121742 L4.91748497,16.5025594 L9.3734652,14.7305772 L9.95114051,16.8947261 C10.0074464,17.1055556 10.2004497,17.245065 10.4118191,17.245065 C10.4519196,17.245065 10.4927191,17.2400557 10.5333915,17.2294736 C10.7879753,17.1635385 10.940052,16.9067485 10.8731332,16.6559071 L10.315095,14.5652072 L18.5555159,14.5652072 L14.4353372,30.001722 L12.5558906,22.9603168 C12.4889082,22.7094128 12.228287,22.5591334 11.9737032,22.6255694 C11.7191193,22.6915045 11.5670426,22.9482945 11.6339615,23.1991359 L13.2170715,29.130477 L7.74383614,20.8028678 C7.60078365,20.5850879 7.30559092,20.5229098 7.0846889,20.663922 C6.86372332,20.8048716 6.80061754,21.0956622 6.94367003,21.3133796 L13.7128935,31.6128426 C13.8721515,31.8552308 14.1421781,32 14.4352737,32 C14.7283057,32 14.9983959,31.8552308 15.1575902,31.6129052 L25.0672322,16.5352452 C25.0693294,16.5319892 25.0711723,16.5284826 25.0733331,16.5251014 L25.0733331,16.5251014 Z M23.9529353,16.5025594 L15.6533488,29.1305396 L19.4968915,14.7305772 L23.9529353,16.5025594 Z M5.05081422,15.43664 L12.7653535,3.58291198 L9.31455375,13.7411124 L5.05081422,15.43664 Z" id="Shape"></path>
                        <path d="M7.52566679,3.08573754 C7.61978529,3.20170317 7.75832568,3.26194017 7.89813709,3.26194017 C8.00255079,3.26194017 8.10766355,3.22831515 8.19561764,3.15899876 C8.40114041,2.99694745 8.43444094,2.70139791 8.27003543,2.49889639 L7.37727604,1.39935192 C7.21280699,1.19678778 6.91284797,1.16391415 6.7073252,1.32602808 C6.50180243,1.4880794 6.46850189,1.78362894 6.6329074,1.98613046 L7.52566679,3.08573754 Z" id="Path"></path>
                        <path d="M2.74074845,7.47990795 L3.73842995,8.0571688 C3.81424586,8.1010003 3.89730655,8.12185157 3.97935042,8.12185157 C4.14280267,8.12185157 4.30206057,8.03894742 4.39077727,7.88998294 C4.52410651,7.66631706 4.44809995,7.37853196 4.22116061,7.24716269 L3.22347911,6.66990185 C2.99653978,6.53872043 2.70446104,6.61342183 2.57113179,6.83708771 C2.43780255,7.06075359 2.51374557,7.34853869 2.74074845,7.47990795 Z" id="Path"></path>
                        <path d="M8.19561764,28.840876 C7.99009487,28.6788247 7.69013584,28.7116983 7.52566679,28.9141998 L6.6329074,30.0138069 C6.46850189,30.2163084 6.50180243,30.511858 6.7073252,30.6739093 C6.79521573,30.7431631 6.90032849,30.7768507 7.00474219,30.7768507 C7.1445536,30.7768507 7.283094,30.7165511 7.37721249,30.6006481 L8.26997188,29.501041 C8.43450449,29.2984142 8.40114041,29.0029273 8.19561764,28.840876 L8.19561764,28.840876 Z" id="Path"></path>
                        <path d="M3.7384935,23.9428312 L2.740812,24.5200294 C2.51380912,24.6513987 2.43780255,24.9391212 2.57113179,25.1628497 C2.65991204,25.3118142 2.81910639,25.3947183 2.98262219,25.3947183 C3.06466606,25.3947183 3.14772675,25.373867 3.22354266,25.3300355 L4.22122416,24.7528373 C4.44822705,24.621468 4.52423361,24.3337456 4.39090437,24.1100171 C4.25751158,23.8862886 3.96536928,23.8114619 3.7384935,23.9428312 L3.7384935,23.9428312 Z" id="Path"></path>
                        <path d="M1.38101896,15.5303142 L0.4766298,15.5303142 C0.213403049,15.5303142 0,15.7405175 0,15.9999374 C0,16.2593572 0.213403049,16.4695606 0.4766298,16.4695606 L1.38101896,16.4695606 C1.64424571,16.4695606 1.85764876,16.2593572 1.85764876,15.9999374 C1.85764876,15.7405175 1.64424571,15.5303142 1.38101896,15.5303142 L1.38101896,15.5303142 Z" id="Path"></path>
                        <path d="M20.8044459,3.15906138 C20.8924,3.22831515 20.9974492,3.26200279 21.1019265,3.26200279 C21.2417379,3.26200279 21.3802783,3.20164055 21.4743968,3.08580016 L22.3671562,1.98625569 C22.5316252,1.78375417 22.4982611,1.48820463 22.2927384,1.32615332 C22.0870249,1.164102 21.7872566,1.19697563 21.6227875,1.39947715 L20.7300281,2.49902162 C20.5655591,2.70152314 20.5988596,2.99701007 20.8044459,3.15906138 L20.8044459,3.15906138 Z" id="Path"></path>
                        <path d="M25.7765209,6.66996447 L24.7789029,7.24722531 C24.5519001,7.37859457 24.475957,7.66637967 24.6092227,7.89004555 C24.698003,8.03901003 24.8571973,8.12191418 25.0207131,8.12191418 C25.1026935,8.12191418 25.1858177,8.10106291 25.2616336,8.05723141 L26.2592515,7.47997057 C26.4862544,7.34860131 26.5621974,7.06081621 26.4289318,6.83715033 C26.295539,6.61342183 26.0032696,6.5385952 25.7765209,6.66996447 L25.7765209,6.66996447 Z" id="Path"></path>
                        <path d="M21.4743968,28.9141998 C21.3099913,28.7117609 21.0100322,28.6787621 20.8044459,28.840876 C20.5989231,29.0028647 20.5655591,29.2984142 20.7300281,29.5009784 L21.6227875,30.6005855 C21.716906,30.7165511 21.8554464,30.7767881 21.9952578,30.7767881 C22.0996715,30.7767881 22.2048478,30.7431631 22.2927384,30.6738467 C22.4982611,30.511858 22.5316252,30.2163084 22.3671562,30.0137443 L21.4743968,28.9141998 Z" id="Path"></path>
                        <path d="M26.2592515,24.5200294 L25.2616336,23.9428312 C25.0346943,23.8115872 24.7426155,23.8862886 24.6092227,24.1100171 C24.475957,24.3336829 24.5519636,24.621468 24.7789029,24.7528373 L25.7765209,25.3300355 C25.8523368,25.373867 25.9353975,25.3947183 26.0174414,25.3947183 C26.1808936,25.3947183 26.340088,25.3118142 26.4289318,25.1628497 C26.5621339,24.9391212 26.4861909,24.6513361 26.2592515,24.5200294 L26.2592515,24.5200294 Z" id="Path"></path>
                        <path d="M28.5233702,15.5303142 L27.6190446,15.5303142 C27.3557543,15.5303142 27.1424148,15.7405175 27.1424148,15.9999374 C27.1424148,16.2593572 27.3557543,16.4695606 27.6190446,16.4695606 L28.5233702,16.4695606 C28.7866605,16.4695606 29,16.2593572 29,15.9999374 C29,15.7405175 28.786597,15.5303142 28.5233702,15.5303142 L28.5233702,15.5303142 Z" id="Path"></path>
                    </g>
                </g>
            </g>
        </g>
    </g>
</svg>