<?xml version="1.0" encoding="UTF-8"?>
<svg width="28px" height="32px" viewBox="0 0 28 32" version="1.1" xmlns="http://www.w3.org/2000/svg" xmlns:xlink="http://www.w3.org/1999/xlink">
    <title>iconmonstr-discord-1 copy</title>
    <g id="Homepage" stroke="none" stroke-width="1" fill="none" fill-rule="evenodd">
        <g id="Community-page" transform="translate(-587.000000, -579.000000)" fill="#535FEE">
            <g id="iconmonstr-discord-1-copy" transform="translate(587.000000, 579.000000)">
                <path d="M24.72,0 C26.528,0 28,1.472 28,3.296 L28,32 L24.56,28.96 L22.624,27.168 L20.576,25.264 L21.424,28.224 L3.28,28.224 C1.472,28.224 0,26.752 0,24.928 L0,3.296 C0,1.472 1.472,0 3.28,0 L24.72,0 L24.72,0 Z M18.544,20.896 C22.08,20.784 23.44,18.464 23.44,18.464 C23.44,13.312 21.136,9.136 21.136,9.136 C18.832,7.408 16.64,7.45586704 16.64,7.45586704 L16.416,7.712 C19.136,8.544 20.4,9.744 20.4,9.744 C18.736,8.832 17.104,8.384 15.584,8.208 C14.432,8.08 13.328,8.112 12.352,8.24 L12.08,8.272 C11.52,8.32 10.16,8.528 8.448,9.28 C7.856,9.552 7.504,9.744 7.504,9.744 C7.504,9.744 8.832,8.48 11.712,7.648 L11.552,7.45586704 C11.552,7.45586704 9.36,7.408 7.056,9.136 C7.056,9.136 4.752,13.312 4.752,18.464 C4.752,18.464 6.096,20.784 9.632,20.896 C9.632,20.896 10.224,20.176 10.704,19.568 C8.672,18.96 7.904,17.68 7.904,17.68 L8.352,17.952 L8.416,18 L8.47866667,18.036 L8.49733333,18.044 L8.56,18.08 C8.96,18.304 9.36,18.48 9.728,18.624 C10.384,18.88 11.168,19.136 12.08,19.312 C13.28,19.536 14.688,19.616 16.224,19.328 C16.976,19.2 17.744,18.976 18.544,18.64 C19.104,18.432 19.728,18.128 20.384,17.696 C20.384,17.696 19.584,19.008 17.488,19.6 C17.968,20.208 18.544,20.896 18.544,20.896 L18.544,20.896 Z M11.104,13.424 C10.192,13.424 9.472,14.224 9.472,15.2 C9.472,16.176 10.208,16.976 11.104,16.976 C12.016,16.976 12.736,16.176 12.736,15.2 C12.752,14.224 12.016,13.424 11.104,13.424 Z M16.944,13.424 C16.032,13.424 15.312,14.224 15.312,15.2 C15.312,16.176 16.048,16.976 16.944,16.976 C17.856,16.976 18.576,16.176 18.576,15.2 C18.576,14.224 17.856,13.424 16.944,13.424 Z" id="Shape"></path>
            </g>
        </g>
    </g>
</svg>