<?xml version="1.0" encoding="UTF-8"?>
<svg width="31px" height="31px" viewBox="0 0 31 31" version="1.1" xmlns="http://www.w3.org/2000/svg" xmlns:xlink="http://www.w3.org/1999/xlink">
    <title>Facebook Copy</title>
    <g id="Homepage" stroke="none" stroke-width="1" fill="none" fill-rule="evenodd">
        <g id="Community-page" transform="translate(-344.000000, -461.000000)" fill="#4267B2">
            <path d="M360.558104,492 L345.710962,492 C344.765747,492 344,491.233778 344,490.288931 L344,462.710949 C344,461.765861 344.765867,461 345.710962,461 L373.289158,461 C374.234013,461 375,461.765861 375,462.710949 L375,490.288931 C375,491.233898 374.233892,492 373.289158,492 L365.389551,492 L365.389551,479.995092 L369.419045,479.995092 L370.022404,475.316566 L365.389551,475.316566 L365.389551,472.329623 C365.389551,470.975081 365.765689,470.052006 367.708083,470.052006 L370.185514,470.050924 L370.185514,465.866413 C369.757051,465.809397 368.286423,465.682014 366.575461,465.682014 C363.003539,465.682014 360.558104,467.862319 360.558104,471.866281 L360.558104,475.316566 L356.518266,475.316566 L356.518266,479.995092 L360.558104,479.995092 L360.558104,492 L360.558104,492 Z" id="Facebook-Copy"></path>
        </g>
    </g>
</svg>