<?xml version="1.0" encoding="UTF-8"?>
<svg width="31px" height="31px" viewBox="0 0 31 31" version="1.1" xmlns="http://www.w3.org/2000/svg" xmlns:xlink="http://www.w3.org/1999/xlink">
    <title>iconmonstr-linkedin-3</title>
    <g id="Homepage" stroke="none" stroke-width="1" fill="none" fill-rule="evenodd">
        <g id="Community-page" transform="translate(-1065.000000, -461.000000)" fill="#0961B8" fill-rule="nonzero">
            <g id="iconmonstr-linkedin-3" transform="translate(1065.000000, 461.000000)">
                <path d="M24.5416667,0 L6.45833333,0 C2.89204167,0 0,2.89204167 0,6.45833333 L0,24.5416667 C0,28.1079583 2.89204167,31 6.45833333,31 L24.5416667,31 C28.10925,31 31,28.1079583 31,24.5416667 L31,6.45833333 C31,2.89204167 28.10925,0 24.5416667,0 Z M10.3333333,24.5416667 L6.45833333,24.5416667 L6.45833333,10.3333333 L10.3333333,10.3333333 L10.3333333,24.5416667 Z M8.39583333,8.6955 C7.14808333,8.6955 6.13541667,7.67508333 6.13541667,6.417 C6.13541667,5.15891667 7.14808333,4.1385 8.39583333,4.1385 C9.64358333,4.1385 10.65625,5.15891667 10.65625,6.417 C10.65625,7.67508333 9.644875,8.6955 8.39583333,8.6955 Z M25.8333333,24.5416667 L21.9583333,24.5416667 L21.9583333,17.3031667 C21.9583333,12.9528333 16.7916667,13.2822083 16.7916667,17.3031667 L16.7916667,24.5416667 L12.9166667,24.5416667 L12.9166667,10.3333333 L16.7916667,10.3333333 L16.7916667,12.613125 C18.5948333,9.272875 25.8333333,9.02616667 25.8333333,15.8112917 L25.8333333,24.5416667 Z" id="Shape"></path>
            </g>
        </g>
    </g>
</svg>