<?xml version="1.0" encoding="UTF-8"?>
<svg width="31px" height="24px" viewBox="0 0 31 24" version="1.1" xmlns="http://www.w3.org/2000/svg" xmlns:xlink="http://www.w3.org/1999/xlink">
    <title>Medium Copy</title>
    <g id="Homepage" stroke="none" stroke-width="1" fill="none" fill-rule="evenodd">
        <g id="Community-page" transform="translate(-585.000000, -464.000000)" fill="#E7E3D7">
            <path d="M615.315789,484.463158 L614.1168,484.463158 C613.671663,484.463158 613.042105,483.821019 613.042105,483.409912 L613.042105,468.509474 C613.042105,468.097861 613.671663,467.536842 614.1168,467.536842 L615.315789,467.536842 L615.315789,464 L604.452632,464 L604.452632,467.536842 L606.726316,467.536842 L606.726316,483.2 L606.614905,483.2 L601.305398,464 L597.194703,464 L591.953684,483.2 L591.821053,483.2 L591.821053,467.536842 L594.094737,467.536842 L594.094737,464 L585,464 L585,467.536842 L586.164573,467.536842 C586.644177,467.536842 587.273684,468.097861 587.273684,468.509474 L587.273684,483.409912 C587.273684,483.821019 586.644177,484.463158 586.164573,484.463158 L585,484.463158 L585,488 L596.372564,488 L600.106383,474.105263 L600.209103,474.105263 L603.977457,488 L615.315789,488 L615.315789,484.463158" id="Medium-Copy" transform="translate(600.157895, 476.000000) scale(1, -1) translate(-600.157895, -476.000000) "></path>
        </g>
    </g>
</svg>