<?xml version="1.0" encoding="UTF-8"?>
<svg width="32px" height="32px" viewBox="0 0 32 32" version="1.1" xmlns="http://www.w3.org/2000/svg" xmlns:xlink="http://www.w3.org/1999/xlink">
    <title>Group 18 Copy 2</title>
    <g id="Homepage" stroke="none" stroke-width="1" fill="none" fill-rule="evenodd">
        <g id="Community-page" transform="translate(-825.000000, -579.000000)">
            <g id="Group-18-Copy-2" transform="translate(825.000000, 579.000000)">
                <circle id="Oval" fill="#F14201" cx="16" cy="16" r="16"></circle>
                <path d="M18.8725661,18.2782134 C18.1309674,18.2782134 17.5078012,17.6605606 17.5078012,16.899001 C17.5078012,16.1374414 18.1309674,15.4994124 18.8725661,15.4994124 C19.6141648,15.4994124 20.2156286,16.1374414 20.2156286,16.899001 C20.2156286,17.6605606 19.6141648,18.2782134 18.8725661,18.2782134 M19.1875595,20.9551335 C18.4968062,21.6638424 17.4315331,22.0083271 15.9309739,22.0083271 C15.9278736,22.0083271 15.9241532,22.0076904 15.9204328,22.0076904 C15.9173324,22.0076904 15.9136121,22.0083271 15.9098917,22.0083271 C14.4093324,22.0083271 13.3446794,21.6638424 12.6545462,20.9551335 C12.4424837,20.7373631 12.4424837,20.3852374 12.6545462,20.1681037 C12.8659886,19.9509701 13.208885,19.9509701 13.4209475,20.1681037 C13.8971581,20.657132 14.7113045,20.8952785 15.9098917,20.8952785 C15.9136121,20.8952785 15.9173324,20.8959153 15.9204328,20.8959153 C15.9241532,20.8959153 15.9278736,20.8952785 15.9309739,20.8952785 C17.1295611,20.8952785 17.9443276,20.657132 18.4211582,20.1681037 C18.6332207,19.9503333 18.9761171,19.9509701 19.1875595,20.1681037 C19.3990019,20.3858741 19.3990019,20.7379999 19.1875595,20.9551335 M11.6264771,16.899001 C11.6264771,16.1380782 12.2484031,15.4994124 12.9893817,15.4994124 C13.7309804,15.4994124 14.3324443,16.1380782 14.3324443,16.899001 C14.3324443,17.6605606 13.7309804,18.2782134 12.9893817,18.2782134 C12.2484031,18.2782134 11.6264771,17.6605606 11.6264771,16.899001 M22.5334346,8.11304861 C23.0356879,8.11304861 23.4443112,8.53267049 23.4443112,9.04780569 C23.4443112,9.56357764 23.0356879,9.98319951 22.5334346,9.98319951 C22.0311813,9.98319951 21.6225579,9.56357764 21.6225579,9.04780569 C21.6225579,8.53267049 22.0311813,8.11304861 22.5334346,8.11304861 M25.8421057,15.3841597 C25.8421057,14.0336012 24.7724922,12.935198 23.4573326,12.935198 C22.8881122,12.935198 22.3653967,13.1415068 21.9549132,13.484718 C20.5008589,12.5461404 18.655543,11.9807015 16.6775331,11.8609915 L17.7093226,8.5110208 L20.5448835,9.19680647 C20.6192914,10.2570044 21.482423,11.0962481 22.5334346,11.0962481 C23.6328112,11.0962481 24.5275662,10.1774099 24.5275662,9.04780569 C24.5275662,7.91883819 23.6328112,7 22.5334346,7 C21.764553,7 21.096122,7.44954938 20.7631467,8.1060443 L17.468117,7.30946317 C17.1921877,7.24260385 16.9131581,7.40561325 16.827589,7.68323865 L15.5465331,11.8412521 C13.4153669,11.8947395 11.4119343,12.4620887 9.8512287,13.4554273 C9.44632573,13.1300452 8.93725171,12.935198 8.38477308,12.935198 C7.06961351,12.935198 6,14.0336012 6,15.3841597 C6,16.2189461 6.40924343,16.9569457 7.03240956,17.3988541 C7.0063668,17.5930645 6.99272535,17.7885484 6.99272535,17.9865794 C6.99272535,19.6746182 7.94824675,21.2448573 9.68319087,22.4075728 C11.3462074,23.5225317 13.5474409,24.136364 15.8807486,24.136364 C18.2140562,24.136364 20.4152898,23.5225317 22.0783063,22.4075728 C23.8132504,21.2448573 24.7687718,19.6746182 24.7687718,17.9865794 C24.7687718,17.8063776 24.7569905,17.6274493 24.7352882,17.4497945 C25.3999988,17.0148905 25.8421057,16.2514207 25.8421057,15.3841597" id="Reddit-Copy" fill="#232122"></path>
            </g>
        </g>
    </g>
</svg>