<?xml version="1.0" encoding="UTF-8"?>
<svg width="32px" height="32px" viewBox="0 0 32 32" version="1.1" xmlns="http://www.w3.org/2000/svg" xmlns:xlink="http://www.w3.org/1999/xlink">
    <title>telegram copy 3</title>
    <g id="Homepage" stroke="none" stroke-width="1" fill="none" fill-rule="evenodd">
        <g id="Community-page" transform="translate(-824.000000, -460.000000)" fill="#3DA4FF" fill-rule="nonzero">
            <g id="telegram-copy-3" transform="translate(824.000000, 460.000000)">
                <path d="M16,32 C24.8386667,32 32,24.8386667 32,16 C32,7.16133333 24.8386667,0 16,0 C7.16133333,0 0,7.16133333 0,16 C0,24.8386667 7.16133333,32 16,32 Z M7.32133333,15.6533333 L22.748,9.70533333 C23.464,9.44666667 24.0893333,9.88 23.8573333,10.9626667 L23.8586667,10.9613333 L21.232,23.336 C21.0373333,24.2133333 20.516,24.4266667 19.7866667,24.0133333 L15.7866667,21.0653333 L13.8573333,22.924 C13.644,23.1373333 13.464,23.3173333 13.0506667,23.3173333 L13.3346667,19.2466667 L20.748,12.5493333 C21.0706667,12.2653333 20.676,12.1053333 20.2506667,12.388 L11.0893333,18.156 L7.14,16.924 C6.28266667,16.652 6.264,16.0666667 7.32133333,15.6533333 Z" id="Shape"></path>
            </g>
        </g>
    </g>
</svg>