<?xml version="1.0" encoding="UTF-8"?>
<svg width="32px" height="26px" viewBox="0 0 32 26" version="1.1" xmlns="http://www.w3.org/2000/svg" xmlns:xlink="http://www.w3.org/1999/xlink">
    <title>Twitter Copy</title>
    <g id="Homepage" stroke="none" stroke-width="1" fill="none" fill-rule="evenodd">
        <g id="Community-page" transform="translate(-345.000000, -582.000000)" fill="#1D99E5">
            <path d="M376.2,585.077934 C375.053601,585.6 373.819299,585.953052 372.524564,586.110798 C373.846769,585.299531 374.861314,584.013146 375.339285,582.480751 C374.101321,583.231925 372.733333,583.778404 371.271949,584.071362 C370.107237,582.796244 368.442578,582 366.600282,582 C363.067688,582 360.20169,584.938967 360.20169,588.56338 C360.20169,589.077934 360.25663,589.577465 360.366508,590.058216 C355.046557,589.784038 350.330939,587.173709 347.171932,583.198122 C346.620708,584.170892 346.305723,585.299531 346.305723,586.501408 C346.305723,588.777465 347.43564,590.786854 349.153407,591.964319 C348.105899,591.932394 347.116992,591.633803 346.252615,591.14554 L346.252615,591.226291 C346.252615,594.407512 348.459341,597.061033 351.389435,597.661972 C350.852861,597.815962 350.286987,597.892958 349.7028,597.892958 C349.290755,597.892958 348.887868,597.853521 348.497799,597.776526 C349.312731,600.383099 351.675119,602.28169 354.477021,602.332394 C352.286776,604.093897 349.525163,605.143662 346.527311,605.143662 C346.010882,605.143662 345.499947,605.113615 345,605.053521 C347.833034,606.912676 351.198979,608 354.81215,608 C366.587463,608 373.024511,598 373.024511,589.325822 C373.024511,589.040376 373.019017,588.75493 373.00803,588.475117 C374.258813,587.549296 375.344779,586.394366 376.2,585.077934" id="Twitter-Copy"></path>
        </g>
    </g>
</svg>